{
.appVersion = "3436";
.formatVersion = 3;
DisplayStrings = (
"",
"HHHHHH
abcdefg",
ABCDEFGHIJKL,
"HHOHHOOHOO
HHBHHOOBOO
HHCHHOOCOO
HHDHHOODOO"
);
axes = (
{
name = Weight;
tag = wght;
},
{
name = Width;
tag = wdth;
}
);
date = "2025-10-19 19:33:20 +0000";
familyName = Juncture;
fontMaster = (
{
axesValues = (
400,
100
);
iconName = Condensed;
id = "1B8EDE0E-D46F-48F9-B9C6-2CD34FEA95FD";
metricValues = (
{
pos = 1540;
},
{
},
{
over = 24;
pos = 1480;
},
{
over = 24;
pos = 1060;
},
{
over = -24;
},
{
pos = -60;
},
{
over = -24;
pos = -440;
},
{
}
);
name = Condensed;
numberValues = (
0
);
stemValues = (
89,
76
);
userData = {
GSCornerRadius = 30;
"Letterink-NibData" = {
AngleInDegrees = 45;
MainAxisWidth = 30;
MinorAxisWidth = 15;
};
};
},
{
axesValues = (
400,
0
);
id = m003;
metricValues = (
{
pos = 1540;
},
{
},
{
over = 24;
pos = 1480;
},
{
over = 24;
pos = 1060;
},
{
over = -24;
},
{
pos = -60;
},
{
over = -24;
pos = -440;
},
{
}
);
name = Mono;
numberValues = (
0
);
stemValues = (
89,
76
);
userData = {
GSCornerRadius = 30;
"Letterink-NibData" = {
AngleInDegrees = 45;
MainAxisWidth = 30;
MinorAxisWidth = 15;
};
};
}
);
glyphs = (
{
glyphname = A;
lastChange = "2025-12-04 14:39:54 +0000";
layers = (
{
anchors = (
{
name = bottom;
pos = (324,0);
},
{
name = ogonek;
pos = (582,10);
},
{
name = top;
pos = (324,1480);
}
);
background = {
shapes = (
{
closed = 1;
nodes = (
(210,0,l),
(347,1297,l),
(304,1297,l),
(440,0,l),
(632,0,l),
(424,1480,l),
(223,1480,l),
(15,0,l)
);
}
);
};
layerId = "1B8EDE0E-D46F-48F9-B9C6-2CD34FEA95FD";
shapes = (
{
closed = 1;
nodes = (
(493,510,l),
(142,510,l),
(144,348,l),
(495,348,l)
);
},
{
closed = 1;
nodes = (
(181,0,ls),
(199,0,o),
(211,10,o),
(213,28,cs),
(317,1077,l),
(334,1077,l),
(437,28,ls),
(439,10,o),
(451,0,o),
(469,0,cs),
(600,0,ls),
(620,0,o),
(631,11,o),
(628,32,cs),
(438,1452,ls),
(436,1470,o),
(424,1480,o),
(406,1480,cs),
(241,1480,ls),
(223,1480,o),
(211,1470,o),
(209,1452,cs),
(19,32,ls),
(16,11,o),
(27,0,o),
(47,0,cs)
);
}
);
width = 647;
},
{
anchors = (
{
name = bottom;
pos = (629,0);
},
{
name = ogonek;
pos = (1136,10);
},
{
name = top;
pos = (629,1480);
}
);
layerId = m003;
shapes = (
{
closed = 1;
nodes = (
(959,510,l),
(308,510,l),
(310,348,l),
(961,348,l)
);
},
{
closed = 1;
nodes = (
(199,0,ls),
(216,0,o),
(227,8,o),
(233,24,cs),
(686,1297,l),
(623,1297,l),
(1069,24,ls),
(1075,8,o),
(1087,0,o),
(1104,0,cs),
(1234,0,ls),
(1256,0,o),
(1265,14,o),
(1258,34,cs),
(751,1456,ls),
(745,1472,o),
(734,1480,o),
(717,1480,cs),
(588,1480,ls),
(571,1480,o),
(560,1472,o),
(554,1456,cs),
(42,34,ls),
(35,14,o),
(44,0,o),
(66,0,cs)
);
}
);
width = 1300;
}
);
metricRight = "=|";
unicode = 65;
},
{
glyphname = B;
lastChange = "2025-12-04 14:41:32 +0000";
layers = (
{
anchors = (
{
name = bottom;
pos = (320,0);
},
{
name = center;
pos = (160,444);
},
{
name = top;
pos = (320,1480);
}
);
layerId = "1B8EDE0E-D46F-48F9-B9C6-2CD34FEA95FD";
shapes = (
{
closed = 1;
nodes = (
(358,0,l),
(328,152,l),
(257,152,l),
(257,709,l),
(357,709,l),
(357,839,l),
(257,839,l),
(257,1309,l),
(327,1309,l),
(327,1480,l),
(90,1480,ls),
(71,1480,o),
(60,1470,o),
(60,1450,cs),
(60,30,ls),
(60,11,o),
(71,0,o),
(90,0,cs)
);
},
{
closed = 1;
nodes = (
(589,1354,o),
(498,1480,o),
(327,1480,c),
(327,1308,l),
(389,1308,o),
(412,1258,o),
(412,1163,cs),
(412,1004,ls),
(412,899,o),
(389,839,o),
(327,839,c),
(327,727,l),
(498,727,o),
(589,813,o),
(589,1034,cs),
(589,1133,ls)
);
},
{
closed = 1;
nodes = (
(619,733,o),
(508,829,o),
(337,829,c),
(337,709,l),
(399,709,o),
(422,647,o),
(422,572,cs),
(422,267,ls),
(422,202,o),
(399,152,o),
(307,152,c),
(337,0,l),
(508,0,o),
(619,76,o),
(619,303,cs),
(619,512,ls)
);
}
);
width = 639;
},
{
anchors = (
{
name = bottom;
pos = (640,0);
},
{
name = center;
pos = (320,444);
},
{
name = top;
pos = (640,1480);
}
);
layerId = m003;
shapes = (
{
closed = 1;
nodes = (
(722,0,l),
(722,160,l),
(347,160,l),
(347,669,l),
(737,669,l),
(737,829,l),
(347,829,l),
(347,1319,l),
(717,1319,l),
(717,1480,l),
(180,1480,ls),
(161,1480,o),
(150,1470,o),
(150,1450,cs),
(150,30,ls),
(150,11,o),
(161,0,o),
(180,0,cs)
);
},
{
closed = 1;
nodes = (
(1028,704,o),
(1137,843,o),
(1137,1073,cs),
(1137,1300,o),
(1002,1480,o),
(717,1480,c),
(717,1319,l),
(895,1319,o),
(953,1178,o),
(953,1079,cs),
(953,977,o),
(889,829,o),
(717,829,c),
(717,704,l)
);
},
{
closed = 1;
nodes = (
(1039,0,o),
(1198,131,o),
(1198,411,cs),
(1198,697,o),
(949,823,o),
(711,823,c),
(711,669,l),
(953,669,o),
(1015,549,o),
(1015,412,cs),
(1015,277,o),
(943,160,o),
(722,160,c),
(722,0,l)
);
}
);
width = 1300;
}
);
metricLeft = "=H";
unicode = 66;
},
{
glyphname = C;
lastChange = "2025-12-04 14:42:14 +0000";
layers = (
{
anchors = (
{
name = bottom;
pos = (322,0);
},
{
name = top;
pos = (322,1480);
}
);
layerId = "1B8EDE0E-D46F-48F9-B9C6-2CD34FEA95FD";
shapes = (
{
closed = 1;
nodes = (
(437,455,ls),
(418,455,o),
(407,445,o),
(407,425,cs),
(407,263,ls),
(407,198,o),
(384,148,o),
(322,148,cs),
(260,148,o),
(237,198,o),
(237,263,cs),
(237,1217,ls),
(237,1282,o),
(260,1332,o),
(322,1332,cs),
(384,1332,o),
(407,1282,o),
(407,1217,cs),
(407,1047,ls),
(407,1028,o),
(418,1017,o),
(437,1017,cs),
(574,1017,ls),
(593,1017,o),
(604,1028,o),
(604,1047,cs),
(604,1157,ls),
(604,1378,o),
(493,1504,o),
(322,1504,cs),
(151,1504,o),
(40,1378,o),
(40,1157,cs),
(40,323,ls),
(40,102,o),
(151,-24,o),
(322,-24,cs),
(493,-24,o),
(604,102,o),
(604,323,cs),
(604,425,ls),
(604,445,o),
(593,455,o),
(574,455,cs)
);
}
);
width = 644;
},
{
anchors = (
{
name = bottom;
pos = (678,0);
},
{
name = top;
pos = (678,1480);
}
);
layerId = m003;
shapes = (
{
closed = 1;
nodes = (
(857,-24,o),
(1125,89,o),
(1180,410,cs),
(1185,439,o),
(1174,455,o),
(1154,455,cs),
(1014,455,ls),
(996,455,o),
(985,446,o),
(981,427,cs),
(942,217,o),
(796,148,o),
(656,148,cs),
(447,148,o),
(317,302,o),
(317,552,c),
(317,924,l),
(317,1176,o),
(446,1332,o),
(656,1332,cs),
(796,1332,o),
(939,1256,o),
(982,1045,cs),
(986,1026,o),
(997,1017,o),
(1015,1017,cs),
(1157,1017,ls),
(1177,1017,o),
(1188,1029,o),
(1185,1049,cs),
(1135,1380,o),
(860,1504,o),
(656,1504,cs),
(444,1504,o),
(120,1378,o),
(120,924,c),
(120,552,l),
(120,102,o),
(444,-24,o),
(656,-24,cs)
);
}
);
width = 1300;
}
);
metricLeft = O;
unicode = 67;
},
{
glyphname = D;
lastChange = "2025-12-04 14:54:39 +0000";
layers = (
{
anchors = (
{
name = bottom;
pos = (328,0);
},
{
name = center;
pos = (164,740);
},
{
name = top;
pos = (328,1480);
}
);
layerId = "1B8EDE0E-D46F-48F9-B9C6-2CD34FEA95FD";
shapes = (
{
closed = 1;
nodes = (
(304,1480,l),
(90,1480,ls),
(71,1480,o),
(60,1470,o),
(60,1450,cs),
(60,30,ls),
(60,11,o),
(71,0,o),
(90,0,cs),
(304,0,l),
(304,171,l),
(260,171,l),
(260,1308,l),
(304,1308,l)
);
},
{
closed = 1;
nodes = (
(304,1308,l),
(396,1308,o),
(419,1258,o),
(419,1193,cs),
(419,287,ls),
(419,222,o),
(396,172,o),
(304,172,c),
(304,0,l),
(505,0,o),
(616,126,o),
(616,347,cs),
(616,1133,l),
(616,1354,o),
(505,1480,o),
(304,1480,c)
);
}
);
width = 656;
},
{
anchors = (
{
name = bottom;
pos = (659,0);
},
{
name = center;
pos = (329,740);
},
{
name = top;
pos = (659,1480);
}
);
layerId = m003;
shapes = (
{
closed = 1;
nodes = (
(350,1301,l),
(594,1301,ls),
(784,1301,o),
(983,1229,o),
(983,875,cs),
(983,610,ls),
(983,252,o),
(789,178,o),
(594,178,cs),
(350,178,l)
);
},
{
closed = 1;
nodes = (
(610,0,ls),
(844,0,o),
(1180,109,o),
(1180,610,cs),
(1180,875,ls),
(1180,1371,o),
(842,1480,o),
(610,1480,cs),
(180,1480,ls),
(161,1480,o),
(150,1470,o),
(150,1450,cs),
(150,30,ls),
(150,11,o),
(161,0,o),
(180,0,cs)
);
}
);
width = 1300;
}
);
metricLeft = "=H";
metricRight = "=O";
unicode = 68;
},
{
glyphname = E;
lastChange = "2025-12-04 14:42:55 +0000";
layers = (
{
anchors = (
{
name = bottom;
pos = (262,0);
},
{
name = ogonek;
pos = (472,10);
},
{
name = top;
pos = (262,1480);
},
{
name = topleft;
pos = (20,1480);
}
);
layerId = "1B8EDE0E-D46F-48F9-B9C6-2CD34FEA95FD";
shapes = (
{
closed = 1;
nodes = (
(484,0,ls),
(503,0,o),
(514,11,o),
(514,30,cs),
(514,135,ls),
(514,155,o),
(503,165,o),
(484,165,cs),
(260,165,l),
(260,672,l),
(418,672,ls),
(437,672,o),
(448,682,o),
(448,702,cs),
(448,809,ls),
(448,829,o),
(437,839,o),
(418,839,cs),
(260,839,l),
(260,1315,l),
(484,1315,ls),
(503,1315,o),
(514,1326,o),
(514,1345,cs),
(514,1450,ls),
(514,1470,o),
(503,1480,o),
(484,1480,cs),
(90,1480,ls),
(71,1480,o),
(60,1470,o),
(60,1450,cs),
(60,30,ls),
(60,11,o),
(71,0,o),
(90,0,cs)
);
}
);
width = 524;
},
{
anchors = (
{
name = bottom;
pos = (599,0);
},
{
name = ogonek;
pos = (1077,10);
},
{
name = top;
pos = (599,1480);
},
{
name = topleft;
pos = (20,1480);
}
);
layerId = m003;
shapes = (
{
closed = 1;
nodes = (
(1144,0,ls),
(1163,0,o),
(1174,11,o),
(1174,30,cs),
(1174,140,ls),
(1174,160,o),
(1163,170,o),
(1144,170,cs),
(350,170,l),
(350,670,l),
(1018,670,ls),
(1037,670,o),
(1048,680,o),
(1048,700,cs),
(1048,814,ls),
(1048,834,o),
(1037,844,o),
(1018,844,cs),
(350,844,l),
(350,1310,l),
(1144,1310,ls),
(1163,1310,o),
(1174,1321,o),
(1174,1340,cs),
(1174,1450,ls),
(1174,1470,o),
(1163,1480,o),
(1144,1480,cs),
(180,1480,ls),
(161,1480,o),
(150,1470,o),
(150,1450,cs),
(150,30,ls),
(150,11,o),
(161,0,o),
(180,0,cs)
);
}
);
width = 1300;
}
);
metricLeft = "=H";
unicode = 69;
},
{
glyphname = F;
lastChange = "2025-12-04 14:43:40 +0000";
layers = (
{
anchors = (
{
name = bottom;
pos = (267,0);
},
{
name = top;
pos = (267,1480);
}
);
layerId = "1B8EDE0E-D46F-48F9-B9C6-2CD34FEA95FD";
shapes = (
{
closed = 1;
nodes = (
(230,0,ls),
(249,0,o),
(260,11,o),
(260,30,cs),
(260,562,l),
(448,562,ls),
(467,562,o),
(478,572,o),
(478,592,cs),
(478,699,ls),
(478,719,o),
(467,729,o),
(448,729,cs),
(260,729,l),
(260,1315,l),
(484,1315,ls),
(503,1315,o),
(514,1326,o),
(514,1345,cs),
(514,1450,ls),
(514,1470,o),
(503,1480,o),
(484,1480,cs),
(90,1480,ls),
(71,1480,o),
(60,1470,o),
(60,1450,cs),
(60,30,ls),
(60,11,o),
(71,0,o),
(90,0,cs)
);
}
);
width = 534;
},
{
anchors = (
{
name = bottom;
pos = (564,0);
},
{
name = top;
pos = (564,1480);
}
);
layerId = m003;
shapes = (
{
closed = 1;
nodes = (
(320,0,ls),
(339,0,o),
(350,10,o),
(350,30,cs),
(350,586,l),
(1065,586,ls),
(1084,586,o),
(1095,596,o),
(1095,616,cs),
(1095,728,ls),
(1095,748,o),
(1084,758,o),
(1065,758,cs),
(350,758,l),
(350,1313,l),
(1156,1313,ls),
(1175,1313,o),
(1186,1324,o),
(1186,1343,cs),
(1186,1450,ls),
(1186,1470,o),
(1175,1480,o),
(1156,1480,cs),
(180,1480,ls),
(161,1480,o),
(150,1470,o),
(150,1450,cs),
(150,30,ls),
(150,11,o),
(161,0,o),
(180,0,cs)
);
}
);
width = 1300;
}
);
metricLeft = "=H";
unicode = 70;
},
{
glyphname = G;
lastChange = "2025-12-04 14:44:42 +0000";
layers = (
{
anchors = (
{
name = bottom;
pos = (322,0);
},
{
name = top;
pos = (322,1480);
}
);
background = {
shapes = (
{
closed = 1;
nodes = (
(736,385,l),
(736,198,o),
(642,95,o),
(474,95,c),
(307,95,o),
(215,198,o),
(215,385,c),
(215,636,l),
(215,826,o),
(307,929,o),
(474,929,cs),
(643,929,o),
(736,826,o),
(736,636,c)
);
},
{
closed = 1;
nodes = (
(79,385,ls),
(79,139,o),
(233,-24,o),
(474,-24,cs),
(717,-24,o),
(872,137,o),
(872,385,cs),
(872,636,ls),
(872,886,o),
(718,1048,o),
(474,1048,cs),
(232,1048,o),
(79,885,o),
(79,636,cs)
);
}
);
};
layerId = "1B8EDE0E-D46F-48F9-B9C6-2CD34FEA95FD";
shapes = (
{
closed = 1;
nodes = (
(572,0,ls),
(591,0,o),
(602,10,o),
(602,30,cs),
(602,717,ls),
(602,737,o),
(591,747,o),
(572,747,cs),
(342,747,ls),
(323,747,o),
(312,736,o),
(312,717,cs),
(312,610,ls),
(312,591,o),
(323,580,o),
(342,580,cs),
(407,580,l),
(407,131,l),
(423,131,l),
(445,27,ls),
(449,10,o),
(460,0,o),
(478,0,cs)
);
},
{
closed = 1;
nodes = (
(574,1017,ls),
(593,1017,o),
(604,1028,o),
(604,1047,cs),
(604,1157,l),
(604,1378,o),
(493,1504,o),
(322,1504,cs),
(151,1504,o),
(40,1378,o),
(40,1157,cs),
(40,323,ls),
(40,102,o),
(121,-24,o),
(252,-24,cs),
(395,-24,o),
(444,102,o),
(444,323,c),
(407,263,l),
(407,198,o),
(384,148,o),
(322,148,cs),
(260,148,o),
(237,198,o),
(237,263,cs),
(237,1217,ls),
(237,1282,o),
(260,1332,o),
(322,1332,cs),
(384,1332,o),
(407,1282,o),
(407,1217,cs),
(407,1047,ls),
(407,1028,o),
(418,1017,o),
(437,1017,cs)
);
}
);
width = 644;
},
{
anchors = (
{
name = bottom;
pos = (694,0);
},
{
name = top;
pos = (694,1480);
}
);
background = {
shapes = (
{
closed = 1;
nodes = (
(736,385,l),
(736,198,o),
(642,95,o),
(474,95,c),
(307,95,o),
(215,198,o),
(215,385,c),
(215,636,l),
(215,826,o),
(307,929,o),
(474,929,cs),
(643,929,o),
(736,826,o),
(736,636,c)
);
},
{
closed = 1;
nodes = (
(79,385,ls),
(79,139,o),
(233,-24,o),
(474,-24,cs),
(717,-24,o),
(872,137,o),
(872,385,cs),
(872,636,ls),
(872,886,o),
(718,1048,o),
(474,1048,cs),
(232,1048,o),
(79,885,o),
(79,636,cs)
);
}
);
};
layerId = m003;
shapes = (
{
closed = 1;
nodes = (
(1155,0,ls),
(1174,0,o),
(1185,10,o),
(1185,30,cs),
(1185,717,ls),
(1185,737,o),
(1174,747,o),
(1155,747,cs),
(745,747,ls),
(726,747,o),
(715,736,o),
(715,717,cs),
(715,610,ls),
(715,591,o),
(726,580,o),
(745,580,cs),
(990,580,l),
(990,131,l),
(1006,131,l),
(1028,27,ls),
(1032,10,o),
(1043,0,o),
(1061,0,cs)
);
},
{
closed = 1;
nodes = (
(844,-23,o),
(1088,64,o),
(1057,467,c),
(990,467,l),
(990,282,o),
(858,149,o),
(662,149,cs),
(450,149,o),
(317,298,o),
(317,570,cs),
(317,898,ls),
(317,1182,o),
(450,1332,o),
(662,1332,cs),
(820,1332,o),
(986,1268,o),
(1017,1041,cs),
(1019,1023,o),
(1031,1013,o),
(1049,1013,cs),
(1169,1013,ls),
(1189,1013,o),
(1200,1025,o),
(1197,1045,cs),
(1156,1368,o),
(910,1504,o),
(662,1504,cs),
(341,1504,o),
(120,1268,o),
(120,898,cs),
(120,570,ls),
(120,213,o),
(343,-23,o),
(662,-23,cs)
);
}
);
width = 1300;
}
);
metricLeft = "=O";
unicode = 71;
},
{
glyphname = H;
lastChange = "2025-12-04 14:38:56 +0000";
layers = (
{
anchors = (
{
name = bottom;
pos = (346,0);
},
{
name = center;
pos = (346,1184);
},
{
name = top;
pos = (346,1480);
},
{
name = topleft;
pos = (20,1480);
}
);
layerId = "1B8EDE0E-D46F-48F9-B9C6-2CD34FEA95FD";
shapes = (
{
closed = 1;
nodes = (
(60,30,ls),
(60,11,o),
(71,0,o),
(90,0,cs),
(233,0,ls),
(252,0,o),
(263,10,o),
(263,30,cs),
(263,666,l),
(428,666,l),
(428,30,ls),
(428,11,o),
(439,0,o),
(458,0,cs),
(601,0,ls),
(620,0,o),
(631,10,o),
(631,30,cs),
(631,1450,ls),
(631,1470,o),
(620,1480,o),
(601,1480,cs),
(458,1480,ls),
(439,1480,o),
(428,1470,o),
(428,1450,cs),
(428,840,l),
(263,840,l),
(263,1450,ls),
(263,1470,o),
(252,1480,o),
(233,1480,cs),
(90,1480,ls),
(71,1480,o),
(60,1470,o),
(60,1450,cs)
);
}
);
width = 691;
},
{
anchors = (
{
name = bottom;
pos = (691,0);
},
{
name = center;
pos = (691,1184);
},
{
name = top;
pos = (691,1480);
},
{
name = topleft;
pos = (20,1480);
}
);
layerId = m003;
shapes = (
{
closed = 1;
nodes = (
(150,30,ls),
(150,11,o),
(161,0,o),
(180,0,cs),
(323,0,ls),
(342,0,o),
(353,10,o),
(353,30,cs),
(353,666,l),
(947,666,l),
(947,30,ls),
(947,11,o),
(958,0,o),
(977,0,cs),
(1120,0,ls),
(1139,0,o),
(1150,10,o),
(1150,30,cs),
(1150,1450,ls),
(1150,1470,o),
(1139,1480,o),
(1120,1480,cs),
(977,1480,ls),
(958,1480,o),
(947,1470,o),
(947,1450,cs),
(947,840,l),
(353,840,l),
(353,1450,ls),
(353,1470,o),
(342,1480,o),
(323,1480,cs),
(180,1480,ls),
(161,1480,o),
(150,1470,o),
(150,1450,cs)
);
}
);
width = 1300;
}
);
metricRight = "=|";
unicode = 72;
},
{
glyphname = I;
lastChange = "2025-12-04 14:57:49 +0000";
layers = (
{
anchors = (
{
name = bottom;
pos = (162,0);
},
{
name = ogonek;
pos = (291,10);
},
{
name = top;
pos = (162,1480);
},
{
name = topleft;
pos = (20,1480);
}
);
layerId = "1B8EDE0E-D46F-48F9-B9C6-2CD34FEA95FD";
shapes = (
{
closed = 1;
nodes = (
(90,1480,ls),
(71,1480,o),
(60,1470,o),
(60,1450,cs),
(60,30,ls),
(60,11,o),
(71,0,o),
(90,0,cs),
(233,0,ls),
(252,0,o),
(263,10,o),
(263,30,cs),
(263,1450,ls),
(263,1470,o),
(252,1480,o),
(233,1480,cs)
);
}
);
width = 323;
},
{
anchors = (
{
name = bottom;
pos = (252,0);
},
{
name = ogonek;
pos = (453,10);
},
{
name = top;
pos = (252,1480);
},
{
name = topleft;
pos = (20,1480);
}
);
layerId = m003;
shapes = (
{
closed = 1;
nodes = (
(579,1480,ls),
(560,1480,o),
(549,1470,o),
(549,1450,cs),
(549,30,ls),
(549,11,o),
(560,0,o),
(579,0,cs),
(722,0,ls),
(741,0,o),
(752,10,o),
(752,30,cs),
(752,1450,ls),
(752,1470,o),
(741,1480,o),
(722,1480,cs)
);
},
{
closed = 1;
nodes = (
(1133,1308,ls),
(1152,1308,o),
(1163,1318,o),
(1163,1338,cs),
(1163,1450,ls),
(1163,1470,o),
(1152,1480,o),
(1133,1480,cs),
(168,1480,ls),
(149,1480,o),
(138,1470,o),
(138,1450,cs),
(138,1338,ls),
(138,1319,o),
(149,1308,o),
(168,1308,cs)
);
},
{
closed = 1;
nodes = (
(1133,-1,ls),
(1152,-1,o),
(1163,9,o),
(1163,29,cs),
(1163,141,ls),
(1163,161,o),
(1152,171,o),
(1133,171,cs),
(168,171,ls),
(149,171,o),
(138,161,o),
(138,141,cs),
(138,29,ls),
(138,10,o),
(149,-1,o),
(168,-1,cs)
);
}
);
width = 1300;
}
);
unicode = 73;
},
{
glyphname = J;
lastChange = "2025-12-04 14:49:33 +0000";
layers = (
{
anchors = (
{
name = bottom;
pos = (312,0);
},
{
name = top;
pos = (312,1480);
}
);
layerId = "1B8EDE0E-D46F-48F9-B9C6-2CD34FEA95FD";
shapes = (
{
closed = 1;
nodes = (
(60,445,ls),
(41,445,o),
(30,434,o),
(30,415,cs),
(30,323,ls),
(30,102,o),
(141,-24,o),
(302,-24,cs),
(473,-24,o),
(584,102,o),
(584,323,cs),
(584,1450,ls),
(584,1470,o),
(573,1480,o),
(554,1480,cs),
(417,1480,ls),
(398,1480,o),
(387,1470,o),
(387,1450,cs),
(387,263,ls),
(387,198,o),
(364,148,o),
(302,148,cs),
(240,148,o),
(217,198,o),
(217,263,cs),
(217,415,ls),
(217,435,o),
(206,445,o),
(187,445,cs)
);
}
);
width = 624;
},
{
anchors = (
{
name = bottom;
pos = (650,0);
},
{
name = top;
pos = (650,1480);
}
);
layerId = m003;
shapes = (
{
closed = 1;
nodes = (
(931,-24,o),
(1109,161,o),
(1109,495,cs),
(1109,1450,ls),
(1109,1470,o),
(1098,1480,o),
(1079,1480,cs),
(936,1480,ls),
(917,1480,o),
(906,1469,o),
(906,1450,cs),
(906,495,ls),
(906,261,o),
(813,151,o),
(623,151,cs),
(433,151,o),
(339,259,o),
(339,494,c),
(339,494,ls),
(339,508,o),
(328,516,o),
(309,516,cs),
(166,516,ls),
(147,516,o),
(136,509,o),
(136,495,cs),
(136,495,l),
(136,161,o),
(315,-24,o),
(623,-24,cs)
);
}
);
width = 1300;
}
);
unicode = 74;
},
{
glyphname = K;
lastChange = "2025-12-04 14:49:45 +0000";
layers = (
{
anchors = (
{
name = bottom;
pos = (555,0);
},
{
name = top;
pos = (555,1480);
}
);
layerId = "1B8EDE0E-D46F-48F9-B9C6-2CD34FEA95FD";
shapes = (
{
closed = 1;
nodes = (
(233,0,ls),
(252,0,o),
(263,10,o),
(263,30,cs),
(253,895,l),
(263,1450,ls),
(263,1470,o),
(252,1480,o),
(233,1480,cs),
(90,1480,ls),
(71,1480,o),
(60,1470,o),
(60,1450,cs),
(60,30,ls),
(60,11,o),
(71,0,o),
(90,0,cs)
);
},
{
closed = 1;
nodes = (
(596,1443,ls),
(605,1466,o),
(605,1480,o),
(579,1480,cs),
(462,1480,ls),
(447,1480,o),
(431,1478,o),
(426,1463,cs),
(194,768,l),
(177,361,l)
);
},
{
closed = 1;
nodes = (
(617,0,ls),
(640,0,o),
(644,14,o),
(638,36,cs),
(388,991,l),
(254,839,l),
(454,21,ls),
(458,4,o),
(474,0,o),
(490,0,cs)
);
}
);
width = 660;
},
{
anchors = (
{
name = bottom;
pos = (645,0);
},
{
name = top;
pos = (645,1480);
}
);
layerId = m003;
shapes = (
{
closed = 1;
nodes = (
(333,0,ls),
(352,0,o),
(363,10,o),
(363,30,cs),
(353,1450,ls),
(353,1470,o),
(342,1480,o),
(323,1480,cs),
(180,1480,ls),
(161,1480,o),
(150,1470,o),
(150,1450,cs),
(150,30,ls),
(150,11,o),
(161,0,o),
(180,0,cs)
);
},
{
closed = 1;
nodes = (
(1162,1443,ls),
(1178,1462,o),
(1171,1480,o),
(1145,1480,cs),
(988,1480,ls),
(973,1480,o),
(962,1475,o),
(952,1463,cs),
(294,708,l),
(287,421,l)
);
},
{
closed = 1;
nodes = (
(1223,0,ls),
(1246,0,o),
(1255,16,o),
(1244,36,cs),
(668,1041,l),
(524,889,l),
(1030,21,ls),
(1039,6,o),
(1050,0,o),
(1066,0,cs)
);
}
);
width = 1300;
}
);
metricLeft = "=H";
unicode = 75;
},
{
glyphname = L;
lastChange = "2025-12-04 14:49:57 +0000";
layers = (
{
anchors = (
{
name = bottom;
pos = (270,0);
},
{
name = center;
pos = (270,740);
},
{
name = top;
pos = (270,1480);
},
{
name = topright;
pos = (520,1480);
}
);
layerId = "1B8EDE0E-D46F-48F9-B9C6-2CD34FEA95FD";
shapes = (
{
closed = 1;
nodes = (
(480,0,ls),
(499,0,o),
(510,10,o),
(510,30,cs),
(510,144,ls),
(510,164,o),
(499,174,o),
(480,174,cs),
(263,174,l),
(263,1450,ls),
(263,1470,o),
(252,1480,o),
(233,1480,cs),
(90,1480,ls),
(71,1480,o),
(60,1470,o),
(60,1450,cs),
(60,30,ls),
(60,11,o),
(71,0,o),
(90,0,cs)
);
}
);
width = 540;
},
{
anchors = (
{
name = bottom;
pos = (563,0);
},
{
name = center;
pos = (563,740);
},
{
name = top;
pos = (563,1480);
},
{
name = topright;
pos = (1106,1480);
}
);
layerId = m003;
shapes = (
{
closed = 1;
nodes = (
(1100,0,ls),
(1119,0,o),
(1130,10,o),
(1130,30,cs),
(1130,144,ls),
(1130,164,o),
(1119,174,o),
(1100,174,cs),
(353,174,l),
(353,1450,ls),
(353,1470,o),
(342,1480,o),
(323,1480,cs),
(180,1480,ls),
(161,1480,o),
(150,1470,o),
(150,1450,cs),
(150,30,ls),
(150,11,o),
(161,0,o),
(180,0,cs)
);
}
);
width = 1300;
}
);
metricLeft = "=H";
unicode = 76;
},
{
glyphname = M;
lastChange = "2025-12-04 14:51:46 +0000";
layers = (
{
anchors = (
{
name = bottom;
pos = (417,0);
},
{
name = top;
pos = (417,1480);
}
);
layerId = "1B8EDE0E-D46F-48F9-B9C6-2CD34FEA95FD";
shapes = (
{
closed = 1;
nodes = (
(213,0,ls),
(232,0,o),
(243,11,o),
(243,30,cs),
(233,1198,l),
(190,1150,l),
(405,354,ls),
(409,338,o),
(422,329,o),
(439,329,cs),
(481,329,ls),
(498,329,o),
(511,338,o),
(515,354,cs),
(723,1150,l),
(680,1198,l),
(670,30,ls),
(670,11,o),
(681,0,o),
(700,0,cs),
(823,0,ls),
(842,0,o),
(853,10,o),
(853,30,cs),
(853,1450,ls),
(853,1470,o),
(842,1480,o),
(823,1480,cs),
(695,1480,ls),
(678,1480,o),
(666,1472,o),
(662,1455,cs),
(427,527,l),
(496,527,l),
(254,1455,ls),
(250,1472,o),
(237,1480,o),
(220,1480,cs),
(90,1480,ls),
(71,1480,o),
(60,1470,o),
(60,1450,cs),
(60,30,ls),
(60,11,o),
(71,0,o),
(90,0,cs)
);
}
);
width = 913;
},
{
anchors = (
{
name = bottom;
pos = (822,0);
},
{
name = top;
pos = (822,1480);
}
);
layerId = m003;
shapes = (
{
closed = 1;
nodes = (
(323,0,ls),
(342,0,o),
(353,11,o),
(353,30,cs),
(353,1258,l),
(310,1160,l),
(563,671,ls),
(571,656,o),
(579,649,o),
(595,649,cs),
(701,649,ls),
(717,649,o),
(727,655,o),
(735,671,cs),
(989,1160,l),
(946,1258,l),
(946,30,ls),
(946,11,o),
(957,0,o),
(976,0,cs),
(1119,0,ls),
(1138,0,o),
(1149,10,o),
(1149,30,cs),
(1149,1450,ls),
(1149,1470,o),
(1138,1480,o),
(1119,1480,cs),
(969,1480,ls),
(953,1480,o),
(945,1473,o),
(937,1458,cs),
(615,827,l),
(684,827,l),
(367,1459,ls),
(359,1474,o),
(348,1480,o),
(332,1480,cs),
(180,1480,ls),
(161,1480,o),
(150,1470,o),
(150,1450,cs),
(150,30,ls),
(150,11,o),
(161,0,o),
(180,0,cs)
);
}
);
width = 1305;
}
);
metricLeft = H;
metricRight = H;
unicode = 77;
},
{
glyphname = N;
lastChange = "2025-12-04 14:52:05 +0000";
layers = (
{
anchors = (
{
name = bottom;
pos = (377,0);
},
{
name = top;
pos = (377,1480);
}
);
layerId = "1B8EDE0E-D46F-48F9-B9C6-2CD34FEA95FD";
shapes = (
{
closed = 1;
nodes = (
(60,30,ls),
(60,11,o),
(71,0,o),
(90,0,cs),
(233,0,ls),
(252,0,o),
(262,11,o),
(262,30,cs),
(243,1053,l),
(213,1053,l),
(492,26,ls),
(497,8,o),
(508,0,o),
(525,0,cs),
(663,0,ls),
(682,0,o),
(693,10,o),
(693,30,cs),
(693,1450,ls),
(693,1470,o),
(682,1480,o),
(663,1480,cs),
(520,1480,ls),
(501,1480,o),
(491,1469,o),
(491,1450,cs),
(510,451,l),
(540,451,l),
(266,1454,ls),
(261,1472,o),
(250,1480,o),
(233,1480,cs),
(90,1480,ls),
(71,1480,o),
(60,1470,o),
(60,1450,cs)
);
}
);
width = 753;
},
{
anchors = (
{
name = bottom;
pos = (692,0);
},
{
name = top;
pos = (692,1480);
}
);
layerId = m003;
shapes = (
{
closed = 1;
nodes = (
(150,30,ls),
(150,11,o),
(161,0,o),
(180,0,cs),
(323,0,ls),
(342,0,o),
(353,11,o),
(353,30,cs),
(353,1306,l),
(258,1270,l),
(944,20,ls),
(952,6,o),
(964,0,o),
(980,0,cs),
(1120,0,ls),
(1139,0,o),
(1150,10,o),
(1150,30,cs),
(1150,1450,ls),
(1150,1470,o),
(1139,1480,o),
(1120,1480,cs),
(977,1480,ls),
(958,1480,o),
(947,1470,o),
(947,1450,cs),
(947,167,l),
(1047,201,l),
(361,1460,ls),
(353,1474,o),
(341,1480,o),
(325,1480,cs),
(180,1480,ls),
(161,1480,o),
(150,1470,o),
(150,1450,cs)
);
}
);
width = 1300;
}
);
metricLeft = H;
metricRight = "=|";
unicode = 78;
},
{
glyphname = O;
lastChange = "2025-12-04 14:53:45 +0000";
layers = (
{
anchors = (
{
name = bottom;
pos = (322,0);
},
{
name = center;
pos = (322,740);
},
{
name = ogonek;
pos = (580,10);
},
{
name = top;
pos = (322,1480);
},
{
name = topleft;
pos = (20,1480);
},
{
name = topright;
pos = (624,1480);
}
);
background = {
shapes = (
{
closed = 1;
nodes = (
(493,-24,o),
(604,142,o),
(604,343,cs),
(604,1127,ls),
(604,1378,o),
(493,1504,o),
(322,1504,cs),
(151,1504,o),
(40,1378,o),
(40,1127,cs),
(40,343,ls),
(40,142,o),
(151,-24,o),
(322,-24,cs)
);
},
{
closed = 1;
nodes = (
(260,148,o),
(237,198,o),
(237,263,cs),
(237,1217,ls),
(237,1282,o),
(260,1332,o),
(322,1332,cs),
(384,1332,o),
(407,1282,o),
(407,1217,cs),
(407,263,ls),
(407,198,o),
(384,148,o),
(322,148,cs)
);
}
);
};
layerId = "1B8EDE0E-D46F-48F9-B9C6-2CD34FEA95FD";
shapes = (
{
closed = 1;
nodes = (
(151,1504,o),
(40,1378,o),
(40,1157,cs),
(40,323,ls),
(40,102,o),
(151,-24,o),
(322,-24,cs),
(493,-24,o),
(604,102,o),
(604,323,cs),
(604,1157,l),
(604,1378,o),
(493,1504,o),
(322,1504,cs)
);
},
{
closed = 1;
nodes = (
(384,1332,o),
(407,1282,o),
(407,1217,cs),
(407,263,ls),
(407,198,o),
(384,148,o),
(322,148,cs),
(260,148,o),
(237,198,o),
(237,263,cs),
(237,1217,ls),
(237,1282,o),
(260,1332,o),
(322,1332,cs)
);
}
);
width = 644;
},
{
anchors = (
{
name = bottom;
pos = (695,0);
},
{
name = center;
pos = (695,740);
},
{
name = ogonek;
pos = (1250,10);
},
{
name = top;
pos = (695,1480);
},
{
name = topleft;
pos = (20,1480);
},
{
name = topright;
pos = (1369,1480);
}
);
layerId = m003;
shapes = (
{
closed = 1;
nodes = (
(983,539,l),
(983,277,o),
(827,148,o),
(647,148,cs),
(470,148,o),
(317,277,o),
(317,539,c),
(317,937,l),
(317,1202,o),
(470,1332,o),
(647,1332,cs),
(828,1332,o),
(983,1202,o),
(983,937,c)
);
},
{
closed = 1;
nodes = (
(120,539,ls),
(120,192,o),
(333,-24,o),
(647,-24,cs),
(966,-24,o),
(1180,189,o),
(1180,539,cs),
(1180,937,ls),
(1180,1289,o),
(967,1504,o),
(647,1504,cs),
(331,1504,o),
(120,1288,o),
(120,937,cs)
);
}
);
width = 1300;
}
);
metricRight = "=|";
unicode = 79;
},
{
glyphname = P;
lastChange = "2025-12-04 14:52:34 +0000";
layers = (
{
anchors = (
{
name = bottom;
pos = (310,0);
},
{
name = top;
pos = (310,1480);
}
);
layerId = "1B8EDE0E-D46F-48F9-B9C6-2CD34FEA95FD";
shapes = (
{
closed = 1;
nodes = (
(227,0,ls),
(246,0,o),
(257,11,o),
(257,30,cs),
(257,458,l),
(327,458,l),
(327,629,l),
(257,629,l),
(257,1309,l),
(327,1309,l),
(327,1480,l),
(90,1480,ls),
(71,1480,o),
(60,1470,o),
(60,1450,cs),
(60,30,ls),
(60,11,o),
(71,0,o),
(90,0,cs)
);
},
{
closed = 1;
nodes = (
(589,1354,o),
(498,1480,o),
(327,1480,c),
(327,1308,l),
(389,1308,o),
(412,1258,o),
(412,1163,cs),
(412,774,ls),
(412,689,o),
(389,629,o),
(327,629,c),
(327,458,l),
(498,458,o),
(589,562,o),
(589,783,cs),
(589,1133,ls)
);
}
);
width = 619;
},
{
anchors = (
{
name = bottom;
pos = (553,0);
},
{
name = top;
pos = (553,1480);
}
);
layerId = m003;
shapes = (
{
closed = 1;
nodes = (
(323,0,ls),
(342,0,o),
(353,10,o),
(353,30,cs),
(353,1480,l),
(180,1480,ls),
(161,1480,o),
(150,1470,o),
(150,1450,cs),
(150,30,ls),
(150,11,o),
(161,0,o),
(180,0,cs)
);
},
{
closed = 1;
nodes = (
(734,574,ls),
(986,574,o),
(1198,736,o),
(1198,1026,cs),
(1198,1316,o),
(985,1480,o),
(734,1480,cs),
(305,1480,l),
(305,1312,l),
(716,1312,ls),
(901,1312,o),
(1006,1207,o),
(1006,1026,cs),
(1006,846,o),
(901,742,o),
(716,742,cs),
(305,742,l),
(305,574,l)
);
}
);
width = 1300;
}
);
metricLeft = "=H";
unicode = 80;
},
{
glyphname = Q;
lastChange = "2025-12-04 14:52:50 +0000";
layers = (
{
anchors = (
{
name = bottom;
pos = (322,0);
},
{
name = top;
pos = (322,1480);
}
);
layerId = "1B8EDE0E-D46F-48F9-B9C6-2CD34FEA95FD";
shapes = (
{
closed = 1;
nodes = (
(151,1504,o),
(40,1378,o),
(40,1157,cs),
(40,323,ls),
(40,102,o),
(151,-24,o),
(322,-24,cs),
(493,-24,o),
(604,102,o),
(604,323,cs),
(604,1157,l),
(604,1378,o),
(493,1504,o),
(322,1504,cs)
);
},
{
closed = 1;
nodes = (
(384,1332,o),
(407,1282,o),
(407,1217,cs),
(407,263,ls),
(407,198,o),
(384,148,o),
(322,148,cs),
(260,148,o),
(237,198,o),
(237,263,cs),
(237,1217,ls),
(237,1282,o),
(260,1332,o),
(322,1332,cs)
);
},
{
closed = 1;
nodes = (
(230,148,l),
(230,-122,ls),
(230,-141,o),
(241,-152,o),
(260,-152,cs),
(384,-152,ls),
(403,-152,o),
(414,-142,o),
(414,-122,cs),
(414,148,l)
);
}
);
width = 644;
},
{
anchors = (
{
name = bottom;
pos = (695,0);
},
{
name = top;
pos = (695,1480);
}
);
layerId = m003;
shapes = (
{
closed = 1;
nodes = (
(803,94,l),
(949,-161,ls),
(959,-178,o),
(973,-182,o),
(990,-172,cs),
(1123,-93,ls),
(1139,-83,o),
(1144,-68,o),
(1134,-52,cs),
(986,200,l)
);
},
{
closed = 1;
nodes = (
(982,539,l),
(982,277,o),
(826,148,o),
(647,148,cs),
(470,148,o),
(317,277,o),
(317,539,c),
(317,937,l),
(317,1202,o),
(470,1332,o),
(647,1332,cs),
(827,1332,o),
(982,1202,o),
(982,937,c)
);
},
{
closed = 1;
nodes = (
(120,539,ls),
(120,192,o),
(333,-24,o),
(647,-24,cs),
(965,-24,o),
(1179,189,o),
(1179,539,cs),
(1179,937,ls),
(1179,1289,o),
(966,1504,o),
(647,1504,cs),
(331,1504,o),
(120,1288,o),
(120,937,cs)
);
}
);
width = 1300;
}
);
metricLeft = "=O";
metricRight = "=O";
unicode = 81;
},
{
glyphname = R;
lastChange = "2025-12-04 14:53:01 +0000";
layers = (
{
anchors = (
{
name = bottom;
pos = (325,0);
},
{
name = top;
pos = (325,1480);
}
);
layerId = "1B8EDE0E-D46F-48F9-B9C6-2CD34FEA95FD";
shapes = (
{
closed = 1;
nodes = (
(547,0,ls),
(568,0,o),
(578,13,o),
(574,33,cs),
(438,730,l),
(269,730,l),
(396,27,ls),
(399,9,o),
(411,0,o),
(429,0,cs)
);
},
{
closed = 1;
nodes = (
(227,0,ls),
(246,0,o),
(257,11,o),
(257,30,cs),
(257,608,l),
(327,608,l),
(327,779,l),
(257,779,l),
(257,1309,l),
(327,1309,l),
(327,1480,l),
(90,1480,ls),
(71,1480,o),
(60,1470,o),
(60,1450,cs),
(60,30,ls),
(60,11,o),
(71,0,o),
(90,0,cs)
);
},
{
closed = 1;
nodes = (
(589,1354,o),
(498,1480,o),
(327,1480,c),
(327,1308,l),
(389,1308,o),
(412,1258,o),
(412,1163,cs),
(412,924,ls),
(412,839,o),
(389,779,o),
(327,779,c),
(327,608,l),
(498,608,o),
(589,712,o),
(589,933,cs),
(589,1133,ls)
);
}
);
width = 650;
},
{
anchors = (
{
name = bottom;
pos = (610,0);
},
{
name = top;
pos = (610,1480);
}
);
layerId = m003;
shapes = (
{
closed = 1;
nodes = (
(352,1306,l),
(682,1306,ls),
(860,1306,o),
(957,1217,o),
(957,1046,cs),
(957,875,o),
(860,791,o),
(682,791,cs),
(352,791,l)
);
},
{
closed = 1;
nodes = (
(322,0,ls),
(341,0,o),
(352,10,o),
(352,30,cs),
(352,617,l),
(664,617,ls),
(975,617,o),
(1163,768,o),
(1163,1046,cs),
(1163,1325,o),
(975,1480,o),
(664,1480,cs),
(180,1480,ls),
(161,1480,o),
(150,1470,o),
(150,1450,cs),
(150,30,ls),
(150,11,o),
(161,0,o),
(180,0,cs)
);
},
{
closed = 1;
nodes = (
(1208,0,ls),
(1231,0,o),
(1241,16,o),
(1229,36,cs),
(857,692,l),
(638,692,l),
(1018,21,ls),
(1026,6,o),
(1038,0,o),
(1054,0,cs)
);
}
);
width = 1300;
}
);
metricLeft = "=H";
unicode = 82;
},
{
glyphname = S;
lastChange = "2025-12-04 14:57:15 +0000";
layers = (
{
anchors = (
{
name = bottom;
pos = (322,0);
},
{
name = top;
pos = (322,1480);
}
);
layerId = "1B8EDE0E-D46F-48F9-B9C6-2CD34FEA95FD";
shapes = (
{
closed = 1;
nodes = (
(334,895,o),
(237,1031,o),
(237,1217,cs),
(237,1284,o),
(260,1332,o),
(322,1332,cs),
(384,1332,o),
(407,1282,o),
(407,1217,cs),
(407,1047,ls),
(407,1028,o),
(418,1017,o),
(437,1017,cs),
(574,1017,ls),
(593,1017,o),
(604,1028,o),
(604,1047,cs),
(604,1157,ls),
(604,1378,o),
(493,1504,o),
(322,1504,cs),
(151,1504,o),
(40,1377,o),
(40,1157,cs),
(40,937,o),
(145,815,o),
(243,667,cs),
(328,538,o),
(407,431,o),
(407,263,cs),
(407,196,o),
(384,148,o),
(322,148,cs),
(260,148,o),
(237,198,o),
(237,263,cs),
(237,425,ls),
(237,445,o),
(226,455,o),
(207,455,cs),
(70,455,ls),
(51,455,o),
(40,445,o),
(40,425,cs),
(40,323,ls),
(40,102,o),
(151,-24,o),
(322,-24,cs),
(493,-24,o),
(604,102,o),
(604,323,cs),
(604,496,o),
(518,612,o),
(424,757,cs)
);
}
);
width = 644;
},
{
anchors = (
{
name = bottom;
pos = (605,0);
},
{
name = top;
pos = (605,1480);
}
);
layerId = m003;
shapes = (
{
closed = 1;
nodes = (
(991,-23,o),
(1198,155,o),
(1198,407,cs),
(1198,601,o),
(1092,735,o),
(815,802,cs),
(604,853,ls),
(407,902,o),
(351,978,o),
(351,1097,cs),
(351,1238,o),
(464,1339,o),
(648,1339,cs),
(841,1339,o),
(953,1226,o),
(967,1046,cs),
(969,1026,o),
(979,1016,o),
(998,1016,cs),
(1134,1016,ls),
(1153,1016,o),
(1165,1027,o),
(1164,1047,cs),
(1146,1334,o),
(967,1504,o),
(649,1504,cs),
(338,1504,o),
(156,1348,o),
(156,1097,cs),
(156,903,o),
(273,738,o),
(522,679,cs),
(730,630,ls),
(907,588,o),
(1004,503,o),
(1004,403,cs),
(1004,253,o),
(887,148,o),
(675,148,cs),
(432,148,o),
(319,276,o),
(285,429,cs),
(281,447,o),
(271,456,o),
(253,456,cs),
(120,456,ls),
(100,456,o),
(89,444,o),
(92,424,cs),
(145,120,o),
(354,-23,o),
(679,-23,cs)
);
}
);
width = 1300;
}
);
metricRight = "=|";
unicode = 83;
},
{
glyphname = T;
lastChange = "2025-12-04 14:58:24 +0000";
layers = (
{
anchors = (
{
name = bottom;
pos = (587,0);
},
{
name = center;
pos = (587,740);
},
{
name = top;
pos = (587,1480);
}
);
layerId = "1B8EDE0E-D46F-48F9-B9C6-2CD34FEA95FD";
shapes = (
{
closed = 1;
nodes = (
(60,1480,ls),
(41,1480,o),
(30,1470,o),
(30,1450,cs),
(30,1336,ls),
(30,1317,o),
(41,1306,o),
(60,1306,cs),
(236,1306,l),
(236,30,ls),
(236,11,o),
(247,0,o),
(266,0,cs),
(409,0,ls),
(428,0,o),
(439,11,o),
(439,30,cs),
(439,1306,l),
(614,1306,ls),
(633,1306,o),
(644,1316,o),
(644,1336,cs),
(644,1450,ls),
(644,1470,o),
(633,1480,o),
(614,1480,cs)
);
}
);
width = 674;
},
{
anchors = (
{
name = bottom;
pos = (622,0);
},
{
name = center;
pos = (622,740);
},
{
name = top;
pos = (622,1480);
}
);
layerId = m003;
shapes = (
{
closed = 1;
nodes = (
(579,1480,ls),
(560,1480,o),
(549,1470,o),
(549,1450,cs),
(549,30,ls),
(549,11,o),
(560,0,o),
(579,0,cs),
(722,0,ls),
(741,0,o),
(752,10,o),
(752,30,cs),
(752,1450,ls),
(752,1470,o),
(741,1480,o),
(722,1480,cs)
);
},
{
closed = 1;
nodes = (
(1182,1308,ls),
(1201,1308,o),
(1212,1318,o),
(1212,1338,cs),
(1212,1450,ls),
(1212,1470,o),
(1201,1480,o),
(1182,1480,cs),
(118,1480,ls),
(99,1480,o),
(88,1470,o),
(88,1450,cs),
(88,1338,ls),
(88,1319,o),
(99,1308,o),
(118,1308,cs)
);
}
);
width = 1300;
}
);
metricRight = "=|";
unicode = 84;
},
{
glyphname = U;
lastChange = "2025-12-04 14:58:55 +0000";
layers = (
{
anchors = (
{
name = bottom;
pos = (322,0);
},
{
name = ogonek;
pos = (580,10);
},
{
name = top;
pos = (322,1480);
},
{
name = topright;
pos = (624,1480);
}
);
layerId = "1B8EDE0E-D46F-48F9-B9C6-2CD34FEA95FD";
shapes = (
{
closed = 1;
nodes = (
(437,1480,ls),
(418,1480,o),
(407,1470,o),
(407,1450,cs),
(407,263,ls),
(407,198,o),
(384,148,o),
(322,148,cs),
(260,148,o),
(237,198,o),
(237,263,cs),
(237,1450,ls),
(237,1470,o),
(226,1480,o),
(207,1480,cs),
(70,1480,ls),
(51,1480,o),
(40,1470,o),
(40,1450,cs),
(40,323,ls),
(40,102,o),
(151,-24,o),
(322,-24,cs),
(493,-24,o),
(604,102,o),
(604,323,cs),
(604,1450,ls),
(604,1470,o),
(593,1480,o),
(574,1480,cs)
);
}
);
width = 644;
},
{
anchors = (
{
name = bottom;
pos = (680,0);
},
{
name = ogonek;
pos = (1223,10);
},
{
name = top;
pos = (680,1480);
},
{
name = topright;
pos = (1339,1480);
}
);
layerId = m003;
shapes = (
{
closed = 1;
nodes = (
(847,-24,o),
(1162,86,o),
(1162,547,c),
(1162,1450,ls),
(1162,1470,o),
(1151,1480,o),
(1132,1480,cs),
(990,1480,ls),
(971,1480,o),
(960,1469,o),
(960,1450,cs),
(960,563,l),
(960,226,o),
(776,148,o),
(650,150,cs),
(519,152,o),
(341,226,o),
(341,563,c),
(341,1450,ls),
(341,1470,o),
(330,1480,o),
(311,1480,cs),
(168,1480,ls),
(149,1480,o),
(138,1470,o),
(138,1450,cs),
(138,547,l),
(138,86,o),
(455,-24,o),
(650,-24,cs)
);
}
);
width = 1300;
}
);
metricRight = "=|";
unicode = 85;
},
{
glyphname = V;
lastChange = "2025-12-04 14:59:19 +0000";
layers = (
{
anchors = (
{
name = bottom;
pos = (366,0);
},
{
name = top;
pos = (366,1480);
}
);
layerId = "1B8EDE0E-D46F-48F9-B9C6-2CD34FEA95FD";
shapes = (
{
closed = 1;
nodes = (
(414,0,ls),
(432,0,o),
(443,9,o),
(446,27,cs),
(712,1447,ls),
(716,1468,o),
(705,1480,o),
(685,1480,cs),
(541,1480,ls),
(523,1480,o),
(511,1470,o),
(509,1452,cs),
(333,153,l),
(409,153,l),
(228,1452,ls),
(225,1471,o),
(214,1480,o),
(196,1480,cs),
(47,1480,ls),
(27,1480,o),
(16,1468,o),
(20,1447,cs),
(286,27,ls),
(289,9,o),
(300,0,o),
(318,0,cs)
);
}
);
width = 732;
},
{
anchors = (
{
name = bottom;
pos = (632,0);
},
{
name = top;
pos = (632,1480);
}
);
layerId = m003;
shapes = (
{
closed = 1;
nodes = (
(719,0,ls),
(736,0,o),
(747,8,o),
(753,24,cs),
(1258,1446,ls),
(1265,1466,o),
(1256,1480,o),
(1234,1480,cs),
(1091,1480,ls),
(1074,1480,o),
(1063,1471,o),
(1057,1455,cs),
(617,183,l),
(693,183,l),
(248,1456,ls),
(242,1472,o),
(231,1480,o),
(214,1480,cs),
(66,1480,ls),
(44,1480,o),
(35,1466,o),
(42,1446,cs),
(547,24,ls),
(553,8,o),
(564,0,o),
(581,0,cs)
);
}
);
width = 1300;
}
);
metricLeft = A;
metricRight = "=|";
unicode = 86;
},
{
glyphname = W;
lastChange = "2025-12-04 15:02:39 +0000";
layers = (
{
anchors = (
{
name = bottom;
pos = (471,0);
},
{
name = top;
pos = (471,1480);
}
);
layerId = "1B8EDE0E-D46F-48F9-B9C6-2CD34FEA95FD";
shapes = (
{
closed = 1;
nodes = (
(23,1448,ls),
(21,1468,o),
(31,1480,o),
(51,1480,cs),
(184,1480,ls),
(202,1480,o),
(214,1470,o),
(216,1452,cs),
(346,117,l),
(259,117,l),
(413,1182,ls),
(416,1201,o),
(427,1210,o),
(445,1210,cs),
(501,1210,ls),
(519,1210,o),
(530,1201,o),
(533,1182,cs),
(696,117,l),
(606,117,l),
(726,1451,ls),
(728,1469,o),
(739,1480,o),
(758,1480,cs),
(890,1480,ls),
(910,1480,o),
(920,1468,o),
(918,1448,cs),
(745,28,ls),
(743,10,o),
(732,0,o),
(714,0,cs),
(594,0,ls),
(576,0,o),
(565,9,o),
(562,28,cs),
(428,896,l),
(509,899,l),
(376,28,ls),
(373,9,o),
(362,0,o),
(344,0,cs),
(232,0,ls),
(214,0,o),
(202,10,o),
(200,28,cs)
);
}
);
width = 941;
},
{
anchors = (
{
name = bottom;
pos = (737,0);
},
{
name = top;
pos = (737,1480);
}
);
layerId = m003;
shapes = (
{
closed = 1;
nodes = (
(348,0,ls),
(365,0,o),
(374,7,o),
(381,25,cs),
(671,739,l),
(590,736,l),
(881,25,ls),
(888,7,o),
(897,0,o),
(914,0,cs),
(1058,0,ls),
(1075,0,o),
(1089,7,o),
(1091,25,cs),
(1260,1446,ls),
(1262,1466,o),
(1255,1480,o),
(1234,1480,cs),
(1093,1480,ls),
(1076,1480,o),
(1062,1472,o),
(1060,1454,cs),
(928,167,l),
(1038,167,l),
(738,875,ls),
(731,892,o),
(722,900,o),
(705,900,cs),
(565,900,ls),
(548,900,o),
(539,893,o),
(532,875,cs),
(241,167,l),
(348,167,l),
(241,1454,ls),
(239,1472,o),
(224,1480,o),
(207,1480,cs),
(66,1480,ls),
(45,1480,o),
(38,1466,o),
(40,1446,cs),
(182,25,ls),
(184,7,o),
(198,0,o),
(215,0,cs)
);
}
);
width = 1300;
}
);
metricLeft = "=V";
metricRight = "=|";
unicode = 87;
},
{
glyphname = X;
lastChange = "2025-12-04 15:06:48 +0000";
layers = (
{
anchors = (
{
name = bottom;
pos = (546,0);
},
{
name = top;
pos = (546,1480);
}
);
layerId = "1B8EDE0E-D46F-48F9-B9C6-2CD34FEA95FD";
shapes = (
{
closed = 1;
nodes = (
(460,0,ls),
(484,0,o),
(484,16,o),
(480,36,cs),
(184,1460,ls),
(181,1474,o),
(164,1480,o),
(148,1480,cs),
(32,1480,ls),
(8,1480,o),
(8,1464,o),
(12,1444,cs),
(308,20,ls),
(311,6,o),
(328,0,o),
(344,0,cs)
);
},
{
closed = 1;
nodes = (
(315,574,l),
(500,1444,ls),
(504,1464,o),
(504,1480,o),
(480,1480,cs),
(364,1480,ls),
(348,1480,o),
(330,1474,o),
(328,1460,cs),
(238,933,l)
);
},
{
closed = 1;
nodes = (
(188,913,l),
(2,36,ls),
(-2,16,o),
(-2,0,o),
(22,0,cs),
(138,0,ls),
(154,0,o),
(172,6,o),
(174,20,cs),
(265,554,l)
);
}
);
width = 482;
},
{
anchors = (
{
name = bottom;
pos = (608,0);
},
{
name = top;
pos = (608,1480);
}
);
layerId = m003;
shapes = (
{
closed = 1;
nodes = (
(1192,0,ls),
(1216,0,o),
(1225,16,o),
(1212,36,cs),
(285,1460,ls),
(276,1474,o),
(265,1480,o),
(249,1480,cs),
(100,1480,ls),
(76,1480,o),
(67,1464,o),
(80,1444,cs),
(1007,20,ls),
(1016,6,o),
(1027,0,o),
(1043,0,cs)
);
},
{
closed = 1;
nodes = (
(717,671,l),
(1220,1444,ls),
(1233,1464,o),
(1224,1480,o),
(1200,1480,cs),
(1051,1480,ls),
(1035,1480,o),
(1024,1474,o),
(1015,1460,cs),
(604,828,l)
);
},
{
closed = 1;
nodes = (
(596,828,l),
(80,36,ls),
(67,16,o),
(76,0,o),
(100,0,cs),
(249,0,ls),
(265,0,o),
(276,6,o),
(285,20,cs),
(709,671,l)
);
}
);
width = 1300;
}
);
metricRight = "=|";
unicode = 88;
},
{
glyphname = Y;
lastChange = "2025-12-04 15:05:09 +0000";
layers = (
{
anchors = (
{
name = bottom;
pos = (306,0);
},
{
name = top;
pos = (306,1480);
},
{
name = topleft;
pos = (-299,1480);
}
);
layerId = "1B8EDE0E-D46F-48F9-B9C6-2CD34FEA95FD";
shapes = (
{
closed = 1;
nodes = (
(210,590,l),
(210,30,ls),
(210,11,o),
(221,0,o),
(244,0,cs),
(371,0,ls),
(390,0,o),
(401,11,o),
(401,30,cs),
(401,590,l),
(586,1444,ls),
(590,1464,o),
(587,1480,o),
(564,1480,cs),
(443,1480,ls),
(427,1480,o),
(411,1473,o),
(408,1458,cs),
(273,695,l),
(339,695,l),
(205,1458,ls),
(202,1473,o),
(186,1480,o),
(170,1480,cs),
(39,1480,ls),
(16,1480,o),
(12,1464,o),
(17,1444,cs)
);
}
);
width = 602;
},
{
anchors = (
{
name = bottom;
pos = (650,0);
},
{
name = top;
pos = (650,1480);
},
{
name = topleft;
pos = (45,1480);
}
);
layerId = m003;
shapes = (
{
closed = 1;
nodes = (
(548,610,l),
(548,30,ls),
(548,11,o),
(559,0,o),
(578,0,cs),
(721,0,ls),
(740,0,o),
(751,11,o),
(751,30,cs),
(751,610,l),
(1209,1444,ls),
(1220,1464,o),
(1210,1480,o),
(1187,1480,cs),
(1066,1480,ls),
(1050,1480,o),
(1039,1473,o),
(1031,1458,cs),
(617,695,l),
(683,695,l),
(279,1458,ls),
(271,1473,o),
(260,1480,o),
(244,1480,cs),
(113,1480,ls),
(90,1480,o),
(80,1464,o),
(91,1444,cs)
);
}
);
width = 1300;
}
);
metricRight = "=|";
unicode = 89;
},
{
glyphname = Z;
lastChange = "2025-12-04 15:05:53 +0000";
layers = (
{
anchors = (
{
name = bottom;
pos = (292,0);
},
{
name = center;
pos = (292,740);
},
{
name = top;
pos = (292,1480);
}
);
layerId = "1B8EDE0E-D46F-48F9-B9C6-2CD34FEA95FD";
shapes = (
{
closed = 1;
nodes = (
(55,189,ls),
(52,176,o),
(50,166,o),
(50,153,cs),
(50,30,ls),
(50,11,o),
(61,0,o),
(80,0,cs),
(504,0,ls),
(523,0,o),
(534,10,o),
(534,30,cs),
(534,144,ls),
(534,164,o),
(523,174,o),
(504,174,cs),
(257,174,l),
(529,1293,ls),
(532,1307,o),
(534,1316,o),
(534,1330,cs),
(534,1450,ls),
(534,1470,o),
(523,1480,o),
(504,1480,cs),
(80,1480,ls),
(61,1480,o),
(50,1470,o),
(50,1450,cs),
(50,1336,ls),
(50,1317,o),
(61,1306,o),
(80,1306,cs),
(316,1306,l)
);
}
);
width = 584;
},
{
anchors = (
{
name = bottom;
pos = (589,0);
},
{
name = center;
pos = (589,740);
},
{
name = top;
pos = (589,1480);
}
);
layerId = m003;
shapes = (
{
closed = 1;
nodes = (
(134,158,ls),
(125,145,o),
(123,135,o),
(123,121,cs),
(123,30,ls),
(123,11,o),
(134,0,o),
(153,0,cs),
(1147,0,ls),
(1166,0,o),
(1177,10,o),
(1177,30,cs),
(1177,144,ls),
(1177,164,o),
(1166,174,o),
(1147,174,cs),
(360,174,l),
(1166,1324,ls),
(1175,1337,o),
(1177,1347,o),
(1177,1361,cs),
(1177,1450,ls),
(1177,1470,o),
(1166,1480,o),
(1147,1480,cs),
(153,1480,ls),
(134,1480,o),
(123,1470,o),
(123,1450,cs),
(123,1336,ls),
(123,1317,o),
(134,1306,o),
(153,1306,cs),
(939,1306,l)
);
}
);
width = 1300;
}
);
metricRight = "=|";
unicode = 90;
},
{
glyphname = R.001;
lastChange = "2025-12-03 15:59:57 +0000";
layers = (
{
anchors = (
{
name = bottom;
pos = (315,0);
},
{
name = top;
pos = (315,1480);
}
);
layerId = "1B8EDE0E-D46F-48F9-B9C6-2CD34FEA95FD";
shapes = (
{
closed = 1;
nodes = (
(554,0,ls),
(575,0,o),
(585,13,o),
(581,33,cs),
(445,730,l),
(269,730,l),
(396,27,ls),
(399,9,o),
(411,0,o),
(429,0,cs)
);
},
{
closed = 1;
nodes = (
(227,0,ls),
(246,0,o),
(257,11,o),
(257,30,cs),
(257,608,l),
(327,608,l),
(327,779,l),
(257,779,l),
(257,1309,l),
(327,1309,l),
(327,1480,l),
(90,1480,ls),
(71,1480,o),
(60,1470,o),
(60,1450,cs),
(60,30,ls),
(60,11,o),
(71,0,o),
(90,0,cs)
);
},
{
closed = 1;
nodes = (
(589,1354,o),
(498,1480,o),
(327,1480,c),
(327,1308,l),
(389,1308,o),
(412,1258,o),
(412,1163,cs),
(412,924,ls),
(412,839,o),
(389,779,o),
(327,779,c),
(327,608,l),
(498,608,o),
(589,712,o),
(589,933,cs),
(589,1133,ls)
);
}
);
width = 629;
},
{
anchors = (
{
name = bottom;
pos = (610,0);
},
{
name = top;
pos = (610,1480);
}
);
layerId = m003;
shapes = (
{
closed = 1;
nodes = (
(352,1306,l),
(632,1306,ls),
(810,1306,o),
(907,1217,o),
(907,1046,cs),
(907,875,o),
(810,791,o),
(632,791,cs),
(352,791,l)
);
},
{
closed = 1;
nodes = (
(322,0,ls),
(341,0,o),
(352,10,o),
(352,30,cs),
(352,617,l),
(614,617,ls),
(925,617,o),
(1113,768,o),
(1113,1046,cs),
(1113,1325,o),
(925,1480,o),
(614,1480,cs),
(180,1480,ls),
(161,1480,o),
(150,1470,o),
(150,1450,cs),
(150,30,ls),
(150,11,o),
(161,0,o),
(180,0,cs)
);
},
{
closed = 1;
nodes = (
(1158,0,ls),
(1181,0,o),
(1191,16,o),
(1179,36,cs),
(807,692,l),
(588,692,l),
(968,21,ls),
(976,6,o),
(988,0,o),
(1004,0,cs)
);
}
);
width = 1219;
}
);
metricLeft = "=H";
},
{
glyphname = a;
lastChange = "2025-12-04 15:17:21 +0000";
layers = (
{
layerId = "1B8EDE0E-D46F-48F9-B9C6-2CD34FEA95FD";
shapes = (
{
closed = 1;
nodes = (
(369,233,ls),
(369,175,o),
(348,130,o),
(292,130,cs),
(237,130,o),
(216,175,o),
(216,233,cs),
(216,467,l),
(216,593,l),
(216,827,ls),
(216,885,o),
(237,930,o),
(292,930,cs),
(348,930,o),
(369,885,o),
(369,827,cs),
(369,593,l),
(369,548,l),
(369,512,l),
(369,467,l)
);
},
{
closed = 1;
nodes = (
(40,287,ls),
(40,89,o),
(89,-24,o),
(232,-24,cs),
(311,-24,o),
(361,16,o),
(388,89,c),
(404,89,l),
(418,26,ls),
(422,8,o),
(433,0,o),
(451,0,cs),
(534,0,ls),
(553,0,o),
(564,11,o),
(564,30,cs),
(564,467,l),
(564,593,l),
(564,1030,ls),
(564,1049,o),
(553,1060,o),
(534,1060,cs),
(451,1060,ls),
(433,1060,o),
(422,1052,o),
(418,1034,cs),
(404,971,l),
(388,971,l),
(361,1044,o),
(311,1084,o),
(232,1084,cs),
(89,1084,o),
(40,971,o),
(40,773,cs),
(40,593,l),
(40,467,l)
);
}
);
width = 599;
},
{
anchors = (
{
name = bottom;
pos = (582,0);
},
{
name = ogonek;
pos = (1009,10);
},
{
name = top;
pos = (582,1060);
}
);
layerId = m003;
shapes = (
{
closed = 1;
nodes = (
(606,656,ls),
(290,656,o),
(195,445,o),
(195,325,cs),
(195,115,o),
(348,-24,o),
(606,-24,cs),
(762,-24,o),
(883,20,o),
(935,93,c),
(936,375,l),
(936,226,o),
(813,144,o),
(606,144,cs),
(447,144,o),
(386,200,o),
(386,329,cs),
(386,438,o),
(459,493,o),
(628,493,cs),
(962,493,l),
(962,656,l)
);
},
{
closed = 1;
nodes = (
(1101,0,ls),
(1120,0,o),
(1131,10,o),
(1131,30,cs),
(1133,715,ls),
(1134,941,o),
(952,1084,o),
(695,1084,cs),
(456,1084,o),
(293,965,o),
(259,787,cs),
(255,767,o),
(266,755,o),
(286,755,cs),
(421,755,ls),
(439,755,o),
(448,764,o),
(453,782,cs),
(477,860,o),
(559,910,o),
(695,910,cs),
(858,910,o),
(939,826,o),
(938,693,cs),
(935,123,l),
(935,93,l),
(959,93,l),
(975,26,ls),
(979,9,o),
(990,0,o),
(1008,0,cs)
);
}
);
width = 1300;
}
);
metricRight = "=n";
unicode = 97;
},
{
glyphname = b;
lastChange = "2025-12-04 15:18:09 +0000";
layers = (
{
anchors = (
{
name = bottom;
pos = (-12,0);
},
{
name = center;
pos = (270,1232);
},
{
name = top;
pos = (-12,1060);
}
);
layerId = "1B8EDE0E-D46F-48F9-B9C6-2CD34FEA95FD";
shapes = (
{
closed = 1;
nodes = (
(51,1540,o),
(40,1529,o),
(40,1510,cs),
(40,30,ls),
(40,11,o),
(51,0,o),
(70,0,cs),
(153,0,ls),
(171,0,o),
(182,8,o),
(186,26,cs),
(200,89,l),
(224,89,l),
(235,89,l),
(235,1510,ls),
(235,1529,o),
(224,1540,o),
(205,1540,cs),
(70,1540,ls)
);
},
{
closed = 1;
nodes = (
(189,638,l),
(189,422,l),
(189,287,ls),
(189,89,o),
(238,-24,o),
(372,-24,cs),
(505,-24,o),
(564,79,o),
(564,267,c),
(564,793,l),
(564,981,o),
(505,1084,o),
(372,1084,cs),
(315,1084,o),
(274,1064,o),
(245,1025,c),
(189,1025,l)
);
},
{
closed = 1;
nodes = (
(235,885,o),
(256,930,o),
(312,930,cs),
(367,930,o),
(388,885,o),
(388,827,c),
(388,233,l),
(388,175,o),
(367,130,o),
(312,130,cs),
(256,130,o),
(235,175,o),
(235,233,cs),
(235,422,l),
(235,638,l),
(235,827,ls)
);
}
);
width = 604;
},
{
anchors = (
{
name = bottom;
pos = (624,0);
},
{
name = center;
pos = (342,1232);
},
{
name = top;
pos = (624,1060);
}
);
layerId = m003;
shapes = (
{
closed = 1;
nodes = (
(302,0,ls),
(320,0,o),
(332,9,o),
(336,26,cs),
(352,91,l),
(375,91,l),
(385,91,l),
(385,1510,ls),
(385,1530,o),
(374,1540,o),
(355,1540,cs),
(220,1540,ls),
(201,1540,o),
(190,1529,o),
(190,1510,cs),
(190,30,ls),
(190,11,o),
(201,0,o),
(220,0,cs)
);
},
{
closed = 1;
nodes = (
(953,-24,o),
(1130,157,o),
(1130,448,cs),
(1130,606,ls),
(1130,903,o),
(947,1084,o),
(661,1084,cs),
(433,1084,o),
(291,923,o),
(308,667,c),
(385,627,l),
(385,815,o),
(494,910,o),
(661,910,cs),
(829,910,o),
(937,815,o),
(937,627,cs),
(937,453,ls),
(937,263,o),
(829,150,o),
(661,150,cs),
(498,150,o),
(385,263,o),
(385,453,c),
(284,419,l),
(308,123,o),
(394,-24,o),
(661,-24,cs)
);
}
);
width = 1300;
}
);
metricLeft = n;
metricRight = o;
unicode = 98;
},
{
glyphname = c;
lastChange = "2025-12-04 13:36:15 +0000";
layers = (
{
anchors = (
{
name = bottom;
pos = (554,0);
},
{
name = top;
pos = (554,1060);
}
);
layerId = "1B8EDE0E-D46F-48F9-B9C6-2CD34FEA95FD";
shapes = (
{
closed = 1;
nodes = (
(515,693,ls),
(534,693,o),
(545,704,o),
(545,723,cs),
(545,773,l),
(545,971,o),
(446,1084,o),
(293,1084,cs),
(139,1084,o),
(40,971,o),
(40,773,cs),
(40,287,ls),
(40,89,o),
(139,-24,o),
(293,-24,cs),
(446,-24,o),
(545,89,o),
(545,287,cs),
(545,337,ls),
(545,357,o),
(534,367,o),
(515,367,cs),
(399,367,ls),
(380,367,o),
(369,356,o),
(369,337,cs),
(369,233,ls),
(369,176,o),
(348,130,o),
(293,130,cs),
(237,130,o),
(216,176,o),
(216,233,cs),
(216,827,ls),
(216,885,o),
(237,930,o),
(293,930,cs),
(348,930,o),
(369,885,o),
(369,827,cs),
(369,723,ls),
(369,704,o),
(380,693,o),
(399,693,cs)
);
}
);
width = 585;
},
{
anchors = (
{
name = bottom;
pos = (554,0);
},
{
name = top;
pos = (554,1060);
}
);
layerId = m003;
shapes = (
{
closed = 1;
nodes = (
(812,-24,o),
(997,123,o),
(1008,340,cs),
(1009,357,o),
(998,367,o),
(979,367,cs),
(845,367,ls),
(826,367,o),
(816,357,o),
(814,338,cs),
(801,220,o),
(709,151,o),
(564,151,cs),
(397,151,o),
(305,244,o),
(305,419,cs),
(305,636,ls),
(305,812,o),
(397,909,o),
(564,909,cs),
(710,909,o),
(799,840,o),
(814,722,cs),
(816,703,o),
(826,693,o),
(845,693,cs),
(977,693,ls),
(996,693,o),
(1008,704,o),
(1007,723,cs),
(991,914,o),
(820,1084,o),
(564,1084,cs),
(293,1084,o),
(109,894,o),
(109,636,cs),
(109,419,ls),
(109,160,o),
(290,-24,o),
(564,-24,cs)
);
}
);
width = 1108;
}
);
metricLeft = o;
metricRight = "=|";
unicode = 99;
},
{
glyphname = d;
lastChange = "2025-12-04 15:23:59 +0000";
layers = (
{
anchors = (
{
name = bottom;
pos = (566,0);
},
{
name = center;
pos = (849,1232);
},
{
name = top;
pos = (566,1060);
},
{
name = topright;
pos = (1001,1540);
}
);
background = {
shapes = (
{
closed = 0;
nodes = (
(601,1179,l),
(448,1179,l)
);
}
);
};
layerId = "1B8EDE0E-D46F-48F9-B9C6-2CD34FEA95FD";
shapes = (
{
closed = 1;
nodes = (
(399,1540,ls),
(380,1540,o),
(369,1529,o),
(369,1510,cs),
(369,89,l),
(380,89,l),
(404,89,l),
(418,26,ls),
(422,8,o),
(433,0,o),
(451,0,cs),
(534,0,ls),
(553,0,o),
(564,11,o),
(564,30,cs),
(564,1510,ls),
(564,1529,o),
(553,1540,o),
(534,1540,cs)
);
},
{
closed = 1;
nodes = (
(359,1025,l),
(330,1064,o),
(289,1084,o),
(232,1084,cs),
(99,1084,o),
(40,981,o),
(40,793,c),
(40,267,l),
(40,79,o),
(99,-24,o),
(232,-24,cs),
(366,-24,o),
(415,89,o),
(415,287,cs),
(415,422,l),
(415,638,l),
(415,1025,l)
);
},
{
closed = 1;
nodes = (
(369,638,l),
(369,422,l),
(369,233,ls),
(369,175,o),
(348,130,o),
(292,130,cs),
(237,130,o),
(216,175,o),
(216,233,c),
(216,827,l),
(216,885,o),
(237,930,o),
(292,930,cs),
(348,930,o),
(369,885,o),
(369,827,cs)
);
}
);
width = 604;
},
{
background = {
shapes = (
{
closed = 0;
nodes = (
(581,1179,l),
(428,1179,l)
);
}
);
};
layerId = m003;
shapes = (
{
closed = 1;
nodes = (
(1099,0,o),
(1110,11,o),
(1110,30,cs),
(1110,1510,ls),
(1110,1529,o),
(1099,1540,o),
(1080,1540,cs),
(945,1540,ls),
(926,1540,o),
(915,1530,o),
(915,1510,cs),
(915,91,l),
(925,91,l),
(948,91,l),
(964,26,ls),
(968,9,o),
(980,0,o),
(998,0,cs),
(1080,0,ls)
);
},
{
closed = 1;
nodes = (
(906,-24,o),
(992,123,o),
(1016,419,c),
(915,453,l),
(915,263,o),
(802,150,o),
(639,150,cs),
(471,150,o),
(363,263,o),
(363,453,cs),
(363,627,ls),
(363,815,o),
(471,910,o),
(639,910,cs),
(806,910,o),
(915,815,o),
(915,627,c),
(992,667,l),
(1009,923,o),
(867,1084,o),
(639,1084,cs),
(353,1084,o),
(170,903,o),
(170,606,cs),
(170,448,ls),
(170,157,o),
(347,-24,o),
(639,-24,cs)
);
}
);
width = 1300;
}
);
metricLeft = "=|b";
metricRight = "=|b";
unicode = 100;
},
{
glyphname = dcaron;
lastChange = "2025-12-03 10:06:44 +0000";
layers = (
{
layerId = "1B8EDE0E-D46F-48F9-B9C6-2CD34FEA95FD";
shapes = (
{
ref = d;
},
{
closed = 1;
nodes = (
(1195,1164,ls),
(1213,1164,o),
(1225,1174,o),
(1227,1192,cs),
(1259,1510,ls),
(1261,1531,o),
(1250,1541,o),
(1230,1541,cs),
(1078,1541,ls),
(1058,1541,o),
(1047,1530,o),
(1049,1509,cs),
(1082,1192,ls),
(1084,1174,o),
(1096,1164,o),
(1114,1164,cs)
);
}
);
width = 1132;
},
{
layerId = m003;
shapes = (
{
ref = d;
},
{
closed = 1;
nodes = (
(1195,1164,ls),
(1213,1164,o),
(1225,1174,o),
(1227,1192,cs),
(1259,1510,ls),
(1261,1531,o),
(1250,1541,o),
(1230,1541,cs),
(1078,1541,ls),
(1058,1541,o),
(1047,1530,o),
(1049,1509,cs),
(1082,1192,ls),
(1084,1174,o),
(1096,1164,o),
(1114,1164,cs)
);
}
);
width = 1132;
}
);
unicode = 271;
},
{
glyphname = e;
lastChange = "2025-12-04 15:24:31 +0000";
layers = (
{
anchors = (
{
name = bottom;
pos = (571,0);
},
{
name = center;
pos = (571,530);
},
{
name = ogonek;
pos = (1027,10);
},
{
name = top;
pos = (571,1060);
},
{
name = topright;
pos = (1121,1060);
}
);
layerId = "1B8EDE0E-D46F-48F9-B9C6-2CD34FEA95FD";
shapes = (
{
closed = 1;
nodes = (
(40,89,o),
(139,-24,o),
(293,-24,cs),
(446,-24,o),
(525,89,o),
(525,287,cs),
(525,337,ls),
(525,357,o),
(514,367,o),
(495,367,cs),
(399,367,ls),
(380,367,o),
(369,356,o),
(369,337,cs),
(369,233,ls),
(369,176,o),
(342,130,o),
(293,130,cs),
(237,130,o),
(216,176,o),
(216,233,cs),
(216,478,l),
(495,478,ls),
(514,478,o),
(525,489,o),
(525,508,cs),
(525,556,l),
(525,632,l),
(525,773,ls),
(525,971,o),
(446,1084,o),
(293,1084,cs),
(139,1084,o),
(40,971,o),
(40,773,cs),
(40,287,ls)
);
},
{
closed = 1;
nodes = (
(216,827,ls),
(216,885,o),
(237,930,o),
(293,930,cs),
(342,930,o),
(369,885,o),
(369,827,cs),
(369,632,l),
(216,632,l)
);
}
);
width = 565;
},
{
anchors = (
{
name = bottom;
pos = (580,0);
},
{
name = ogonek;
pos = (1044,10);
},
{
name = top;
pos = (580,1060);
}
);
background = {
shapes = (
{
closed = 1;
nodes = (
(986,619,l),
(283,619,l),
(283,445,l),
(986,445,l)
);
},
{
closed = 1;
nodes = (
(494,151,o),
(363,262,o),
(363,435,cs),
(363,622,ls),
(363,795,o),
(494,909,o),
(652,909,cs),
(809,909,o),
(938,795,o),
(938,622,cs),
(938,435,ls),
(938,262,o),
(809,151,o),
(652,151,cs)
);
},
{
closed = 1;
nodes = (
(925,-24,o),
(1130,174,o),
(1130,435,cs),
(1130,622,ls),
(1130,883,o),
(925,1084,o),
(652,1084,cs),
(378,1084,o),
(170,883,o),
(170,622,cs),
(170,435,ls),
(170,170,o),
(378,-24,o),
(652,-24,cs)
);
}
);
};
layerId = m003;
shapes = (
{
closed = 1;
nodes = (
(984,619,l),
(283,619,l),
(283,445,l),
(984,445,l)
);
},
{
closed = 1;
nodes = (
(938,315,ls),
(922,315,o),
(910,309,o),
(902,294,cs),
(842,180,o),
(760,151,o),
(651,151,cs),
(494,151,o),
(363,262,o),
(363,435,cs),
(363,622,ls),
(363,795,o),
(494,909,o),
(651,909,cs),
(807,909,o),
(936,795,o),
(936,622,c),
(932,445,l),
(1125,446,l),
(1134,520,o),
(1128,547,o),
(1128,622,cs),
(1128,883,o),
(923,1084,o),
(651,1084,cs),
(378,1084,o),
(170,883,o),
(170,622,cs),
(170,435,ls),
(170,170,o),
(378,-24,o),
(651,-24,cs),
(866,-24,o),
(1028,70,o),
(1097,280,cs),
(1104,302,o),
(1097,315,o),
(1074,315,cs)
);
}
);
width = 1300;
}
);
metricLeft = o;
metricRight = "=o";
unicode = 101;
},
{
glyphname = f;
lastChange = "2025-12-04 15:23:33 +0000";
layers = (
{
anchors = (
{
name = bottom;
pos = (285,0);
},
{
name = top;
pos = (285,1540);
}
);
background = {
shapes = (
{
closed = 0;
nodes = (
(224,830,l),
(224,876,o),
(250,906,o),
(292,906,cs),
(367,906,l),
(367,1027,l),
(292,1027,ls),
(174,1027,o),
(89,967,o),
(89,812,c)
);
}
);
};
layerId = "1B8EDE0E-D46F-48F9-B9C6-2CD34FEA95FD";
shapes = (
{
closed = 1;
nodes = (
(416,885,ls),
(435,885,o),
(446,896,o),
(446,915,cs),
(446,1030,ls),
(446,1050,o),
(435,1060,o),
(416,1060,cs),
(35,1060,ls),
(16,1060,o),
(5,1049,o),
(5,1030,cs),
(5,915,ls),
(5,896,o),
(16,885,o),
(35,885,cs)
);
},
{
closed = 1;
nodes = (
(256,0,ls),
(275,0,o),
(286,10,o),
(286,30,cs),
(286,1277,ls),
(286,1315,o),
(307,1350,o),
(343,1350,cs),
(388,1350,o),
(409,1315,o),
(409,1277,cs),
(409,1193,ls),
(409,1174,o),
(430,1163,o),
(449,1163,cs),
(565,1163,ls),
(584,1163,o),
(585,1174,o),
(585,1193,cs),
(585,1243,ls),
(585,1411,o),
(486,1504,o),
(343,1504,cs),
(209,1504,o),
(110,1411,o),
(110,1243,cs),
(110,30,ls),
(110,10,o),
(121,0,o),
(140,0,cs)
);
}
);
width = 460;
},
{
anchors = (
{
name = bottom;
pos = (418,0);
},
{
name = top;
pos = (418,1540);
}
);
background = {
shapes = (
{
closed = 0;
nodes = (
(357,830,l),
(357,876,o),
(383,906,o),
(425,906,cs),
(500,906,l),
(500,1027,l),
(425,1027,ls),
(307,1027,o),
(222,967,o),
(222,812,c)
);
}
);
};
layerId = m003;
shapes = (
{
closed = 1;
nodes = (
(716,0,ls),
(735,0,o),
(746,10,o),
(746,30,cs),
(746,888,l),
(979,888,l),
(1126,888,ls),
(1145,888,o),
(1156,898,o),
(1156,918,cs),
(1156,1030,ls),
(1156,1050,o),
(1145,1060,o),
(1126,1060,cs),
(979,1060,l),
(743,1060,l),
(742,1193,ls),
(741,1261,o),
(783,1304,o),
(843,1304,cs),
(1049,1304,ls),
(1068,1304,o),
(1079,1315,o),
(1079,1334,cs),
(1079,1450,ls),
(1079,1470,o),
(1068,1480,o),
(1049,1480,cs),
(843,1480,ls),
(672,1480,o),
(549,1393,o),
(549,1172,cs),
(549,1060,l),
(428,1060,l),
(321,1060,ls),
(302,1060,o),
(291,1050,o),
(291,1030,cs),
(291,918,ls),
(291,899,o),
(302,888,o),
(321,888,cs),
(428,888,l),
(551,888,l),
(551,30,ls),
(551,11,o),
(562,0,o),
(581,0,cs)
);
}
);
width = 1300;
}
);
unicode = 102;
},
{
glyphname = g;
lastChange = "2025-12-04 13:37:54 +0000";
layers = (
{
anchors = (
{
name = bottom;
pos = (561,0);
},
{
name = top;
pos = (561,1060);
}
);
layerId = "1B8EDE0E-D46F-48F9-B9C6-2CD34FEA95FD";
shapes = (
{
closed = 1;
nodes = (
(369,-207,ls),
(369,-265,o),
(348,-310,o),
(302,-310,cs),
(257,-310,o),
(236,-265,o),
(236,-207,cs),
(236,-123,ls),
(236,-104,o),
(225,-93,o),
(206,-93,cs),
(90,-93,ls),
(71,-93,o),
(60,-104,o),
(60,-123,cs),
(60,-153,ls),
(60,-351,o),
(159,-464,o),
(302,-464,cs),
(456,-464,o),
(546,-351,o),
(546,-153,cs),
(546,1030,ls),
(546,1049,o),
(535,1060,o),
(516,1060,cs),
(451,1060,ls),
(433,1060,o),
(422,1052,o),
(418,1034,cs),
(404,971,l),
(380,971,l),
(369,971,l)
);
},
{
closed = 1;
nodes = (
(415,422,l),
(415,638,l),
(415,773,ls),
(415,971,o),
(366,1084,o),
(232,1084,cs),
(99,1084,o),
(40,981,o),
(40,793,c),
(40,267,l),
(40,79,o),
(99,-24,o),
(232,-24,cs),
(289,-24,o),
(330,-4,o),
(359,35,c),
(415,35,l)
);
},
{
closed = 1;
nodes = (
(369,175,o),
(348,130,o),
(292,130,cs),
(237,130,o),
(216,175,o),
(216,233,c),
(216,827,l),
(216,885,o),
(237,930,o),
(292,930,cs),
(348,930,o),
(369,885,o),
(369,827,cs),
(369,638,l),
(369,422,l),
(369,233,ls)
);
}
);
width = 581;
},
{
anchors = (
{
name = bottom;
pos = (559,-440);
},
{
name = top;
pos = (559,1060);
}
);
layerId = m003;
shapes = (
{
closed = 1;
nodes = (
(776,342,o),
(969,430,o),
(969,712,cs),
(969,989,o),
(763,1084,o),
(564,1084,cs),
(365,1084,o),
(161,976,o),
(161,712,cs),
(161,430,o),
(354,342,o),
(564,342,cs)
);
},
{
closed = 1;
nodes = (
(429,497,o),
(344,564,o),
(344,715,cs),
(344,839,o),
(429,929,o),
(564,929,cs),
(702,929,o),
(783,839,o),
(783,715,cs),
(783,564,o),
(702,497,o),
(564,497,cs)
);
},
{
closed = 1;
nodes = (
(702,28,l),
(702,164,l),
(492,164,ls),
(370,164,o),
(281,245,o),
(281,315,cs),
(281,377,o),
(354,428,o),
(406,462,c),
(299,575,l),
(216,519,o),
(103,414,o),
(103,315,cs),
(103,206,o),
(189,54,o),
(428,41,cs)
);
},
{
closed = 1;
nodes = (
(695,-440,ls),
(954,-440,o),
(1059,-288,o),
(1059,-143,cs),
(1059,30,o),
(954,166,o),
(695,166,cs),
(444,166,ls),
(200,166,o),
(80,30,o),
(80,-143,cs),
(80,-288,o),
(183,-440,o),
(444,-440,cs)
);
},
{
closed = 1;
nodes = (
(344,-273,o),
(271,-223,o),
(271,-137,cs),
(271,-28,o),
(344,0,o),
(436,0,cs),
(699,0,ls),
(793,0,o),
(866,-45,o),
(866,-137,cs),
(866,-205,o),
(793,-273,o),
(699,-273,cs),
(436,-273,ls)
);
},
{
closed = 1;
nodes = (
(837,957,l),
(837,1014,o),
(850,1062,o),
(945,1062,c),
(955,1062,l),
(975,1062,o),
(986,1073,o),
(986,1093,cs),
(986,1213,ls),
(986,1233,o),
(975,1243,o),
(955,1243,c),
(950,1243,l),
(761,1240,o),
(683,1087,o),
(683,957,c)
);
}
);
width = 1117;
}
);
metricRight = n;
unicode = 103;
},
{
glyphname = h;
lastChange = "2025-12-04 14:20:58 +0000";
layers = (
{
anchors = (
{
name = bottom;
pos = (550,0);
},
{
name = center;
pos = (265,1232);
},
{
name = top;
pos = (550,1540);
}
);
layerId = "1B8EDE0E-D46F-48F9-B9C6-2CD34FEA95FD";
shapes = (
{
closed = 1;
nodes = (
(185,0,ls),
(204,0,o),
(215,11,o),
(215,30,cs),
(215,1510,ls),
(215,1529,o),
(204,1540,o),
(185,1540,cs),
(70,1540,ls),
(51,1540,o),
(40,1529,o),
(40,1510,cs),
(40,30,ls),
(40,11,o),
(51,0,o),
(70,0,cs)
);
},
{
closed = 1;
nodes = (
(215,638,l),
(215,827,ls),
(215,885,o),
(236,930,o),
(292,930,cs),
(347,930,o),
(368,885,o),
(368,827,c),
(368,30,ls),
(368,11,o),
(379,0,o),
(398,0,cs),
(514,0,ls),
(533,0,o),
(544,10,o),
(544,30,cs),
(544,793,l),
(544,981,o),
(485,1084,o),
(352,1084,cs),
(295,1084,o),
(254,1064,o),
(225,1025,c),
(169,1025,l),
(169,638,l)
);
}
);
width = 584;
},
{
anchors = (
{
name = bottom;
pos = (570,0);
},
{
name = center;
pos = (285,1232);
},
{
name = top;
pos = (570,1540);
}
);
layerId = m003;
shapes = (
{
closed = 1;
nodes = (
(302,0,ls),
(321,0,o),
(332,11,o),
(332,30,cs),
(332,1510,ls),
(332,1530,o),
(321,1540,o),
(302,1540,cs),
(161,1540,ls),
(142,1540,o),
(131,1529,o),
(131,1510,cs),
(131,30,ls),
(131,11,o),
(142,0,o),
(161,0,cs)
);
},
{
closed = 1;
nodes = (
(332,655,l),
(332,841,o),
(441,912,o),
(577,912,cs),
(713,912,o),
(821,841,o),
(821,655,cs),
(821,30,ls),
(821,11,o),
(832,0,o),
(851,0,cs),
(986,0,ls),
(1005,0,o),
(1016,11,o),
(1016,30,cs),
(1016,629,ls),
(1016,973,o),
(813,1084,o),
(609,1084,cs),
(376,1084,o),
(216,923,o),
(245,655,c)
);
}
);
width = 1139;
}
);
metricLeft = n;
metricRight = n;
unicode = 104;
},
{
glyphname = i;
lastChange = "2025-12-04 13:31:36 +0000";
layers = (
{
anchors = (
{
name = bottom;
pos = (196,0);
}
);
layerId = "1B8EDE0E-D46F-48F9-B9C6-2CD34FEA95FD";
shapes = (
{
closed = 1;
nodes = (
(208,0,ls),
(227,0,o),
(238,10,o),
(238,30,cs),
(239,1033,ls),
(239,1052,o),
(228,1063,o),
(209,1063,cs),
(73,1063,ls),
(54,1063,o),
(43,1053,o),
(43,1033,cs),
(42,30,ls),
(42,11,o),
(53,0,o),
(72,0,cs)
);
},
{
closed = 1;
nodes = (
(220,1234,o),
(268,1280,o),
(268,1359,cs),
(268,1438,o),
(220,1485,o),
(140,1485,cs),
(59,1485,o),
(14,1438,o),
(14,1359,cs),
(14,1280,o),
(59,1234,o),
(140,1234,cs)
);
}
);
width = 282;
},
{
anchors = (
{
name = bottom;
pos = (276,0);
}
);
layerId = m003;
shapes = (
{
closed = 1;
nodes = (
(430,0,ls),
(449,0,o),
(460,11,o),
(460,30,cs),
(460,150,ls),
(460,170,o),
(449,180,o),
(430,180,cs),
(408,180,ls),
(358,180,o),
(318,219,o),
(318,294,cs),
(319,1033,ls),
(319,1052,o),
(308,1063,o),
(289,1063,cs),
(153,1063,ls),
(134,1063,o),
(123,1053,o),
(123,1033,cs),
(122,310,ls),
(122,87,o),
(247,0,o),
(396,0,cs)
);
},
{
closed = 1;
nodes = (
(300,1234,o),
(348,1280,o),
(348,1359,cs),
(348,1438,o),
(300,1485,o),
(220,1485,cs),
(139,1485,o),
(94,1438,o),
(94,1359,cs),
(94,1280,o),
(139,1234,o),
(220,1234,cs)
);
}
);
width = 551;
}
);
metricRight = "=|";
unicode = 105;
},
{
glyphname = idotless;
lastChange = "2025-12-03 15:59:57 +0000";
layers = (
{
anchors = (
{
name = bottom;
pos = (276,0);
},
{
name = ogonek;
pos = (460,0);
},
{
name = top;
pos = (276,1060);
}
);
layerId = "1B8EDE0E-D46F-48F9-B9C6-2CD34FEA95FD";
shapes = (
{
closed = 1;
nodes = (
(430,0,ls),
(449,0,o),
(460,11,o),
(460,30,cs),
(460,150,ls),
(460,170,o),
(449,180,o),
(430,180,cs),
(408,180,ls),
(358,180,o),
(318,219,o),
(318,294,cs),
(319,1033,ls),
(319,1052,o),
(308,1063,o),
(289,1063,cs),
(153,1063,ls),
(134,1063,o),
(123,1053,o),
(123,1033,cs),
(122,310,ls),
(122,87,o),
(247,0,o),
(396,0,cs)
);
}
);
width = 551;
},
{
anchors = (
{
name = bottom;
pos = (276,0);
},
{
name = ogonek;
pos = (460,0);
},
{
name = top;
pos = (276,1060);
}
);
layerId = m003;
shapes = (
{
closed = 1;
nodes = (
(430,0,ls),
(449,0,o),
(460,11,o),
(460,30,cs),
(460,150,ls),
(460,170,o),
(449,180,o),
(430,180,cs),
(408,180,ls),
(358,180,o),
(318,219,o),
(318,294,cs),
(319,1033,ls),
(319,1052,o),
(308,1063,o),
(289,1063,cs),
(153,1063,ls),
(134,1063,o),
(123,1053,o),
(123,1033,cs),
(122,310,ls),
(122,87,o),
(247,0,o),
(396,0,cs)
);
}
);
width = 551;
}
);
metricRight = i;
unicode = 305;
},
{
glyphname = j;
lastChange = "2025-12-04 13:44:59 +0000";
layers = (
{
layerId = "1B8EDE0E-D46F-48F9-B9C6-2CD34FEA95FD";
shapes = (
{
closed = 1;
nodes = (
(94,-448,o),
(217,-361,o),
(217,-136,c),
(217,1033,ls),
(217,1053,o),
(206,1063,o),
(187,1063,cs),
(51,1063,ls),
(32,1063,o),
(21,1053,o),
(21,1033,cs),
(21,-162,l),
(21,-229,o),
(-17,-273,o),
(-77,-273,cs),
(-156,-273,ls),
(-175,-273,o),
(-186,-284,o),
(-186,-303,cs),
(-186,-418,ls),
(-186,-438,o),
(-175,-448,o),
(-156,-448,cs),
(-77,-448,ls)
);
},
{
closed = 1;
nodes = (
(194,1234,o),
(242,1280,o),
(242,1359,cs),
(242,1438,o),
(194,1485,o),
(114,1485,cs),
(33,1485,o),
(-12,1438,o),
(-12,1359,cs),
(-12,1280,o),
(33,1234,o),
(114,1234,cs)
);
}
);
width = 256;
},
{
layerId = m003;
shapes = (
{
closed = 1;
nodes = (
(244,-448,o),
(367,-361,o),
(367,-136,c),
(367,1033,ls),
(367,1053,o),
(356,1063,o),
(337,1063,cs),
(201,1063,ls),
(182,1063,o),
(171,1053,o),
(171,1033,cs),
(171,-162,l),
(171,-229,o),
(133,-273,o),
(73,-273,cs),
(-6,-273,ls),
(-25,-273,o),
(-36,-284,o),
(-36,-303,cs),
(-36,-418,ls),
(-36,-438,o),
(-25,-448,o),
(-6,-448,cs),
(73,-448,ls)
);
},
{
closed = 1;
nodes = (
(344,1234,o),
(392,1280,o),
(392,1359,cs),
(392,1438,o),
(344,1485,o),
(264,1485,cs),
(183,1485,o),
(138,1438,o),
(138,1359,cs),
(138,1280,o),
(183,1234,o),
(264,1234,cs)
);
}
);
width = 519;
}
);
metricRight = i;
unicode = 106;
},
{
glyphname = k;
lastChange = "2025-12-04 14:20:30 +0000";
layers = (
{
anchors = (
{
name = bottom;
pos = (414,0);
},
{
name = top;
pos = (414,1540);
}
);
layerId = "1B8EDE0E-D46F-48F9-B9C6-2CD34FEA95FD";
shapes = (
{
closed = 1;
nodes = (
(186,0,ls),
(205,0,o),
(216,11,o),
(216,30,cs),
(216,1510,ls),
(216,1530,o),
(205,1540,o),
(186,1540,cs),
(70,1540,ls),
(51,1540,o),
(40,1529,o),
(40,1510,cs),
(40,30,ls),
(40,11,o),
(51,0,o),
(70,0,cs)
);
},
{
closed = 1;
nodes = (
(519,0,ls),
(541,0,o),
(551,14,o),
(543,35,cs),
(311,608,l),
(149,561,l),
(360,24,ls),
(366,8,o),
(377,0,o),
(394,0,cs)
);
},
{
closed = 1;
nodes = (
(209,336,l),
(549,1025,ls),
(559,1046,o),
(549,1060,o),
(526,1060,cs),
(400,1060,ls),
(383,1060,o),
(374,1057,o),
(365,1038,cs),
(95,455,l)
);
}
);
width = 567;
},
{
anchors = (
{
name = bottom;
pos = (524,0);
},
{
name = top;
pos = (524,1540);
}
);
layerId = m003;
shapes = (
{
closed = 1;
nodes = (
(296,0,ls),
(315,0,o),
(326,11,o),
(326,30,cs),
(326,1510,ls),
(326,1530,o),
(315,1540,o),
(296,1540,cs),
(161,1540,ls),
(142,1540,o),
(131,1529,o),
(131,1510,cs),
(131,30,ls),
(131,11,o),
(142,0,o),
(161,0,cs)
);
},
{
closed = 1;
nodes = (
(951,0,ls),
(975,0,o),
(984,16,o),
(972,36,cs),
(579,708,l),
(387,661,l),
(765,20,ls),
(773,6,o),
(785,0,o),
(801,0,cs)
);
},
{
closed = 1;
nodes = (
(300,386,l),
(902,1023,ls),
(920,1042,o),
(912,1060,o),
(886,1060,cs),
(714,1060,ls),
(699,1060,o),
(687,1055,o),
(677,1044,cs),
(175,505,l)
);
}
);
width = 1048;
}
);
metricLeft = n;
unicode = 107;
},
{
glyphname = l;
lastChange = "2025-12-04 14:20:16 +0000";
layers = (
{
anchors = (
{
name = bottom;
pos = (190,0);
},
{
name = center;
pos = (190,530);
},
{
name = top;
pos = (190,1540);
},
{
name = topright;
pos = (379,1540);
}
);
layerId = "1B8EDE0E-D46F-48F9-B9C6-2CD34FEA95FD";
shapes = (
{
closed = 1;
nodes = (
(186,0,ls),
(205,0,o),
(216,11,o),
(216,30,cs),
(216,1510,ls),
(216,1530,o),
(205,1540,o),
(186,1540,cs),
(70,1540,ls),
(51,1540,o),
(40,1529,o),
(40,1510,cs),
(40,30,ls),
(40,11,o),
(51,0,o),
(70,0,cs)
);
}
);
width = 256;
},
{
anchors = (
{
name = bottom;
pos = (281,0);
},
{
name = center;
pos = (281,530);
},
{
name = top;
pos = (281,1540);
},
{
name = topright;
pos = (470,1540);
}
);
layerId = m003;
shapes = (
{
closed = 1;
nodes = (
(440,0,ls),
(459,0,o),
(470,11,o),
(470,30,cs),
(470,145,ls),
(470,165,o),
(459,175,o),
(440,175,cs),
(436,175,ls),
(367,175,o),
(326,213,o),
(326,290,c),
(326,1510,ls),
(326,1530,o),
(315,1540,o),
(296,1540,cs),
(161,1540,ls),
(142,1540,o),
(131,1529,o),
(131,1510,cs),
(131,316,l),
(131,90,o),
(254,0,o),
(423,0,cs)
);
}
);
width = 561;
}
);
metricLeft = "=n";
metricRight = "=|";
unicode = 108;
},
{
glyphname = lslash;
lastChange = "2025-12-03 10:06:44 +0000";
layers = (
{
layerId = "1B8EDE0E-D46F-48F9-B9C6-2CD34FEA95FD";
shapes = (
{
ref = l;
},
{
closed = 1;
nodes = (
(54,717,ls),
(54,694,o),
(68,685,o),
(89,693,cs),
(403,821,ls),
(419,827,o),
(426,839,o),
(426,856,cs),
(426,999,ls),
(426,1022,o),
(412,1031,o),
(391,1023,cs),
(77,895,ls),
(61,889,o),
(54,877,o),
(54,860,cs)
);
}
);
width = 561;
},
{
layerId = m003;
shapes = (
{
ref = l;
},
{
closed = 1;
nodes = (
(54,717,ls),
(54,694,o),
(68,685,o),
(89,693,cs),
(403,821,ls),
(419,827,o),
(426,839,o),
(426,856,cs),
(426,999,ls),
(426,1022,o),
(412,1031,o),
(391,1023,cs),
(77,895,ls),
(61,889,o),
(54,877,o),
(54,860,cs)
);
}
);
width = 561;
}
);
metricRight = "=l";
unicode = 322;
},
{
glyphname = m;
lastChange = "2025-12-04 13:34:33 +0000";
layers = (
{
anchors = (
{
name = bottom;
pos = (867,0);
},
{
name = top;
pos = (867,1060);
}
);
layerId = "1B8EDE0E-D46F-48F9-B9C6-2CD34FEA95FD";
shapes = (
{
closed = 1;
nodes = (
(205,0,ls),
(224,0,o),
(235,11,o),
(235,30,cs),
(235,971,l),
(224,971,l),
(200,971,l),
(186,1034,ls),
(182,1052,o),
(171,1060,o),
(153,1060,cs),
(70,1060,ls),
(51,1060,o),
(40,1049,o),
(40,1030,cs),
(40,30,ls),
(40,11,o),
(51,0,o),
(70,0,cs)
);
},
{
closed = 1;
nodes = (
(534,0,ls),
(553,0,o),
(564,11,o),
(564,30,cs),
(564,773,l),
(564,971,o),
(515,1084,o),
(372,1084,cs),
(238,1084,o),
(189,971,o),
(189,773,cs),
(189,422,l),
(235,422,l),
(235,827,ls),
(235,885,o),
(256,930,o),
(312,930,cs),
(367,930,o),
(388,885,o),
(388,827,cs),
(388,30,ls),
(388,11,o),
(399,0,o),
(418,0,cs)
);
},
{
closed = 1;
nodes = (
(863,0,ls),
(882,0,o),
(893,11,o),
(893,30,cs),
(893,773,l),
(893,971,o),
(844,1084,o),
(701,1084,cs),
(567,1084,o),
(518,971,o),
(518,773,cs),
(518,422,l),
(564,422,l),
(564,827,ls),
(564,885,o),
(585,930,o),
(641,930,cs),
(696,930,o),
(717,885,o),
(717,827,cs),
(717,30,ls),
(717,11,o),
(728,0,o),
(747,0,cs)
);
}
);
width = 928;
},
{
anchors = (
{
name = bottom;
pos = (867,0);
},
{
name = top;
pos = (867,1060);
}
);
layerId = m003;
shapes = (
{
closed = 1;
nodes = (
(296,0,ls),
(315,0,o),
(326,11,o),
(326,30,cs),
(326,967,l),
(316,967,l),
(291,967,l),
(276,1034,ls),
(272,1051,o),
(261,1060,o),
(243,1060,cs),
(161,1060,ls),
(142,1060,o),
(131,1049,o),
(131,1030,cs),
(131,30,ls),
(131,11,o),
(142,0,o),
(161,0,cs)
);
},
{
closed = 1;
nodes = (
(939,0,ls),
(958,0,o),
(969,11,o),
(969,30,cs),
(969,658,ls),
(969,909,o),
(816,1084,o),
(599,1084,cs),
(371,1084,o),
(218,900,o),
(244,658,c),
(326,636,l),
(326,841,o),
(448,912,o),
(550,912,cs),
(651,912,o),
(774,841,o),
(774,636,cs),
(774,30,ls),
(774,11,o),
(785,0,o),
(804,0,cs)
);
},
{
closed = 1;
nodes = (
(1581,0,ls),
(1600,0,o),
(1611,11,o),
(1611,30,cs),
(1611,639,ls),
(1611,971,o),
(1405,1084,o),
(1224,1084,cs),
(1032,1084,o),
(879,958,o),
(871,658,c),
(969,636,l),
(969,819,o),
(1090,912,o),
(1192,912,cs),
(1293,912,o),
(1415,841,o),
(1415,636,cs),
(1415,30,ls),
(1415,11,o),
(1426,0,o),
(1445,0,cs)
);
}
);
width = 1734;
}
);
metricLeft = "=n";
metricRight = "=n";
unicode = 109;
},
{
glyphname = n;
lastChange = "2025-12-04 15:15:40 +0000";
layers = (
{
anchors = (
{
name = bottom;
pos = (476,0);
},
{
name = top;
pos = (476,1060);
}
);
layerId = "1B8EDE0E-D46F-48F9-B9C6-2CD34FEA95FD";
shapes = (
{
closed = 1;
nodes = (
(200,0,ls),
(219,0,o),
(230,11,o),
(230,30,cs),
(230,971,l),
(219,971,l),
(195,971,l),
(181,1034,ls),
(177,1052,o),
(166,1060,o),
(148,1060,cs),
(70,1060,ls),
(51,1060,o),
(40,1049,o),
(40,1030,cs),
(40,30,ls),
(40,11,o),
(51,0,o),
(70,0,cs)
);
},
{
closed = 1;
nodes = (
(529,0,ls),
(548,0,o),
(559,11,o),
(559,30,cs),
(559,773,l),
(559,971,o),
(510,1084,o),
(367,1084,cs),
(233,1084,o),
(184,971,o),
(184,773,cs),
(184,422,l),
(230,422,l),
(230,827,ls),
(230,885,o),
(251,930,o),
(307,930,cs),
(362,930,o),
(383,885,o),
(383,827,cs),
(383,30,ls),
(383,11,o),
(394,0,o),
(413,0,cs)
);
},
{
closed = 1;
nodes = (
(200,0,ls),
(219,0,o),
(230,11,o),
(230,30,cs),
(230,971,l),
(219,971,l),
(195,971,l),
(181,1034,ls),
(177,1052,o),
(166,1060,o),
(148,1060,cs),
(70,1060,ls),
(51,1060,o),
(40,1049,o),
(40,1030,cs),
(40,30,ls),
(40,11,o),
(51,0,o),
(70,0,cs)
);
},
{
closed = 1;
nodes = (
(529,0,ls),
(548,0,o),
(559,11,o),
(559,30,cs),
(559,773,l),
(559,971,o),
(510,1084,o),
(367,1084,cs),
(233,1084,o),
(184,971,o),
(184,773,cs),
(184,422,l),
(230,422,l),
(230,827,ls),
(230,885,o),
(251,930,o),
(307,930,cs),
(362,930,o),
(383,885,o),
(383,827,cs),
(383,30,ls),
(383,11,o),
(394,0,o),
(413,0,cs)
);
}
);
width = 599;
},
{
anchors = (
{
name = bottom;
pos = (636,0);
},
{
name = top;
pos = (636,1060);
}
);
layerId = m003;
shapes = (
{
closed = 1;
nodes = (
(355,0,ls),
(374,0,o),
(385,11,o),
(385,30,cs),
(385,591,ls),
(385,807,o),
(504,932,o),
(646,932,cs),
(818,932,o),
(937,807,o),
(937,591,cs),
(937,30,ls),
(937,11,o),
(948,0,o),
(967,0,cs),
(1103,0,ls),
(1122,0,o),
(1133,11,o),
(1133,30,cs),
(1133,558,ls),
(1133,973,o),
(896,1084,o),
(655,1084,cs),
(491,1084,o),
(358,1020,o),
(352,861,c),
(425,971,l),
(350,971,l),
(336,1034,ls),
(332,1052,o),
(321,1060,o),
(303,1060,cs),
(220,1060,ls),
(201,1060,o),
(190,1049,o),
(190,1030,cs),
(190,30,ls),
(190,11,o),
(201,0,o),
(220,0,cs)
);
}
);
width = 1300;
}
);
unicode = 110;
},
{
glyphname = o;
lastChange = "2025-12-04 15:16:13 +0000";
layers = (
{
anchors = (
{
name = bottom;
pos = (571,0);
},
{
name = center;
pos = (571,530);
},
{
name = ogonek;
pos = (1027,10);
},
{
name = top;
pos = (571,1060);
},
{
name = topright;
pos = (1121,1060);
}
);
layerId = "1B8EDE0E-D46F-48F9-B9C6-2CD34FEA95FD";
shapes = (
{
closed = 1;
nodes = (
(139,1084,o),
(40,971,o),
(40,773,cs),
(40,287,ls),
(40,89,o),
(139,-24,o),
(293,-24,cs),
(446,-24,o),
(545,89,o),
(545,287,cs),
(545,773,l),
(545,971,o),
(446,1084,o),
(293,1084,cs)
);
},
{
closed = 1;
nodes = (
(348,930,o),
(369,885,o),
(369,827,cs),
(369,233,ls),
(369,176,o),
(348,130,o),
(293,130,cs),
(237,130,o),
(216,176,o),
(216,233,cs),
(216,827,ls),
(216,885,o),
(237,930,o),
(293,930,cs)
);
}
);
width = 585;
},
{
anchors = (
{
name = bottom;
pos = (632,0);
},
{
name = center;
pos = (632,530);
},
{
name = ogonek;
pos = (1088,10);
},
{
name = top;
pos = (632,1060);
},
{
name = topright;
pos = (1182,1060);
}
);
layerId = m003;
shapes = (
{
closed = 1;
nodes = (
(494,151,o),
(363,262,o),
(363,435,cs),
(363,622,ls),
(363,795,o),
(494,909,o),
(652,909,cs),
(809,909,o),
(938,795,o),
(938,622,cs),
(938,435,ls),
(938,262,o),
(809,151,o),
(652,151,cs)
);
},
{
closed = 1;
nodes = (
(925,-24,o),
(1130,174,o),
(1130,435,cs),
(1130,622,ls),
(1130,883,o),
(925,1084,o),
(652,1084,cs),
(378,1084,o),
(170,883,o),
(170,622,cs),
(170,435,ls),
(170,170,o),
(378,-24,o),
(652,-24,cs)
);
}
);
width = 1300;
}
);
metricRight = "=|";
unicode = 111;
},
{
glyphname = oslash;
lastChange = "2025-12-03 15:59:57 +0000";
layers = (
{
anchors = (
{
name = top;
pos = (570,1060);
}
);
layerId = "1B8EDE0E-D46F-48F9-B9C6-2CD34FEA95FD";
shapes = (
{
ref = o;
},
{
closed = 1;
nodes = (
(262,0,ls),
(278,0,o),
(289,6,o),
(298,19,cs),
(1025,1023,ls),
(1039,1043,o),
(1031,1060,o),
(1006,1060,cs),
(878,1060,ls),
(862,1060,o),
(851,1054,o),
(842,1041,cs),
(115,37,ls),
(101,17,o),
(109,0,o),
(134,0,cs)
);
}
);
width = 1140;
},
{
anchors = (
{
name = top;
pos = (570,1060);
}
);
layerId = m003;
shapes = (
{
ref = o;
},
{
closed = 1;
nodes = (
(262,0,ls),
(278,0,o),
(289,6,o),
(298,19,cs),
(1025,1023,ls),
(1039,1043,o),
(1031,1060,o),
(1006,1060,cs),
(878,1060,ls),
(862,1060,o),
(851,1054,o),
(842,1041,cs),
(115,37,ls),
(101,17,o),
(109,0,o),
(134,0,cs)
);
}
);
width = 1140;
}
);
metricRight = "=|";
unicode = 248;
},
{
glyphname = p;
lastChange = "2025-12-04 13:29:37 +0000";
layers = (
{
anchors = (
{
name = bottom;
pos = (565,0);
},
{
name = top;
pos = (565,1060);
}
);
layerId = "1B8EDE0E-D46F-48F9-B9C6-2CD34FEA95FD";
shapes = (
{
closed = 1;
nodes = (
(205,-440,ls),
(224,-440,o),
(235,-429,o),
(235,-410,cs),
(235,971,l),
(224,971,l),
(200,971,l),
(186,1034,ls),
(182,1052,o),
(171,1060,o),
(153,1060,cs),
(70,1060,ls),
(51,1060,o),
(40,1049,o),
(40,1030,cs),
(40,-410,ls),
(40,-429,o),
(51,-440,o),
(70,-440,cs)
);
},
{
closed = 1;
nodes = (
(245,35,l),
(274,-4,o),
(315,-24,o),
(372,-24,cs),
(505,-24,o),
(564,79,o),
(564,267,c),
(564,793,l),
(564,981,o),
(505,1084,o),
(372,1084,cs),
(238,1084,o),
(189,971,o),
(189,773,cs),
(189,638,l),
(189,422,l),
(189,35,l)
);
},
{
closed = 1;
nodes = (
(235,422,l),
(235,638,l),
(235,827,ls),
(235,885,o),
(256,930,o),
(312,930,cs),
(367,930,o),
(388,885,o),
(388,827,c),
(388,233,l),
(388,175,o),
(367,130,o),
(312,130,cs),
(256,130,o),
(235,175,o),
(235,233,cs)
);
}
);
width = 604;
},
{
anchors = (
{
name = bottom;
pos = (565,0);
},
{
name = top;
pos = (565,1060);
}
);
layerId = m003;
shapes = (
{
closed = 1;
nodes = (
(296,-440,ls),
(315,-440,o),
(326,-430,o),
(326,-410,cs),
(326,969,l),
(315,969,l),
(291,969,l),
(276,1034,ls),
(272,1051,o),
(261,1060,o),
(243,1060,cs),
(161,1060,ls),
(142,1060,o),
(131,1050,o),
(131,1030,cs),
(131,-410,ls),
(131,-430,o),
(142,-440,o),
(161,-440,cs)
);
},
{
closed = 1;
nodes = (
(421,148,o),
(326,258,o),
(326,441,c),
(247,441,l),
(255,128,o),
(377,-24,o),
(608,-24,cs),
(867,-24,o),
(1021,155,o),
(1021,451,cs),
(1021,612,ls),
(1021,903,o),
(860,1084,o),
(596,1084,cs),
(351,1084,o),
(238,932,o),
(225,612,c),
(326,612,l),
(326,813,o),
(425,910,o),
(568,910,cs),
(729,910,o),
(828,799,o),
(828,612,cs),
(828,441,ls),
(828,258,o),
(729,148,o),
(568,148,cs)
);
}
);
width = 1130;
}
);
metricLeft = "=n";
metricRight = o;
unicode = 112;
},
{
glyphname = q;
lastChange = "2025-12-04 13:35:59 +0000";
layers = (
{
anchors = (
{
name = bottom;
pos = (561,0);
},
{
name = top;
pos = (561,1060);
}
);
layerId = "1B8EDE0E-D46F-48F9-B9C6-2CD34FEA95FD";
shapes = (
{
closed = 1;
nodes = (
(553,-440,o),
(564,-429,o),
(564,-410,cs),
(564,1030,ls),
(564,1049,o),
(553,1060,o),
(534,1060,cs),
(451,1060,ls),
(433,1060,o),
(422,1052,o),
(418,1034,cs),
(404,971,l),
(380,971,l),
(369,971,l),
(369,-410,ls),
(369,-429,o),
(380,-440,o),
(399,-440,cs),
(534,-440,ls)
);
},
{
closed = 1;
nodes = (
(415,422,l),
(415,638,l),
(415,773,ls),
(415,971,o),
(366,1084,o),
(232,1084,cs),
(99,1084,o),
(40,981,o),
(40,793,c),
(40,267,l),
(40,79,o),
(99,-24,o),
(232,-24,cs),
(289,-24,o),
(330,-4,o),
(359,35,c),
(415,35,l)
);
},
{
closed = 1;
nodes = (
(369,175,o),
(348,130,o),
(292,130,cs),
(237,130,o),
(216,175,o),
(216,233,c),
(216,827,l),
(216,885,o),
(237,930,o),
(292,930,cs),
(348,930,o),
(369,885,o),
(369,827,cs),
(369,638,l),
(369,422,l),
(369,233,ls)
);
}
);
width = 599;
},
{
anchors = (
{
name = bottom;
pos = (561,0);
},
{
name = top;
pos = (561,1060);
}
);
layerId = m003;
shapes = (
{
closed = 1;
nodes = (
(969,-440,ls),
(988,-440,o),
(999,-430,o),
(999,-410,cs),
(999,1030,ls),
(999,1050,o),
(988,1060,o),
(969,1060,cs),
(887,1060,ls),
(869,1060,o),
(858,1051,o),
(854,1034,cs),
(839,969,l),
(815,969,l),
(804,969,l),
(804,-410,ls),
(804,-430,o),
(815,-440,o),
(834,-440,cs)
);
},
{
closed = 1;
nodes = (
(401,148,o),
(302,258,o),
(302,441,cs),
(302,612,ls),
(302,799,o),
(401,910,o),
(562,910,cs),
(705,910,o),
(804,813,o),
(804,612,c),
(905,612,l),
(892,932,o),
(779,1084,o),
(534,1084,cs),
(270,1084,o),
(109,903,o),
(109,612,cs),
(109,451,ls),
(109,155,o),
(263,-24,o),
(522,-24,cs),
(753,-24,o),
(875,128,o),
(883,441,c),
(804,441,l),
(804,258,o),
(709,148,o),
(562,148,cs)
);
}
);
width = 1122;
}
);
metricLeft = "=o";
metricRight = "=n";
unicode = 113;
},
{
glyphname = r;
lastChange = "2025-12-04 13:54:04 +0000";
layers = (
{
anchors = (
{
name = bottom;
pos = (371,0);
},
{
name = top;
pos = (371,1060);
}
);
layerId = "1B8EDE0E-D46F-48F9-B9C6-2CD34FEA95FD";
shapes = (
{
closed = 1;
nodes = (
(205,0,ls),
(224,0,o),
(235,11,o),
(235,30,cs),
(235,971,l),
(224,971,l),
(200,971,l),
(186,1034,ls),
(182,1052,o),
(171,1060,o),
(153,1060,cs),
(70,1060,ls),
(51,1060,o),
(40,1049,o),
(40,1030,cs),
(40,30,ls),
(40,11,o),
(51,0,o),
(70,0,cs)
);
},
{
closed = 1;
nodes = (
(534,660,ls),
(553,660,o),
(564,671,o),
(564,690,cs),
(564,773,l),
(564,971,o),
(515,1084,o),
(372,1084,cs),
(238,1084,o),
(189,971,o),
(189,773,cs),
(189,422,l),
(235,422,l),
(235,827,ls),
(235,885,o),
(256,930,o),
(312,930,cs),
(367,930,o),
(388,885,o),
(388,827,cs),
(388,690,ls),
(388,671,o),
(399,660,o),
(418,660,cs)
);
},
{
closed = 1;
nodes = (
(205,0,ls),
(224,0,o),
(235,11,o),
(235,30,cs),
(235,971,l),
(224,971,l),
(200,971,l),
(186,1034,ls),
(182,1052,o),
(171,1060,o),
(153,1060,cs),
(70,1060,ls),
(51,1060,o),
(40,1049,o),
(40,1030,cs),
(40,30,ls),
(40,11,o),
(51,0,o),
(70,0,cs)
);
},
{
closed = 1;
nodes = (
(534,660,ls),
(553,660,o),
(564,671,o),
(564,690,cs),
(564,773,l),
(564,971,o),
(515,1084,o),
(372,1084,cs),
(238,1084,o),
(189,971,o),
(189,773,cs),
(189,422,l),
(235,422,l),
(235,827,ls),
(235,885,o),
(256,930,o),
(312,930,cs),
(367,930,o),
(388,885,o),
(388,827,cs),
(388,690,ls),
(388,671,o),
(399,660,o),
(418,660,cs)
);
}
);
width = 594;
},
{
anchors = (
{
name = bottom;
pos = (371,0);
},
{
name = top;
pos = (371,1060);
}
);
layerId = m003;
shapes = (
{
closed = 1;
nodes = (
(326,571,l),
(326,815,o),
(429,884,o),
(595,884,c),
(615,884,ls),
(634,884,o),
(645,895,o),
(645,914,cs),
(645,1030,ls),
(645,1050,o),
(634,1060,o),
(615,1060,cs),
(581,1060,l),
(316,1060,o),
(157,868,o),
(225,571,c)
);
},
{
closed = 1;
nodes = (
(296,0,ls),
(315,0,o),
(326,11,o),
(326,30,cs),
(326,967,l),
(315,967,l),
(291,967,l),
(274,1034,ls),
(270,1052,o),
(259,1060,o),
(241,1060,cs),
(161,1060,ls),
(142,1060,o),
(131,1049,o),
(131,1030,cs),
(131,30,ls),
(131,11,o),
(142,0,o),
(161,0,cs)
);
}
);
width = 741;
}
);
metricLeft = "=n";
unicode = 114;
},
{
glyphname = s;
lastChange = "2025-12-04 13:42:34 +0000";
layers = (
{
anchors = (
{
name = bottom;
pos = (554,0);
},
{
name = top;
pos = (554,1060);
}
);
layerId = "1B8EDE0E-D46F-48F9-B9C6-2CD34FEA95FD";
shapes = (
{
closed = 1;
nodes = (
(40,512,o),
(369,431,o),
(369,233,cs),
(369,176,o),
(348,130,o),
(292,130,cs),
(237,130,o),
(216,176,o),
(216,233,cs),
(216,337,ls),
(216,356,o),
(205,367,o),
(186,367,cs),
(70,367,ls),
(51,367,o),
(40,357,o),
(40,337,cs),
(40,287,ls),
(40,89,o),
(139,-24,o),
(292,-24,cs),
(446,-24,o),
(545,89,o),
(545,287,cs),
(545,508,o),
(216,593,o),
(216,827,cs),
(216,885,o),
(237,930,o),
(293,930,cs),
(348,930,o),
(369,885,o),
(369,827,cs),
(369,723,ls),
(369,704,o),
(380,693,o),
(399,693,cs),
(515,693,ls),
(534,693,o),
(545,704,o),
(545,723,cs),
(545,773,ls),
(545,971,o),
(446,1084,o),
(293,1084,cs),
(139,1084,o),
(40,971,o),
(40,773,cs)
);
}
);
width = 585;
},
{
anchors = (
{
name = bottom;
pos = (487,0);
},
{
name = top;
pos = (487,1060);
}
);
layerId = m003;
shapes = (
{
closed = 1;
nodes = (
(745,-24,o),
(881,85,o),
(881,271,cs),
(881,421,o),
(761,526,o),
(508,619,cs),
(421,651,o),
(307,699,o),
(307,785,cs),
(307,853,o),
(374,905,o),
(493,905,cs),
(602,905,o),
(669,859,o),
(682,784,cs),
(685,765,o),
(694,755,o),
(713,755,cs),
(847,755,ls),
(866,755,o),
(878,766,o),
(877,786,cs),
(861,955,o),
(719,1084,o),
(493,1084,cs),
(264,1084,o),
(117,963,o),
(117,798,cs),
(117,650,o),
(203,574,o),
(402,484,cs),
(548,418,o),
(702,375,o),
(702,277,cs),
(702,199,o),
(619,138,o),
(496,138,cs),
(376,138,o),
(291,191,o),
(271,309,cs),
(267,327,o),
(257,337,o),
(239,337,cs),
(122,337,ls),
(102,337,o),
(91,326,o),
(93,306,cs),
(117,83,o),
(259,-24,o),
(500,-24,cs)
);
}
);
width = 974;
}
);
metricRight = "=|";
unicode = 115;
},
{
glyphname = t;
lastChange = "2025-12-04 14:20:52 +0000";
layers = (
{
anchors = (
{
name = bottom;
pos = (333,0);
},
{
name = center;
pos = (333,530);
},
{
name = top;
pos = (333,1303);
},
{
name = topright;
pos = (706,1540);
}
);
layerId = "1B8EDE0E-D46F-48F9-B9C6-2CD34FEA95FD";
shapes = (
{
closed = 1;
nodes = (
(280,0,ls),
(299,0,o),
(310,10,o),
(310,30,cs),
(311,1273,ls),
(311,1292,o),
(300,1303,o),
(281,1303,cs),
(165,1303,ls),
(146,1303,o),
(135,1293,o),
(135,1273,cs),
(134,30,ls),
(134,11,o),
(145,0,o),
(164,0,cs)
);
},
{
closed = 1;
nodes = (
(393,884,ls),
(412,884,o),
(423,895,o),
(423,914,cs),
(423,1030,ls),
(423,1050,o),
(412,1060,o),
(393,1060,cs),
(50,1060,ls),
(31,1060,o),
(20,1049,o),
(20,1030,cs),
(20,914,ls),
(20,895,o),
(31,884,o),
(50,884,cs)
);
}
);
width = 443;
},
{
anchors = (
{
name = bottom;
pos = (393,0);
},
{
name = center;
pos = (393,530);
},
{
name = top;
pos = (393,1303);
},
{
name = topright;
pos = (766,1540);
}
);
layerId = m003;
shapes = (
{
closed = 1;
nodes = (
(653,0,ls),
(672,0,o),
(683,11,o),
(683,30,cs),
(683,150,ls),
(683,170,o),
(672,180,o),
(653,180,cs),
(547,180,ls),
(477,180,o),
(439,219,o),
(439,294,c),
(441,1273,ls),
(441,1292,o),
(430,1303,o),
(411,1303,cs),
(275,1303,ls),
(256,1303,o),
(245,1293,o),
(245,1273,cs),
(244,310,l),
(244,87,o),
(368,0,o),
(535,0,cs)
);
},
{
closed = 1;
nodes = (
(653,884,ls),
(672,884,o),
(683,895,o),
(683,914,cs),
(683,1030,ls),
(683,1050,o),
(672,1060,o),
(653,1060,cs),
(110,1060,ls),
(91,1060,o),
(80,1049,o),
(80,1030,cs),
(80,914,ls),
(80,895,o),
(91,884,o),
(110,884,cs)
);
}
);
width = 786;
}
);
metricRight = "=|";
unicode = 116;
},
{
glyphname = u;
lastChange = "2025-12-04 13:33:44 +0000";
layers = (
{
anchors = (
{
name = bottom;
pos = (123,1060);
},
{
name = ogonek;
pos = (1016,10);
},
{
name = top;
pos = (123,0);
},
{
name = topright;
pos = (1109,1060);
}
);
layerId = "1B8EDE0E-D46F-48F9-B9C6-2CD34FEA95FD";
shapes = (
{
closed = 1;
nodes = (
(394,1060,ls),
(375,1060,o),
(364,1049,o),
(364,1030,cs),
(364,89,l),
(375,89,l),
(399,89,l),
(413,26,ls),
(417,8,o),
(428,0,o),
(446,0,cs),
(529,0,ls),
(548,0,o),
(559,11,o),
(559,30,cs),
(559,1030,ls),
(559,1049,o),
(548,1060,o),
(529,1060,cs)
);
},
{
closed = 1;
nodes = (
(65,1060,ls),
(46,1060,o),
(35,1049,o),
(35,1030,cs),
(35,287,l),
(35,89,o),
(84,-24,o),
(227,-24,cs),
(361,-24,o),
(410,89,o),
(410,287,cs),
(410,638,l),
(364,638,l),
(364,233,ls),
(364,175,o),
(343,130,o),
(287,130,cs),
(232,130,o),
(211,175,o),
(211,233,cs),
(211,1030,ls),
(211,1049,o),
(200,1060,o),
(181,1060,cs)
);
}
);
width = 599;
},
{
anchors = (
{
name = bottom;
pos = (567,0);
},
{
name = ogonek;
pos = (1021,10);
},
{
name = top;
pos = (567,1060);
},
{
name = topright;
pos = (1114,1060);
}
);
layerId = m003;
shapes = (
{
closed = 1;
nodes = (
(808,419,l),
(808,219,o),
(699,148,o),
(563,148,cs),
(426,148,o),
(319,219,o),
(319,419,cs),
(319,1030,ls),
(319,1050,o),
(308,1060,o),
(289,1060,cs),
(153,1060,ls),
(134,1060,o),
(123,1049,o),
(123,1030,cs),
(123,431,ls),
(123,87,o),
(326,-24,o),
(531,-24,cs),
(764,-24,o),
(924,136,o),
(895,419,c)
);
},
{
closed = 1;
nodes = (
(973,0,ls),
(992,0,o),
(1003,11,o),
(1003,30,cs),
(1003,1030,ls),
(1003,1050,o),
(992,1060,o),
(973,1060,cs),
(838,1060,ls),
(819,1060,o),
(808,1049,o),
(808,1030,cs),
(808,114,l),
(808,88,l),
(842,88,l),
(857,26,ls),
(861,8,o),
(872,0,o),
(890,0,cs)
);
}
);
width = 1134;
}
);
metricLeft = "=|n";
metricRight = "=|n";
unicode = 117;
},
{
glyphname = v;
lastChange = "2025-12-04 14:03:31 +0000";
layers = (
{
anchors = (
{
name = bottom;
pos = (499,0);
},
{
name = top;
pos = (499,1060);
}
);
layerId = "1B8EDE0E-D46F-48F9-B9C6-2CD34FEA95FD";
shapes = (
{
closed = 1;
nodes = (
(268,26,ls),
(272,9,o),
(283,0,o),
(301,0,cs),
(396,0,ls),
(414,0,o),
(425,9,o),
(429,26,cs),
(670,1027,ls),
(675,1047,o),
(665,1060,o),
(644,1060,cs),
(506,1060,ls),
(488,1060,o),
(476,1051,o),
(473,1033,cs),
(307,98,l),
(389,98,l),
(225,1033,ls),
(222,1052,o),
(210,1060,o),
(192,1060,cs),
(54,1060,ls),
(33,1060,o),
(23,1047,o),
(28,1027,cs)
);
}
);
width = 698;
},
{
anchors = (
{
name = bottom;
pos = (523,0);
},
{
name = top;
pos = (523,1060);
}
);
layerId = m003;
shapes = (
{
closed = 1;
nodes = (
(439,24,ls),
(445,7,o),
(456,0,o),
(473,0,cs),
(572,0,ls),
(589,0,o),
(600,7,o),
(606,24,cs),
(989,1025,ls),
(997,1046,o),
(987,1060,o),
(965,1060,cs),
(818,1060,ls),
(801,1060,o),
(789,1052,o),
(784,1036,cs),
(481,138,l),
(563,138,l),
(262,1036,ls),
(257,1052,o),
(245,1060,o),
(228,1060,cs),
(81,1060,ls),
(59,1060,o),
(49,1046,o),
(57,1025,cs)
);
}
);
width = 1046;
}
);
metricRight = "=|";
unicode = 118;
},
{
glyphname = w;
lastChange = "2025-12-04 14:05:40 +0000";
layers = (
{
anchors = (
{
name = bottom;
pos = (765,0);
},
{
name = top;
pos = (765,1060);
}
);
layerId = "1B8EDE0E-D46F-48F9-B9C6-2CD34FEA95FD";
shapes = (
{
closed = 1;
nodes = (
(357,0,ls),
(375,0,o),
(387,8,o),
(390,27,cs),
(529,870,l),
(477,870,l),
(636,27,ls),
(639,9,o),
(650,0,o),
(668,0,cs),
(776,0,ls),
(794,0,o),
(805,9,o),
(809,26,cs),
(1036,1027,ls),
(1041,1047,o),
(1031,1060,o),
(1010,1060,cs),
(874,1060,ls),
(856,1060,o),
(844,1052,o),
(841,1033,cs),
(696,186,l),
(745,186,l),
(588,1033,ls),
(585,1051,o),
(574,1060,o),
(556,1060,cs),
(455,1060,ls),
(437,1060,o),
(425,1052,o),
(422,1033,cs),
(279,186,l),
(327,186,l),
(216,1032,ls),
(214,1051,o),
(202,1060,o),
(184,1060,cs),
(48,1060,ls),
(27,1060,o),
(17,1047,o),
(21,1027,cs),
(216,27,ls),
(219,9,o),
(230,0,o),
(248,0,cs)
);
}
);
width = 1057;
},
{
anchors = (
{
name = bottom;
pos = (795,0);
},
{
name = top;
pos = (795,1060);
}
);
layerId = m003;
shapes = (
{
closed = 1;
nodes = (
(519,0,ls),
(536,0,o),
(548,9,o),
(553,25,cs),
(819,870,l),
(767,870,l),
(1053,24,ls),
(1058,8,o),
(1070,0,o),
(1087,0,cs),
(1197,0,ls),
(1214,0,o),
(1226,8,o),
(1231,25,cs),
(1534,1026,ls),
(1540,1046,o),
(1530,1060,o),
(1509,1060,cs),
(1363,1060,ls),
(1345,1060,o),
(1333,1052,o),
(1329,1034,cs),
(1116,186,l),
(1165,186,l),
(891,1035,ls),
(886,1052,o),
(874,1060,o),
(857,1060,cs),
(733,1060,ls),
(716,1060,o),
(704,1052,o),
(699,1035,cs),
(439,186,l),
(487,186,l),
(259,1034,ls),
(254,1052,o),
(242,1060,o),
(225,1060,cs),
(81,1060,ls),
(60,1060,o),
(50,1046,o),
(56,1026,cs),
(373,25,ls),
(378,9,o),
(390,0,o),
(407,0,cs)
);
}
);
width = 1590;
}
);
metricRight = "=|";
unicode = 119;
},
{
glyphname = x;
lastChange = "2025-12-04 14:19:30 +0000";
layers = (
{
anchors = (
{
name = bottom;
pos = (499,0);
},
{
name = top;
pos = (499,1060);
}
);
layerId = "1B8EDE0E-D46F-48F9-B9C6-2CD34FEA95FD";
shapes = (
{
closed = 1;
nodes = (
);
},
{
closed = 1;
nodes = (
(176,547,l),
(12,34,ls),
(5,14,o),
(16,0,o),
(37,0,cs),
(155,0,ls),
(172,0,o),
(183,8,o),
(188,26,cs),
(273,340,l),
(269,340,l),
(354,26,ls),
(359,8,o),
(370,0,o),
(387,0,cs),
(506,0,ls),
(527,0,o),
(537,14,o),
(531,34,cs),
(381,537,l),
(549,1026,ls),
(556,1046,o),
(547,1060,o),
(525,1060,cs),
(407,1060,ls),
(390,1060,o),
(379,1052,o),
(374,1035,cs),
(284,734,l),
(288,734,l),
(198,1035,ls),
(193,1052,o),
(182,1060,o),
(165,1060,cs),
(47,1060,ls),
(26,1060,o),
(15,1046,o),
(22,1026,cs)
);
}
);
width = 561;
},
{
anchors = (
{
name = bottom;
pos = (541,0);
},
{
name = top;
pos = (541,1060);
}
);
layerId = m003;
shapes = (
{
closed = 1;
nodes = (
(977,0,ls),
(1001,0,o),
(1010,15,o),
(996,36,cs),
(299,1041,ls),
(290,1055,o),
(279,1060,o),
(263,1060,cs),
(105,1060,ls),
(81,1060,o),
(72,1045,o),
(86,1024,cs),
(782,19,ls),
(791,5,o),
(802,0,o),
(818,0,cs)
);
},
{
closed = 1;
nodes = (
(603,451,l),
(1003,1024,ls),
(1017,1045,o),
(1008,1060,o),
(984,1060,cs),
(826,1060,ls),
(810,1060,o),
(799,1054,o),
(790,1041,cs),
(484,606,l)
);
},
{
closed = 1;
nodes = (
(257,0,ls),
(273,0,o),
(284,5,o),
(293,19,cs),
(574,430,l),
(450,576,l),
(79,36,ls),
(65,15,o),
(74,0,o),
(98,0,cs)
);
}
);
width = 1082;
}
);
metricRight = "=|";
unicode = 120;
},
{
glyphname = y;
lastChange = "2025-12-04 14:33:21 +0000";
layers = (
{
anchors = (
{
name = bottom;
pos = (524,0);
},
{
name = top;
pos = (524,1060);
}
);
layerId = "1B8EDE0E-D46F-48F9-B9C6-2CD34FEA95FD";
shapes = (
{
closed = 1;
nodes = (
(287,-53,l),
(396,0,ls),
(413,8,o),
(425,9,o),
(429,26,cs),
(670,1027,ls),
(675,1047,o),
(665,1060,o),
(644,1060,cs),
(506,1060,ls),
(488,1060,o),
(477,1051,o),
(473,1033,cs),
(277,98,l),
(389,98,l),
(225,1033,ls),
(222,1052,o),
(210,1060,o),
(192,1060,cs),
(54,1060,ls),
(33,1060,o),
(23,1047,o),
(28,1027,cs)
);
},
{
closed = 0;
nodes = (
(14,-1215,l)
);
},
{
closed = 1;
nodes = (
(303,74,l),
(246,143,l),
(147,-408,ls),
(143,-429,o),
(154,-440,o),
(174,-440,cs),
(310,-440,ls),
(328,-440,o),
(339,-431,o),
(343,-414,cs),
(670,1027,l),
(473,1033,l)
);
}
);
width = 698;
},
{
anchors = (
{
name = bottom;
pos = (524,0);
},
{
name = top;
pos = (524,1060);
}
);
background = {
shapes = (
{
closed = 1;
nodes = (
(309,0,l),
(412,0,l),
(691,733,l),
(546,733,l),
(332,95,l),
(388,95,l),
(175,733,l),
(30,733,l)
);
}
);
};
layerId = m003;
shapes = (
{
closed = 1;
nodes = (
(225,-448,l),
(381,-448,o),
(455,-371,o),
(509,-231,cs),
(990,1025,ls),
(998,1046,o),
(988,1060,o),
(966,1060,cs),
(821,1060,ls),
(804,1060,o),
(793,1052,o),
(787,1036,cs),
(481,145,l),
(561,145,l),
(262,1036,ls),
(257,1052,o),
(245,1060,o),
(228,1060,cs),
(81,1060,ls),
(59,1060,o),
(49,1046,o),
(57,1025,cs),
(465,-43,l),
(439,93,l),
(368,-116,ls),
(338,-207,o),
(286,-273,o),
(196,-273,c),
(82,-273,ls),
(63,-273,o),
(52,-284,o),
(52,-303,cs),
(52,-418,ls),
(52,-438,o),
(63,-448,o),
(82,-448,cs)
);
}
);
width = 1047;
}
);
metricRight = "=v";
unicode = 121;
},
{
glyphname = z;
lastChange = "2025-12-04 13:56:48 +0000";
layers = (
{
anchors = (
{
name = bottom;
pos = (430,0);
},
{
name = center;
pos = (430,530);
},
{
name = top;
pos = (430,1060);
}
);
layerId = "1B8EDE0E-D46F-48F9-B9C6-2CD34FEA95FD";
shapes = (
{
closed = 1;
nodes = (
(40,99,l),
(40,30,ls),
(40,11,o),
(51,0,o),
(70,0,cs),
(429,0,ls),
(448,0,o),
(459,11,o),
(459,30,cs),
(459,130,ls),
(459,150,o),
(448,160,o),
(429,160,cs),
(226,160,l),
(459,952,l),
(459,1030,ls),
(459,1050,o),
(448,1060,o),
(429,1060,cs),
(70,1060,ls),
(51,1060,o),
(40,1049,o),
(40,1030,cs),
(40,920,ls),
(40,901,o),
(51,890,o),
(70,890,cs),
(277,890,l)
);
}
);
width = 499;
},
{
anchors = (
{
name = bottom;
pos = (481,0);
},
{
name = center;
pos = (481,530);
},
{
name = top;
pos = (481,1060);
}
);
layerId = m003;
shapes = (
{
closed = 1;
nodes = (
(103,142,ls),
(95,130,o),
(91,119,o),
(91,105,cs),
(91,30,ls),
(91,11,o),
(102,0,o),
(121,0,cs),
(840,0,ls),
(859,0,o),
(870,11,o),
(870,30,cs),
(870,140,ls),
(870,160,o),
(859,170,o),
(840,170,cs),
(347,170,l),
(858,918,ls),
(866,930,o),
(870,941,o),
(870,955,cs),
(870,1030,ls),
(870,1050,o),
(859,1060,o),
(840,1060,cs),
(121,1060,ls),
(102,1060,o),
(91,1049,o),
(91,1030,cs),
(91,920,ls),
(91,901,o),
(102,890,o),
(121,890,cs),
(618,890,l)
);
}
);
width = 961;
}
);
metricRight = "=|";
unicode = 122;
},
{
glyphname = zero;
lastChange = "2025-12-03 10:06:44 +0000";
layers = (
{
layerId = "1B8EDE0E-D46F-48F9-B9C6-2CD34FEA95FD";
shapes = (
{
closed = 1;
nodes = (
(903,-43,o),
(1079,139,o),
(1079,454,cs),
(1079,1031,ls),
(1079,1347,o),
(903,1528,o),
(603,1528,cs),
(303,1528,o),
(128,1347,o),
(128,1031,cs),
(128,454,ls),
(128,139,o),
(303,-43,o),
(603,-43,cs)
);
},
{
closed = 1;
nodes = (
(409,135,o),
(332,235,o),
(332,487,cs),
(332,999,ls),
(332,1251,o),
(409,1351,o),
(603,1351,cs),
(798,1351,o),
(874,1251,o),
(874,999,cs),
(874,487,ls),
(874,235,o),
(798,135,o),
(603,135,cs)
);
}
);
width = 1207;
},
{
layerId = m003;
shapes = (
{
closed = 1;
nodes = (
(903,-43,o),
(1079,139,o),
(1079,454,cs),
(1079,1031,ls),
(1079,1347,o),
(903,1528,o),
(603,1528,cs),
(303,1528,o),
(128,1347,o),
(128,1031,cs),
(128,454,ls),
(128,139,o),
(303,-43,o),
(603,-43,cs)
);
},
{
closed = 1;
nodes = (
(409,135,o),
(332,235,o),
(332,487,cs),
(332,999,ls),
(332,1251,o),
(409,1351,o),
(603,1351,cs),
(798,1351,o),
(874,1251,o),
(874,999,cs),
(874,487,ls),
(874,235,o),
(798,135,o),
(603,135,cs)
);
}
);
width = 1207;
}
);
metricRight = "=|";
unicode = 48;
},
{
glyphname = one;
lastChange = "2025-12-03 10:06:44 +0000";
layers = (
{
layerId = "1B8EDE0E-D46F-48F9-B9C6-2CD34FEA95FD";
shapes = (
{
closed = 1;
nodes = (
(580,1485,l),
(378,1485,l),
(378,1451,l),
(378,1318,o),
(290,1293,o),
(181,1293,c),
(112,1293,l),
(112,1138,l),
(378,1138,l),
(378,0,l),
(580,0,l)
);
}
);
width = 730;
},
{
layerId = m003;
shapes = (
{
closed = 1;
nodes = (
(580,1485,l),
(378,1485,l),
(378,1451,l),
(378,1318,o),
(290,1293,o),
(181,1293,c),
(112,1293,l),
(112,1138,l),
(378,1138,l),
(378,0,l),
(580,0,l)
);
}
);
width = 730;
}
);
metricRight = "=H";
unicode = 49;
},
{
glyphname = two;
lastChange = "2025-12-03 10:06:44 +0000";
layers = (
{
layerId = "1B8EDE0E-D46F-48F9-B9C6-2CD34FEA95FD";
shapes = (
{
closed = 1;
nodes = (
(1019,0,l),
(1019,170,l),
(283,170,l),
(329,96,l),
(840,657,ls),
(973,802,o),
(1019,944,o),
(1019,1106,cs),
(1019,1335,o),
(864,1527,o),
(568,1527,cs),
(286,1527,o),
(123,1370,o),
(123,1038,c),
(323,1038,l),
(323,1260,o),
(415,1351,o),
(576,1351,cs),
(718,1351,o),
(821,1272,o),
(821,1109,cs),
(821,996,o),
(767,883,o),
(653,754,cs),
(87,128,l),
(87,0,l)
);
}
);
width = 1106;
},
{
layerId = m003;
shapes = (
{
closed = 1;
nodes = (
(1019,0,l),
(1019,170,l),
(283,170,l),
(329,96,l),
(840,657,ls),
(973,802,o),
(1019,944,o),
(1019,1106,cs),
(1019,1335,o),
(864,1527,o),
(568,1527,cs),
(286,1527,o),
(123,1370,o),
(123,1038,c),
(323,1038,l),
(323,1260,o),
(415,1351,o),
(576,1351,cs),
(718,1351,o),
(821,1272,o),
(821,1109,cs),
(821,996,o),
(767,883,o),
(653,754,cs),
(87,128,l),
(87,0,l)
);
}
);
width = 1106;
}
);
unicode = 50;
},
{
glyphname = three;
lastChange = "2025-12-03 10:06:44 +0000";
layers = (
{
layerId = "1B8EDE0E-D46F-48F9-B9C6-2CD34FEA95FD";
shapes = (
{
closed = 1;
nodes = (
(892,-43,o),
(1098,129,o),
(1098,399,cs),
(1098,631,o),
(950,853,o),
(610,853,c),
(610,697,l),
(773,697,o),
(890,590,o),
(890,399,cs),
(890,183,o),
(732,135,o),
(610,135,cs),
(464,135,o),
(344,183,o),
(344,399,cs),
(344,416,l),
(138,416,l),
(138,397,l),
(138,59,o),
(357,-43,o),
(610,-43,cs)
);
},
{
closed = 1;
nodes = (
(610,722,l),
(863,722,o),
(1041,874,o),
(1041,1117,cs),
(1041,1367,o),
(850,1528,o),
(610,1528,cs),
(354,1528,o),
(184,1369,o),
(184,1125,c),
(184,1108,l),
(389,1108,l),
(389,1125,ls),
(389,1302,o),
(484,1353,o),
(609,1353,cs),
(718,1353,o),
(834,1270,o),
(834,1117,cs),
(834,941,o),
(728,876,o),
(610,876,c)
);
},
{
closed = 1;
nodes = (
(521,697,l),
(610,697,l),
(610,876,l),
(521,876,l)
);
}
);
width = 1218;
},
{
layerId = m003;
shapes = (
{
closed = 1;
nodes = (
(892,-43,o),
(1098,129,o),
(1098,399,cs),
(1098,631,o),
(950,853,o),
(610,853,c),
(610,697,l),
(773,697,o),
(890,590,o),
(890,399,cs),
(890,183,o),
(732,135,o),
(610,135,cs),
(464,135,o),
(344,183,o),
(344,399,cs),
(344,416,l),
(138,416,l),
(138,397,l),
(138,59,o),
(357,-43,o),
(610,-43,cs)
);
},
{
closed = 1;
nodes = (
(610,722,l),
(863,722,o),
(1041,874,o),
(1041,1117,cs),
(1041,1367,o),
(850,1528,o),
(610,1528,cs),
(354,1528,o),
(184,1369,o),
(184,1125,c),
(184,1108,l),
(389,1108,l),
(389,1125,ls),
(389,1302,o),
(484,1353,o),
(609,1353,cs),
(718,1353,o),
(834,1270,o),
(834,1117,cs),
(834,941,o),
(728,876,o),
(610,876,c)
);
},
{
closed = 1;
nodes = (
(521,697,l),
(610,697,l),
(610,876,l),
(521,876,l)
);
}
);
width = 1218;
}
);
unicode = 51;
},
{
glyphname = four;
lastChange = "2025-12-03 10:06:44 +0000";
layers = (
{
layerId = "1B8EDE0E-D46F-48F9-B9C6-2CD34FEA95FD";
shapes = (
{
closed = 1;
nodes = (
(635,747,l),
(635,0,l),
(838,0,l),
(838,747,l)
);
},
{
closed = 1;
nodes = (
(68,258,l),
(1008,258,l),
(1008,432,l),
(310,432,l),
(829,1485,l),
(624,1485,l),
(68,389,l)
);
}
);
width = 1076;
},
{
layerId = m003;
shapes = (
{
closed = 1;
nodes = (
(635,747,l),
(635,0,l),
(838,0,l),
(838,747,l)
);
},
{
closed = 1;
nodes = (
(68,258,l),
(1008,258,l),
(1008,432,l),
(310,432,l),
(829,1485,l),
(624,1485,l),
(68,389,l)
);
}
);
width = 1076;
}
);
unicode = 52;
},
{
glyphname = five;
lastChange = "2025-12-03 10:06:44 +0000";
layers = (
{
layerId = "1B8EDE0E-D46F-48F9-B9C6-2CD34FEA95FD";
shapes = (
{
closed = 1;
nodes = (
(735,-43,o),
(995,91,o),
(995,393,cs),
(995,637,ls),
(995,937,o),
(741,1048,o),
(551,1048,cs),
(241,1048,o),
(152,790,o),
(116,699,c),
(309,699,l),
(309,822,o),
(416,873,o),
(551,873,cs),
(660,873,o),
(795,798,o),
(795,606,cs),
(795,421,ls),
(795,204,o),
(653,132,o),
(551,132,cs),
(410,132,o),
(307,183,o),
(307,421,cs),
(307,436,l),
(113,436,l),
(113,418,l),
(113,94,o),
(326,-43,o),
(551,-43,cs)
);
},
{
closed = 1;
nodes = (
(322,769,l),
(322,1311,l),
(938,1311,l),
(938,1485,l),
(120,1485,l),
(116,699,l)
);
}
);
width = 1106;
},
{
layerId = m003;
shapes = (
{
closed = 1;
nodes = (
(735,-43,o),
(995,91,o),
(995,393,cs),
(995,637,ls),
(995,937,o),
(741,1048,o),
(551,1048,cs),
(241,1048,o),
(152,790,o),
(116,699,c),
(309,699,l),
(309,822,o),
(416,873,o),
(551,873,cs),
(660,873,o),
(795,798,o),
(795,606,cs),
(795,421,ls),
(795,204,o),
(653,132,o),
(551,132,cs),
(410,132,o),
(307,183,o),
(307,421,cs),
(307,436,l),
(113,436,l),
(113,418,l),
(113,94,o),
(326,-43,o),
(551,-43,cs)
);
},
{
closed = 1;
nodes = (
(322,769,l),
(322,1311,l),
(938,1311,l),
(938,1485,l),
(120,1485,l),
(116,699,l)
);
}
);
width = 1106;
}
);
unicode = 53;
},
{
glyphname = six;
lastChange = "2025-12-03 10:06:44 +0000";
layers = (
{
background = {
shapes = (
{
closed = 0;
nodes = (
(619,340,ls),
(619,208,o),
(538,123,o),
(412,123,cs),
(283,123,o),
(205,205,o),
(205,340,cs)
);
}
);
};
layerId = "1B8EDE0E-D46F-48F9-B9C6-2CD34FEA95FD";
shapes = (
{
closed = 1;
nodes = (
(874,248,o),
(766,135,o),
(597,135,cs),
(426,135,o),
(320,241,o),
(320,423,cs),
(320,603,o),
(425,712,o),
(597,712,cs),
(766,712,o),
(874,599,o),
(874,423,cs)
);
},
{
closed = 1;
nodes = (
(870,-43,o),
(1076,128,o),
(1076,421,cs),
(1076,738,o),
(828,887,o),
(597,887,cs),
(432,887,o),
(354,819,o),
(252,693,c),
(436,786,l),
(892,1485,l),
(663,1485,l),
(329,973,ls),
(165,719,o),
(117,570,o),
(117,422,cs),
(117,74,o),
(335,-43,o),
(597,-43,cs)
);
}
);
width = 1195;
},
{
background = {
shapes = (
{
closed = 0;
nodes = (
(619,340,ls),
(619,208,o),
(538,123,o),
(412,123,cs),
(283,123,o),
(205,205,o),
(205,340,cs)
);
}
);
};
layerId = m003;
shapes = (
{
closed = 1;
nodes = (
(874,248,o),
(766,135,o),
(597,135,cs),
(426,135,o),
(320,241,o),
(320,423,cs),
(320,603,o),
(425,712,o),
(597,712,cs),
(766,712,o),
(874,599,o),
(874,423,cs)
);
},
{
closed = 1;
nodes = (
(870,-43,o),
(1076,128,o),
(1076,421,cs),
(1076,738,o),
(828,887,o),
(597,887,cs),
(432,887,o),
(354,819,o),
(252,693,c),
(436,786,l),
(892,1485,l),
(663,1485,l),
(329,973,ls),
(165,719,o),
(117,570,o),
(117,422,cs),
(117,74,o),
(335,-43,o),
(597,-43,cs)
);
}
);
width = 1195;
}
);
unicode = 54;
},
{
glyphname = seven;
lastChange = "2025-12-03 10:06:44 +0000";
layers = (
{
layerId = "1B8EDE0E-D46F-48F9-B9C6-2CD34FEA95FD";
shapes = (
{
closed = 1;
nodes = (
(465,0,l),
(992,1364,l),
(992,1485,l),
(68,1485,l),
(68,1311,l),
(880,1311,l),
(805,1414,l),
(258,0,l)
);
}
);
width = 1060;
},
{
layerId = m003;
shapes = (
{
closed = 1;
nodes = (
(465,0,l),
(992,1364,l),
(992,1485,l),
(68,1485,l),
(68,1311,l),
(880,1311,l),
(805,1414,l),
(258,0,l)
);
}
);
width = 1060;
}
);
unicode = 55;
},
{
glyphname = eight;
lastChange = "2025-12-03 10:06:44 +0000";
layers = (
{
layerId = "1B8EDE0E-D46F-48F9-B9C6-2CD34FEA95FD";
shapes = (
{
closed = 1;
nodes = (
(789,-43,o),
(1032,59,o),
(1032,374,cs),
(1032,454,ls),
(1032,712,o),
(767,867,o),
(573,867,cs),
(354,867,o),
(112,712,o),
(112,454,c),
(112,374,l),
(112,81,o),
(354,-43,o),
(573,-43,cs)
);
},
{
closed = 1;
nodes = (
(438,133,o),
(318,219,o),
(318,377,cs),
(318,452,ls),
(318,629,o),
(438,705,o),
(573,705,cs),
(683,705,o),
(827,629,o),
(827,452,cs),
(827,377,ls),
(827,196,o),
(683,133,o),
(573,133,cs)
);
},
{
closed = 1;
nodes = (
(744,705,o),
(986,812,o),
(986,1092,cs),
(986,1127,ls),
(986,1414,o),
(767,1528,o),
(573,1528,cs),
(354,1528,o),
(158,1414,o),
(158,1127,c),
(158,1092,l),
(158,812,o),
(377,705,o),
(573,705,cs)
);
},
{
closed = 1;
nodes = (
(438,867,o),
(363,943,o),
(363,1093,cs),
(363,1124,ls),
(363,1276,o),
(438,1350,o),
(573,1350,cs),
(683,1350,o),
(780,1276,o),
(780,1124,cs),
(780,1093,ls),
(780,943,o),
(683,867,o),
(573,867,cs)
);
}
);
width = 1144;
},
{
layerId = m003;
shapes = (
{
closed = 1;
nodes = (
(789,-43,o),
(1032,59,o),
(1032,374,cs),
(1032,454,ls),
(1032,712,o),
(767,867,o),
(573,867,cs),
(354,867,o),
(112,712,o),
(112,454,c),
(112,374,l),
(112,81,o),
(354,-43,o),
(573,-43,cs)
);
},
{
closed = 1;
nodes = (
(438,133,o),
(318,219,o),
(318,377,cs),
(318,452,ls),
(318,629,o),
(438,705,o),
(573,705,cs),
(683,705,o),
(827,629,o),
(827,452,cs),
(827,377,ls),
(827,196,o),
(683,133,o),
(573,133,cs)
);
},
{
closed = 1;
nodes = (
(744,705,o),
(986,812,o),
(986,1092,cs),
(986,1127,ls),
(986,1414,o),
(767,1528,o),
(573,1528,cs),
(354,1528,o),
(158,1414,o),
(158,1127,c),
(158,1092,l),
(158,812,o),
(377,705,o),
(573,705,cs)
);
},
{
closed = 1;
nodes = (
(438,867,o),
(363,943,o),
(363,1093,cs),
(363,1124,ls),
(363,1276,o),
(438,1350,o),
(573,1350,cs),
(683,1350,o),
(780,1276,o),
(780,1124,cs),
(780,1093,ls),
(780,943,o),
(683,867,o),
(573,867,cs)
);
}
);
width = 1144;
}
);
unicode = 56;
},
{
glyphname = nine;
lastChange = "2025-12-03 10:06:44 +0000";
layers = (
{
layerId = "1B8EDE0E-D46F-48F9-B9C6-2CD34FEA95FD";
shapes = (
{
closed = 1;
nodes = (
(322,1243,o),
(463,1329,o),
(596,1329,cs),
(739,1329,o),
(873,1257,o),
(873,1056,c),
(873,856,o),
(778,774,o),
(596,774,cs),
(426,774,o),
(323,854,o),
(322,1058,c)
);
},
{
closed = 1;
nodes = (
(375,1504,o),
(119,1373,o),
(119,1057,c),
(119,737,o),
(362,600,o),
(596,600,cs),
(763,600,o),
(840,667,o),
(943,793,c),
(757,700,l),
(303,0,l),
(531,0,l),
(863,513,ls),
(863,512,o),
(1074,785,o),
(1074,1060,cs),
(1074,1403,o),
(831,1504,o),
(596,1504,cs)
);
}
);
width = 1195;
},
{
layerId = m003;
shapes = (
{
closed = 1;
nodes = (
(322,1243,o),
(463,1329,o),
(596,1329,cs),
(739,1329,o),
(873,1257,o),
(873,1056,c),
(873,856,o),
(778,774,o),
(596,774,cs),
(426,774,o),
(323,854,o),
(322,1058,c)
);
},
{
closed = 1;
nodes = (
(375,1504,o),
(119,1373,o),
(119,1057,c),
(119,737,o),
(362,600,o),
(596,600,cs),
(763,600,o),
(840,667,o),
(943,793,c),
(757,700,l),
(303,0,l),
(531,0,l),
(863,513,ls),
(863,512,o),
(1074,785,o),
(1074,1060,cs),
(1074,1403,o),
(831,1504,o),
(596,1504,cs)
);
}
);
width = 1195;
}
);
unicode = 57;
},
{
glyphname = period;
lastChange = "2025-12-03 10:06:44 +0000";
layers = (
{
layerId = "1B8EDE0E-D46F-48F9-B9C6-2CD34FEA95FD";
shapes = (
{
closed = 1;
nodes = (
(262,-30,o),
(313,26,o),
(313,113,cs),
(313,196,o),
(262,249,o),
(173,249,cs),
(83,249,o),
(32,196,o),
(32,113,cs),
(32,26,o),
(83,-30,o),
(173,-30,cs)
);
}
);
width = 345;
},
{
layerId = m003;
shapes = (
{
closed = 1;
nodes = (
(262,-30,o),
(313,26,o),
(313,113,cs),
(313,196,o),
(262,249,o),
(173,249,cs),
(83,249,o),
(32,196,o),
(32,113,cs),
(32,26,o),
(83,-30,o),
(173,-30,cs)
);
}
);
width = 345;
}
);
metricRight = "=|";
unicode = 46;
},
{
glyphname = comma;
lastChange = "2025-12-03 10:06:44 +0000";
layers = (
{
layerId = "1B8EDE0E-D46F-48F9-B9C6-2CD34FEA95FD";
shapes = (
{
closed = 1;
nodes = (
(187,-262,ls),
(204,-262,o),
(215,-255,o),
(220,-237,cs),
(348,217,ls),
(354,237,o),
(344,251,o),
(323,251,cs),
(131,251,ls),
(113,251,o),
(102,243,o),
(99,224,cs),
(28,-230,ls),
(25,-251,o),
(36,-262,o),
(56,-262,cs)
);
}
);
width = 381;
},
{
layerId = m003;
shapes = (
{
closed = 1;
nodes = (
(187,-262,ls),
(204,-262,o),
(215,-255,o),
(220,-237,cs),
(348,217,ls),
(354,237,o),
(344,251,o),
(323,251,cs),
(131,251,ls),
(113,251,o),
(102,243,o),
(99,224,cs),
(28,-230,ls),
(25,-251,o),
(36,-262,o),
(56,-262,cs)
);
}
);
width = 381;
}
);
unicode = 44;
},
{
glyphname = colon;
lastChange = "2025-12-03 10:06:44 +0000";
layers = (
{
layerId = "1B8EDE0E-D46F-48F9-B9C6-2CD34FEA95FD";
shapes = (
{
closed = 1;
nodes = (
(265,-30,o),
(313,23,o),
(313,113,cs),
(313,199,o),
(265,249,o),
(173,249,cs),
(80,249,o),
(32,199,o),
(32,113,cs),
(32,23,o),
(80,-30,o),
(173,-30,cs)
);
},
{
closed = 1;
nodes = (
(265,738,o),
(313,790,o),
(313,880,cs),
(313,966,o),
(265,1016,o),
(173,1016,cs),
(80,1016,o),
(32,966,o),
(32,880,cs),
(32,790,o),
(80,738,o),
(173,738,cs)
);
}
);
width = 345;
},
{
layerId = m003;
shapes = (
{
closed = 1;
nodes = (
(265,-30,o),
(313,23,o),
(313,113,cs),
(313,199,o),
(265,249,o),
(173,249,cs),
(80,249,o),
(32,199,o),
(32,113,cs),
(32,23,o),
(80,-30,o),
(173,-30,cs)
);
},
{
closed = 1;
nodes = (
(265,738,o),
(313,790,o),
(313,880,cs),
(313,966,o),
(265,1016,o),
(173,1016,cs),
(80,1016,o),
(32,966,o),
(32,880,cs),
(32,790,o),
(80,738,o),
(173,738,cs)
);
}
);
width = 345;
}
);
metricRight = "=|";
unicode = 58;
},
{
glyphname = semicolon;
lastChange = "2025-12-03 10:06:44 +0000";
layers = (
{
layerId = "1B8EDE0E-D46F-48F9-B9C6-2CD34FEA95FD";
shapes = (
{
closed = 1;
nodes = (
(265,738,o),
(313,790,o),
(313,880,cs),
(313,966,o),
(265,1016,o),
(173,1016,cs),
(80,1016,o),
(32,966,o),
(32,880,cs),
(32,790,o),
(80,738,o),
(173,738,cs)
);
},
{
closed = 1;
nodes = (
(144,-262,ls),
(161,-262,o),
(172,-255,o),
(177,-237,cs),
(305,217,ls),
(311,237,o),
(301,251,o),
(280,251,cs),
(88,251,ls),
(70,251,o),
(59,243,o),
(56,224,cs),
(-15,-230,ls),
(-18,-251,o),
(-7,-262,o),
(13,-262,cs)
);
}
);
width = 298;
},
{
layerId = m003;
shapes = (
{
closed = 1;
nodes = (
(265,738,o),
(313,790,o),
(313,880,cs),
(313,966,o),
(265,1016,o),
(173,1016,cs),
(80,1016,o),
(32,966,o),
(32,880,cs),
(32,790,o),
(80,738,o),
(173,738,cs)
);
},
{
closed = 1;
nodes = (
(144,-262,ls),
(161,-262,o),
(172,-255,o),
(177,-237,cs),
(305,217,ls),
(311,237,o),
(301,251,o),
(280,251,cs),
(88,251,ls),
(70,251,o),
(59,243,o),
(56,224,cs),
(-15,-230,ls),
(-18,-251,o),
(-7,-262,o),
(13,-262,cs)
);
}
);
width = 298;
}
);
metricRight = "=|";
unicode = 59;
},
{
glyphname = exclam;
lastChange = "2025-12-03 10:06:44 +0000";
layers = (
{
layerId = "1B8EDE0E-D46F-48F9-B9C6-2CD34FEA95FD";
shapes = (
{
closed = 1;
nodes = (
(339,410,ls),
(358,410,o),
(368,419,o),
(369,439,cs),
(394,1124,l),
(394,1450,ls),
(394,1470,o),
(383,1480,o),
(364,1480,cs),
(190,1480,ls),
(171,1480,o),
(160,1469,o),
(160,1450,cs),
(160,1124,l),
(187,439,ls),
(188,419,o),
(198,410,o),
(217,410,cs)
);
},
{
pos = (105,5);
ref = period;
}
);
width = 555;
},
{
layerId = m003;
shapes = (
{
closed = 1;
nodes = (
(339,410,ls),
(358,410,o),
(368,419,o),
(369,439,cs),
(394,1124,l),
(394,1450,ls),
(394,1470,o),
(383,1480,o),
(364,1480,cs),
(190,1480,ls),
(171,1480,o),
(160,1469,o),
(160,1450,cs),
(160,1124,l),
(187,439,ls),
(188,419,o),
(198,410,o),
(217,410,cs)
);
},
{
pos = (105,5);
ref = period;
}
);
width = 555;
}
);
metricRight = "=|";
unicode = 33;
},
{
glyphname = question;
lastChange = "2025-12-03 10:06:44 +0000";
layers = (
{
layerId = "1B8EDE0E-D46F-48F9-B9C6-2CD34FEA95FD";
shapes = (
{
closed = 1;
nodes = (
(519,326,ls),
(538,326,o),
(549,336,o),
(549,356,cs),
(549,400,ls),
(549,524,o),
(686,625,o),
(740,673,cs),
(806,732,o),
(958,865,o),
(958,1048,cs),
(958,1298,o),
(798,1504,o),
(519,1504,cs),
(272,1504,o),
(81,1384,o),
(70,1051,cs),
(69,1031,o),
(80,1020,o),
(99,1020,cs),
(238,1020,ls),
(257,1020,o),
(268,1031,o),
(269,1050,cs),
(277,1236,o),
(367,1332,o),
(519,1332,cs),
(675,1332,o),
(765,1223,o),
(765,1042,cs),
(765,922,o),
(645,820,o),
(593,772,cs),
(538,721,o),
(365,599,o),
(365,443,cs),
(365,356,ls),
(365,337,o),
(376,326,o),
(395,326,cs)
);
},
{
pos = (293,0);
ref = period;
}
);
width = 1061;
},
{
layerId = m003;
shapes = (
{
closed = 1;
nodes = (
(519,326,ls),
(538,326,o),
(549,336,o),
(549,356,cs),
(549,400,ls),
(549,524,o),
(686,625,o),
(740,673,cs),
(806,732,o),
(958,865,o),
(958,1048,cs),
(958,1298,o),
(798,1504,o),
(519,1504,cs),
(272,1504,o),
(81,1384,o),
(70,1051,cs),
(69,1031,o),
(80,1020,o),
(99,1020,cs),
(238,1020,ls),
(257,1020,o),
(268,1031,o),
(269,1050,cs),
(277,1236,o),
(367,1332,o),
(519,1332,cs),
(675,1332,o),
(765,1223,o),
(765,1042,cs),
(765,922,o),
(645,820,o),
(593,772,cs),
(538,721,o),
(365,599,o),
(365,443,cs),
(365,356,ls),
(365,337,o),
(376,326,o),
(395,326,cs)
);
},
{
pos = (293,0);
ref = period;
}
);
width = 1061;
}
);
unicode = 63;
},
{
glyphname = bullet;
lastChange = "2025-12-03 10:06:44 +0000";
layers = (
{
layerId = "1B8EDE0E-D46F-48F9-B9C6-2CD34FEA95FD";
shapes = (
{
closed = 1;
nodes = (
(514,457,o),
(608,558,o),
(608,702,cs),
(608,848,o),
(514,949,o),
(367,949,cs),
(217,949,o),
(123,848,o),
(123,702,cs),
(123,558,o),
(217,457,o),
(367,457,cs)
);
}
);
width = 731;
},
{
layerId = m003;
shapes = (
{
closed = 1;
nodes = (
(514,457,o),
(608,558,o),
(608,702,cs),
(608,848,o),
(514,949,o),
(367,949,cs),
(217,949,o),
(123,848,o),
(123,702,cs),
(123,558,o),
(217,457,o),
(367,457,cs)
);
}
);
width = 731;
}
);
metricRight = "=|";
unicode = 8226;
},
{
glyphname = asterisk;
lastChange = "2025-12-03 10:06:44 +0000";
layers = (
{
layerId = "1B8EDE0E-D46F-48F9-B9C6-2CD34FEA95FD";
shapes = (
{
closed = 1;
nodes = (
(341,997,l),
(336,770,ls),
(336,750,o),
(347,740,o),
(366,740,cs),
(482,740,ls),
(501,740,o),
(512,751,o),
(512,770,cs),
(507,997,l),
(700,879,ls),
(717,869,o),
(731,873,o),
(741,890,cs),
(799,990,ls),
(809,1007,o),
(805,1022,o),
(788,1031,cs),
(588,1140,l),
(788,1249,ls),
(805,1258,o),
(809,1273,o),
(799,1290,cs),
(741,1390,ls),
(731,1407,o),
(717,1411,o),
(700,1401,cs),
(507,1283,l),
(512,1510,ls),
(512,1530,o),
(501,1540,o),
(482,1540,cs),
(366,1540,ls),
(347,1540,o),
(336,1530,o),
(336,1510,cs),
(341,1283,l),
(148,1401,ls),
(131,1411,o),
(117,1407,o),
(107,1390,cs),
(49,1290,ls),
(39,1273,o),
(43,1258,o),
(60,1249,cs),
(260,1140,l),
(60,1031,ls),
(43,1022,o),
(39,1007,o),
(49,990,cs),
(107,890,ls),
(117,873,o),
(131,869,o),
(148,879,cs)
);
}
);
width = 848;
},
{
layerId = m003;
shapes = (
{
closed = 1;
nodes = (
(341,997,l),
(336,770,ls),
(336,750,o),
(347,740,o),
(366,740,cs),
(482,740,ls),
(501,740,o),
(512,751,o),
(512,770,cs),
(507,997,l),
(700,879,ls),
(717,869,o),
(731,873,o),
(741,890,cs),
(799,990,ls),
(809,1007,o),
(805,1022,o),
(788,1031,cs),
(588,1140,l),
(788,1249,ls),
(805,1258,o),
(809,1273,o),
(799,1290,cs),
(741,1390,ls),
(731,1407,o),
(717,1411,o),
(700,1401,cs),
(507,1283,l),
(512,1510,ls),
(512,1530,o),
(501,1540,o),
(482,1540,cs),
(366,1540,ls),
(347,1540,o),
(336,1530,o),
(336,1510,cs),
(341,1283,l),
(148,1401,ls),
(131,1411,o),
(117,1407,o),
(107,1390,cs),
(49,1290,ls),
(39,1273,o),
(43,1258,o),
(60,1249,cs),
(260,1140,l),
(60,1031,ls),
(43,1022,o),
(39,1007,o),
(49,990,cs),
(107,890,ls),
(117,873,o),
(131,869,o),
(148,879,cs)
);
}
);
width = 848;
}
);
metricRight = "=|";
unicode = 42;
},
{
glyphname = numbersign;
lastChange = "2025-12-03 10:06:44 +0000";
layers = (
{
layerId = "1B8EDE0E-D46F-48F9-B9C6-2CD34FEA95FD";
shapes = (
{
closed = 1;
nodes = (
(229,33,ls),
(225,13,o),
(234,0,o),
(255,0,cs),
(399,0,ls),
(417,0,o),
(427,9,o),
(431,27,cs),
(716,1447,ls),
(720,1467,o),
(711,1480,o),
(690,1480,cs),
(544,1480,ls),
(526,1480,o),
(515,1471,o),
(512,1453,cs)
);
},
{
closed = 1;
nodes = (
(782,33,ls),
(778,13,o),
(787,0,o),
(808,0,cs),
(953,0,ls),
(971,0,o),
(982,9,o),
(985,27,cs),
(1269,1447,ls),
(1273,1467,o),
(1264,1480,o),
(1243,1480,cs),
(1098,1480,ls),
(1080,1480,o),
(1070,1471,o),
(1066,1453,cs)
);
},
{
closed = 1;
nodes = (
(165,968,ls),
(165,949,o),
(176,938,o),
(195,938,cs),
(1389,938,ls),
(1408,938,o),
(1419,949,o),
(1419,968,cs),
(1419,1084,ls),
(1419,1104,o),
(1408,1114,o),
(1389,1114,cs),
(195,1114,ls),
(176,1114,o),
(165,1103,o),
(165,1084,cs)
);
},
{
closed = 1;
nodes = (
(80,440,ls),
(80,421,o),
(91,410,o),
(110,410,cs),
(1304,410,ls),
(1323,410,o),
(1334,421,o),
(1334,440,cs),
(1334,552,ls),
(1334,572,o),
(1323,582,o),
(1304,582,cs),
(110,582,ls),
(91,582,o),
(80,572,o),
(80,552,cs)
);
}
);
width = 1489;
},
{
layerId = m003;
shapes = (
{
closed = 1;
nodes = (
(229,33,ls),
(225,13,o),
(234,0,o),
(255,0,cs),
(399,0,ls),
(417,0,o),
(427,9,o),
(431,27,cs),
(716,1447,ls),
(720,1467,o),
(711,1480,o),
(690,1480,cs),
(544,1480,ls),
(526,1480,o),
(515,1471,o),
(512,1453,cs)
);
},
{
closed = 1;
nodes = (
(782,33,ls),
(778,13,o),
(787,0,o),
(808,0,cs),
(953,0,ls),
(971,0,o),
(982,9,o),
(985,27,cs),
(1269,1447,ls),
(1273,1467,o),
(1264,1480,o),
(1243,1480,cs),
(1098,1480,ls),
(1080,1480,o),
(1070,1471,o),
(1066,1453,cs)
);
},
{
closed = 1;
nodes = (
(165,968,ls),
(165,949,o),
(176,938,o),
(195,938,cs),
(1389,938,ls),
(1408,938,o),
(1419,949,o),
(1419,968,cs),
(1419,1084,ls),
(1419,1104,o),
(1408,1114,o),
(1389,1114,cs),
(195,1114,ls),
(176,1114,o),
(165,1103,o),
(165,1084,cs)
);
},
{
closed = 1;
nodes = (
(80,440,ls),
(80,421,o),
(91,410,o),
(110,410,cs),
(1304,410,ls),
(1323,410,o),
(1334,421,o),
(1334,440,cs),
(1334,552,ls),
(1334,572,o),
(1323,582,o),
(1304,582,cs),
(110,582,ls),
(91,582,o),
(80,572,o),
(80,552,cs)
);
}
);
width = 1489;
}
);
unicode = 35;
},
{
glyphname = slash;
lastChange = "2025-12-03 10:06:44 +0000";
layers = (
{
layerId = "1B8EDE0E-D46F-48F9-B9C6-2CD34FEA95FD";
shapes = (
{
closed = 1;
nodes = (
(156,-440,ls),
(173,-440,o),
(185,-433,o),
(191,-416,cs),
(891,1506,ls),
(898,1527,o),
(889,1540,o),
(867,1540,cs),
(718,1540,ls),
(701,1540,o),
(689,1533,o),
(683,1516,cs),
(-17,-406,ls),
(-24,-427,o),
(-15,-440,o),
(7,-440,cs)
);
}
);
width = 924;
},
{
layerId = m003;
shapes = (
{
closed = 1;
nodes = (
(156,-440,ls),
(173,-440,o),
(185,-433,o),
(191,-416,cs),
(891,1506,ls),
(898,1527,o),
(889,1540,o),
(867,1540,cs),
(718,1540,ls),
(701,1540,o),
(689,1533,o),
(683,1516,cs),
(-17,-406,ls),
(-24,-427,o),
(-15,-440,o),
(7,-440,cs)
);
}
);
width = 924;
}
);
unicode = 47;
},
{
glyphname = backslash;
lastChange = "2025-12-03 10:06:44 +0000";
layers = (
{
layerId = "1B8EDE0E-D46F-48F9-B9C6-2CD34FEA95FD";
shapes = (
{
closed = 1;
nodes = (
(953,-60,ls),
(976,-60,o),
(985,-46,o),
(975,-25,cs),
(244,1518,ls),
(237,1534,o),
(225,1540,o),
(208,1540,cs),
(72,1540,ls),
(49,1540,o),
(40,1526,o),
(50,1505,cs),
(781,-38,ls),
(788,-54,o),
(800,-60,o),
(817,-60,cs)
);
}
);
width = 1025;
},
{
layerId = m003;
shapes = (
{
closed = 1;
nodes = (
(953,-60,ls),
(976,-60,o),
(985,-46,o),
(975,-25,cs),
(244,1518,ls),
(237,1534,o),
(225,1540,o),
(208,1540,cs),
(72,1540,ls),
(49,1540,o),
(40,1526,o),
(50,1505,cs),
(781,-38,ls),
(788,-54,o),
(800,-60,o),
(817,-60,cs)
);
}
);
width = 1025;
}
);
metricRight = "=|";
unicode = 92;
},
{
glyphname = hyphen;
lastChange = "2025-12-03 10:06:44 +0000";
layers = (
{
layerId = "1B8EDE0E-D46F-48F9-B9C6-2CD34FEA95FD";
shapes = (
{
closed = 1;
nodes = (
(100,510,ls),
(100,491,o),
(111,480,o),
(130,480,cs),
(852,480,ls),
(871,480,o),
(882,491,o),
(882,510,cs),
(882,628,ls),
(882,648,o),
(871,658,o),
(852,658,cs),
(130,658,ls),
(111,658,o),
(100,648,o),
(100,628,cs)
);
}
);
width = 982;
},
{
layerId = m003;
shapes = (
{
closed = 1;
nodes = (
(100,510,ls),
(100,491,o),
(111,480,o),
(130,480,cs),
(852,480,ls),
(871,480,o),
(882,491,o),
(882,510,cs),
(882,628,ls),
(882,648,o),
(871,658,o),
(852,658,cs),
(130,658,ls),
(111,658,o),
(100,648,o),
(100,628,cs)
);
}
);
width = 982;
}
);
unicode = 45;
},
{
glyphname = endash;
lastChange = "2025-12-03 10:06:44 +0000";
layers = (
{
layerId = "1B8EDE0E-D46F-48F9-B9C6-2CD34FEA95FD";
shapes = (
{
closed = 1;
nodes = (
(100,606,ls),
(100,587,o),
(111,576,o),
(130,576,cs),
(1137,576,ls),
(1156,576,o),
(1167,587,o),
(1167,606,cs),
(1167,721,ls),
(1167,741,o),
(1156,751,o),
(1137,751,cs),
(130,751,ls),
(111,751,o),
(100,740,o),
(100,721,cs)
);
}
);
width = 1267;
},
{
layerId = m003;
shapes = (
{
closed = 1;
nodes = (
(100,606,ls),
(100,587,o),
(111,576,o),
(130,576,cs),
(1137,576,ls),
(1156,576,o),
(1167,587,o),
(1167,606,cs),
(1167,721,ls),
(1167,741,o),
(1156,751,o),
(1137,751,cs),
(130,751,ls),
(111,751,o),
(100,740,o),
(100,721,cs)
);
}
);
width = 1267;
}
);
unicode = 8211;
},
{
glyphname = emdash;
lastChange = "2025-12-03 10:06:44 +0000";
layers = (
{
layerId = "1B8EDE0E-D46F-48F9-B9C6-2CD34FEA95FD";
shapes = (
{
closed = 1;
nodes = (
(100,658,ls),
(100,639,o),
(111,628,o),
(130,628,cs),
(1832,628,ls),
(1851,628,o),
(1862,639,o),
(1862,658,cs),
(1862,779,ls),
(1862,799,o),
(1851,809,o),
(1832,809,cs),
(130,809,ls),
(111,809,o),
(100,799,o),
(100,779,cs)
);
}
);
width = 1962;
},
{
layerId = m003;
shapes = (
{
closed = 1;
nodes = (
(100,658,ls),
(100,639,o),
(111,628,o),
(130,628,cs),
(1832,628,ls),
(1851,628,o),
(1862,639,o),
(1862,658,cs),
(1862,779,ls),
(1862,799,o),
(1851,809,o),
(1832,809,cs),
(130,809,ls),
(111,809,o),
(100,799,o),
(100,779,cs)
);
}
);
width = 1962;
}
);
unicode = 8212;
},
{
glyphname = underscore;
lastChange = "2025-12-03 10:06:44 +0000";
layers = (
{
layerId = "1B8EDE0E-D46F-48F9-B9C6-2CD34FEA95FD";
shapes = (
{
closed = 1;
nodes = (
(100,-221,ls),
(100,-241,o),
(111,-251,o),
(130,-251,cs),
(1139,-251,ls),
(1158,-251,o),
(1169,-240,o),
(1169,-221,cs),
(1169,-101,ls),
(1169,-82,o),
(1158,-71,o),
(1139,-71,cs),
(130,-71,ls),
(111,-71,o),
(100,-82,o),
(100,-101,cs)
);
}
);
width = 1269;
},
{
layerId = m003;
shapes = (
{
closed = 1;
nodes = (
(100,-221,ls),
(100,-241,o),
(111,-251,o),
(130,-251,cs),
(1139,-251,ls),
(1158,-251,o),
(1169,-240,o),
(1169,-221,cs),
(1169,-101,ls),
(1169,-82,o),
(1158,-71,o),
(1139,-71,cs),
(130,-71,ls),
(111,-71,o),
(100,-82,o),
(100,-101,cs)
);
}
);
width = 1269;
}
);
unicode = 95;
},
{
glyphname = parenleft;
lastChange = "2025-12-03 10:06:44 +0000";
layers = (
{
layerId = "1B8EDE0E-D46F-48F9-B9C6-2CD34FEA95FD";
shapes = (
{
closed = 1;
nodes = (
(100,114,o),
(283,-217,o),
(435,-442,cs),
(442,-452,o),
(454,-452,o),
(470,-441,cs),
(588,-363,ls),
(604,-352,o),
(607,-339,o),
(597,-322,cs),
(465,-121,o),
(312,163,o),
(312,579,cs),
(312,992,o),
(465,1276,o),
(597,1479,cs),
(607,1495,o),
(604,1509,o),
(588,1520,cs),
(470,1596,ls),
(453,1607,o),
(439,1604,o),
(429,1588,cs),
(278,1362,o),
(100,1034,o),
(100,579,cs)
);
}
);
width = 703;
},
{
layerId = m003;
shapes = (
{
closed = 1;
nodes = (
(100,114,o),
(283,-217,o),
(435,-442,cs),
(442,-452,o),
(454,-452,o),
(470,-441,cs),
(588,-363,ls),
(604,-352,o),
(607,-339,o),
(597,-322,cs),
(465,-121,o),
(312,163,o),
(312,579,cs),
(312,992,o),
(465,1276,o),
(597,1479,cs),
(607,1495,o),
(604,1509,o),
(588,1520,cs),
(470,1596,ls),
(453,1607,o),
(439,1604,o),
(429,1588,cs),
(278,1362,o),
(100,1034,o),
(100,579,cs)
);
}
);
width = 703;
}
);
unicode = 40;
},
{
glyphname = parenright;
lastChange = "2025-12-03 10:06:44 +0000";
layers = (
{
layerId = "1B8EDE0E-D46F-48F9-B9C6-2CD34FEA95FD";
shapes = (
{
closed = 1;
nodes = (
(603,1041,o),
(420,1372,o),
(268,1597,cs),
(261,1607,o),
(250,1607,o),
(233,1596,cs),
(115,1520,ls),
(99,1509,o),
(96,1495,o),
(106,1479,cs),
(238,1276,o),
(392,992,o),
(392,579,cs),
(392,163,o),
(238,-121,o),
(106,-322,cs),
(96,-339,o),
(99,-352,o),
(115,-363,cs),
(233,-441,ls),
(249,-452,o),
(264,-449,o),
(274,-433,cs),
(425,-207,o),
(603,121,o),
(603,579,cs)
);
}
);
width = 703;
},
{
layerId = m003;
shapes = (
{
closed = 1;
nodes = (
(603,1041,o),
(420,1372,o),
(268,1597,cs),
(261,1607,o),
(250,1607,o),
(233,1596,cs),
(115,1520,ls),
(99,1509,o),
(96,1495,o),
(106,1479,cs),
(238,1276,o),
(392,992,o),
(392,579,cs),
(392,163,o),
(238,-121,o),
(106,-322,cs),
(96,-339,o),
(99,-352,o),
(115,-363,cs),
(233,-441,ls),
(249,-452,o),
(264,-449,o),
(274,-433,cs),
(425,-207,o),
(603,121,o),
(603,579,cs)
);
}
);
width = 703;
}
);
unicode = 41;
},
{
glyphname = braceleft;
lastChange = "2025-12-03 10:06:44 +0000";
layers = (
{
layerId = "1B8EDE0E-D46F-48F9-B9C6-2CD34FEA95FD";
shapes = (
{
closed = 1;
nodes = (
(356,676,o),
(450,743,o),
(450,927,cs),
(450,1561,ls),
(450,1640,o),
(476,1666,o),
(550,1666,cs),
(636,1666,ls),
(655,1666,o),
(666,1677,o),
(666,1696,cs),
(666,1810,ls),
(666,1830,o),
(655,1840,o),
(636,1840,cs),
(498,1840,ls),
(340,1840,o),
(246,1774,o),
(246,1590,cs),
(246,955,ls),
(246,877,o),
(220,850,o),
(146,850,cs),
(60,850,ls),
(41,850,o),
(30,840,o),
(30,820,cs),
(30,706,ls),
(30,686,o),
(41,676,o),
(60,676,cs),
(198,676,ls)
);
},
{
closed = 1;
nodes = (
(60,850,ls),
(41,850,o),
(30,840,o),
(30,820,cs),
(30,706,ls),
(30,686,o),
(41,676,o),
(60,676,cs),
(146,676,ls),
(220,676,o),
(246,649,o),
(246,571,cs),
(246,-64,ls),
(246,-248,o),
(340,-314,o),
(498,-314,cs),
(636,-314,ls),
(655,-314,o),
(666,-304,o),
(666,-284,cs),
(666,-170,ls),
(666,-151,o),
(655,-140,o),
(636,-140,cs),
(550,-140,ls),
(476,-140,o),
(450,-114,o),
(450,-35,cs),
(450,599,ls),
(450,783,o),
(356,850,o),
(198,850,cs)
);
}
);
width = 686;
},
{
layerId = m003;
shapes = (
{
closed = 1;
nodes = (
(356,676,o),
(450,743,o),
(450,927,cs),
(450,1561,ls),
(450,1640,o),
(476,1666,o),
(550,1666,cs),
(636,1666,ls),
(655,1666,o),
(666,1677,o),
(666,1696,cs),
(666,1810,ls),
(666,1830,o),
(655,1840,o),
(636,1840,cs),
(498,1840,ls),
(340,1840,o),
(246,1774,o),
(246,1590,cs),
(246,955,ls),
(246,877,o),
(220,850,o),
(146,850,cs),
(60,850,ls),
(41,850,o),
(30,840,o),
(30,820,cs),
(30,706,ls),
(30,686,o),
(41,676,o),
(60,676,cs),
(198,676,ls)
);
},
{
closed = 1;
nodes = (
(60,850,ls),
(41,850,o),
(30,840,o),
(30,820,cs),
(30,706,ls),
(30,686,o),
(41,676,o),
(60,676,cs),
(146,676,ls),
(220,676,o),
(246,649,o),
(246,571,cs),
(246,-64,ls),
(246,-248,o),
(340,-314,o),
(498,-314,cs),
(636,-314,ls),
(655,-314,o),
(666,-304,o),
(666,-284,cs),
(666,-170,ls),
(666,-151,o),
(655,-140,o),
(636,-140,cs),
(550,-140,ls),
(476,-140,o),
(450,-114,o),
(450,-35,cs),
(450,599,ls),
(450,783,o),
(356,850,o),
(198,850,cs)
);
}
);
width = 686;
}
);
metricRight = "=bracketleft";
unicode = 123;
},
{
glyphname = bracketleft;
lastChange = "2025-12-03 10:06:44 +0000";
layers = (
{
layerId = "1B8EDE0E-D46F-48F9-B9C6-2CD34FEA95FD";
shapes = (
{
closed = 1;
nodes = (
(540,-285,ls),
(559,-285,o),
(570,-275,o),
(570,-255,cs),
(570,-141,ls),
(570,-121,o),
(559,-111,o),
(540,-111,cs),
(454,-111,ls),
(380,-111,o),
(354,-84,o),
(354,-6,cs),
(354,1561,ls),
(354,1640,o),
(380,1666,o),
(454,1666,cs),
(540,1666,ls),
(559,1666,o),
(570,1677,o),
(570,1696,cs),
(570,1810,ls),
(570,1830,o),
(559,1840,o),
(540,1840,cs),
(402,1840,ls),
(244,1840,o),
(150,1774,o),
(150,1590,cs),
(150,-34,ls),
(150,-218,o),
(244,-285,o),
(402,-285,cs)
);
}
);
width = 590;
},
{
layerId = m003;
shapes = (
{
closed = 1;
nodes = (
(540,-285,ls),
(559,-285,o),
(570,-275,o),
(570,-255,cs),
(570,-141,ls),
(570,-121,o),
(559,-111,o),
(540,-111,cs),
(454,-111,ls),
(380,-111,o),
(354,-84,o),
(354,-6,cs),
(354,1561,ls),
(354,1640,o),
(380,1666,o),
(454,1666,cs),
(540,1666,ls),
(559,1666,o),
(570,1677,o),
(570,1696,cs),
(570,1810,ls),
(570,1830,o),
(559,1840,o),
(540,1840,cs),
(402,1840,ls),
(244,1840,o),
(150,1774,o),
(150,1590,cs),
(150,-34,ls),
(150,-218,o),
(244,-285,o),
(402,-285,cs)
);
}
);
width = 590;
}
);
metricLeft = "=H";
unicode = 91;
},
{
glyphname = quotesinglbase;
lastChange = "2025-12-03 10:06:44 +0000";
layers = (
{
layerId = "1B8EDE0E-D46F-48F9-B9C6-2CD34FEA95FD";
shapes = (
{
closed = 1;
nodes = (
(259,-262,ls),
(276,-262,o),
(287,-255,o),
(292,-237,cs),
(420,217,ls),
(426,237,o),
(416,251,o),
(395,251,cs),
(203,251,ls),
(185,251,o),
(174,243,o),
(171,224,cs),
(100,-230,ls),
(97,-251,o),
(108,-262,o),
(128,-262,cs)
);
}
);
width = 522;
},
{
layerId = m003;
shapes = (
{
closed = 1;
nodes = (
(259,-262,ls),
(276,-262,o),
(287,-255,o),
(292,-237,cs),
(420,217,ls),
(426,237,o),
(416,251,o),
(395,251,cs),
(203,251,ls),
(185,251,o),
(174,243,o),
(171,224,cs),
(100,-230,ls),
(97,-251,o),
(108,-262,o),
(128,-262,cs)
);
}
);
width = 522;
}
);
unicode = 8218;
},
{
glyphname = quoteleft;
lastChange = "2025-12-03 10:06:44 +0000";
layers = (
{
layerId = "1B8EDE0E-D46F-48F9-B9C6-2CD34FEA95FD";
shapes = (
{
closed = 1;
nodes = (
(365,1633,l),
(100,1633,l),
(281,1219,l),
(461,1219,l)
);
}
);
width = 561;
},
{
layerId = m003;
shapes = (
{
closed = 1;
nodes = (
(365,1633,l),
(100,1633,l),
(281,1219,l),
(461,1219,l)
);
}
);
width = 561;
}
);
unicode = 8216;
},
{
glyphname = quoteright;
lastChange = "2025-12-03 10:06:44 +0000";
layers = (
{
layerId = "1B8EDE0E-D46F-48F9-B9C6-2CD34FEA95FD";
shapes = (
{
closed = 1;
nodes = (
(277,1219,l),
(458,1633,l),
(196,1633,l),
(100,1219,l)
);
}
);
width = 558;
},
{
layerId = m003;
shapes = (
{
closed = 1;
nodes = (
(277,1219,l),
(458,1633,l),
(196,1633,l),
(100,1219,l)
);
}
);
width = 558;
}
);
unicode = 8217;
},
{
glyphname = guillemetleft;
lastChange = "2025-12-03 10:06:44 +0000";
layers = (
{
layerId = "1B8EDE0E-D46F-48F9-B9C6-2CD34FEA95FD";
shapes = (
{
closed = 1;
nodes = (
(289,767,l),
(100,428,l),
(289,88,l),
(463,88,l),
(280,423,l),
(460,767,l)
);
},
{
closed = 1;
nodes = (
(638,767,l),
(450,428,l),
(638,88,l),
(812,88,l),
(630,423,l),
(809,767,l)
);
}
);
width = 912;
},
{
layerId = m003;
shapes = (
{
closed = 1;
nodes = (
(289,767,l),
(100,428,l),
(289,88,l),
(463,88,l),
(280,423,l),
(460,767,l)
);
},
{
closed = 1;
nodes = (
(638,767,l),
(450,428,l),
(638,88,l),
(812,88,l),
(630,423,l),
(809,767,l)
);
}
);
width = 912;
}
);
unicode = 171;
},
{
glyphname = guillemetright;
lastChange = "2025-12-03 10:06:44 +0000";
layers = (
{
layerId = "1B8EDE0E-D46F-48F9-B9C6-2CD34FEA95FD";
shapes = (
{
closed = 1;
nodes = (
(633,423,l),
(450,88,l),
(622,88,l),
(812,428,l),
(622,767,l),
(451,767,l)
);
},
{
closed = 1;
nodes = (
(283,423,l),
(100,88,l),
(273,88,l),
(463,428,l),
(273,767,l),
(102,767,l)
);
}
);
width = 912;
},
{
layerId = m003;
shapes = (
{
closed = 1;
nodes = (
(633,423,l),
(450,88,l),
(622,88,l),
(812,428,l),
(622,767,l),
(451,767,l)
);
},
{
closed = 1;
nodes = (
(283,423,l),
(100,88,l),
(273,88,l),
(463,428,l),
(273,767,l),
(102,767,l)
);
}
);
width = 912;
}
);
unicode = 187;
},
{
glyphname = guilsinglleft;
lastChange = "2025-12-03 10:06:44 +0000";
layers = (
{
layerId = "1B8EDE0E-D46F-48F9-B9C6-2CD34FEA95FD";
shapes = (
{
closed = 1;
nodes = (
(289,767,l),
(100,428,l),
(289,88,l),
(463,88,l),
(280,423,l),
(460,767,l)
);
}
);
width = 563;
},
{
layerId = m003;
shapes = (
{
closed = 1;
nodes = (
(289,767,l),
(100,428,l),
(289,88,l),
(463,88,l),
(280,423,l),
(460,767,l)
);
}
);
width = 563;
}
);
unicode = 8249;
},
{
glyphname = guilsinglright;
lastChange = "2025-12-03 10:06:44 +0000";
layers = (
{
layerId = "1B8EDE0E-D46F-48F9-B9C6-2CD34FEA95FD";
shapes = (
{
closed = 1;
nodes = (
(283,423,l),
(100,88,l),
(273,88,l),
(463,428,l),
(273,767,l),
(102,767,l)
);
}
);
width = 563;
},
{
layerId = m003;
shapes = (
{
closed = 1;
nodes = (
(283,423,l),
(100,88,l),
(273,88,l),
(463,428,l),
(273,767,l),
(102,767,l)
);
}
);
width = 563;
}
);
unicode = 8250;
},
{
glyphname = quotedbl;
lastChange = "2025-12-03 10:06:44 +0000";
layers = (
{
layerId = "1B8EDE0E-D46F-48F9-B9C6-2CD34FEA95FD";
shapes = (
{
closed = 1;
nodes = (
(278,542,l),
(306,1011,l),
(100,1011,l),
(127,542,l)
);
},
{
closed = 1;
nodes = (
(588,542,l),
(616,1011,l),
(413,1011,l),
(439,542,l)
);
}
);
width = 716;
},
{
layerId = m003;
shapes = (
{
closed = 1;
nodes = (
(278,542,l),
(306,1011,l),
(100,1011,l),
(127,542,l)
);
},
{
closed = 1;
nodes = (
(588,542,l),
(616,1011,l),
(413,1011,l),
(439,542,l)
);
}
);
width = 716;
}
);
unicode = 34;
},
{
glyphname = quotesingle;
lastChange = "2025-12-03 10:06:44 +0000";
layers = (
{
layerId = "1B8EDE0E-D46F-48F9-B9C6-2CD34FEA95FD";
shapes = (
{
closed = 1;
nodes = (
(278,1108,l),
(316,1485,l),
(100,1485,l),
(139,1108,l)
);
}
);
width = 416;
},
{
layerId = m003;
shapes = (
{
closed = 1;
nodes = (
(278,1108,l),
(316,1485,l),
(100,1485,l),
(139,1108,l)
);
}
);
width = 416;
}
);
unicode = 39;
},
{
glyphname = at;
lastChange = "2025-12-03 10:06:44 +0000";
layers = (
{
layerId = "1B8EDE0E-D46F-48F9-B9C6-2CD34FEA95FD";
shapes = (
{
closed = 1;
nodes = (
(1402,291,o),
(1327,239,o),
(1263,239,cs),
(1187,239,o),
(1110,299,o),
(1124,402,cs),
(1213,1093,l),
(1090,1093,l),
(1067,1035,l),
(1009,1098,o),
(936,1114,o),
(861,1114,cs),
(675,1114,o),
(509,1041,o),
(468,700,cs),
(429,376,o),
(555,293,o),
(758,293,cs),
(857,293,o),
(939,320,o),
(1000,399,c),
(1003,399,l),
(987,233,o),
(1096,141,o),
(1250,141,cs),
(1360,141,o),
(1515,225,o),
(1580,396,cs),
(1618,487,o),
(1638,590,o),
(1638,705,cs),
(1638,1176,o),
(1348,1472,o),
(870,1472,cs),
(393,1472,o),
(100,1176,o),
(100,705,cs),
(100,232,o),
(393,-65,o),
(964,-65,c),
(964,29,l),
(461,29,o),
(213,296,o),
(213,705,cs),
(213,1114,o),
(461,1363,o),
(870,1363,cs),
(1279,1363,o),
(1527,1106,o),
(1527,705,cs),
(1527,589,o),
(1501,479,o),
(1456,392,cs)
);
},
{
closed = 1;
nodes = (
(674,423,o),
(591,463,o),
(623,700,cs),
(655,950,o),
(745,986,o),
(861,986,cs),
(971,986,o),
(1058,958,o),
(1023,700,cs),
(996,493,o),
(900,423,o),
(793,423,cs)
);
}
);
width = 1738;
},
{
layerId = m003;
shapes = (
{
closed = 1;
nodes = (
(1402,291,o),
(1327,239,o),
(1263,239,cs),
(1187,239,o),
(1110,299,o),
(1124,402,cs),
(1213,1093,l),
(1090,1093,l),
(1067,1035,l),
(1009,1098,o),
(936,1114,o),
(861,1114,cs),
(675,1114,o),
(509,1041,o),
(468,700,cs),
(429,376,o),
(555,293,o),
(758,293,cs),
(857,293,o),
(939,320,o),
(1000,399,c),
(1003,399,l),
(987,233,o),
(1096,141,o),
(1250,141,cs),
(1360,141,o),
(1515,225,o),
(1580,396,cs),
(1618,487,o),
(1638,590,o),
(1638,705,cs),
(1638,1176,o),
(1348,1472,o),
(870,1472,cs),
(393,1472,o),
(100,1176,o),
(100,705,cs),
(100,232,o),
(393,-65,o),
(964,-65,c),
(964,29,l),
(461,29,o),
(213,296,o),
(213,705,cs),
(213,1114,o),
(461,1363,o),
(870,1363,cs),
(1279,1363,o),
(1527,1106,o),
(1527,705,cs),
(1527,589,o),
(1501,479,o),
(1456,392,cs)
);
},
{
closed = 1;
nodes = (
(674,423,o),
(591,463,o),
(623,700,cs),
(655,950,o),
(745,986,o),
(861,986,cs),
(971,986,o),
(1058,958,o),
(1023,700,cs),
(996,493,o),
(900,423,o),
(793,423,cs)
);
}
);
width = 1738;
}
);
unicode = 64;
},
{
glyphname = ampersand;
lastChange = "2025-12-03 10:06:44 +0000";
layers = (
{
layerId = "1B8EDE0E-D46F-48F9-B9C6-2CD34FEA95FD";
shapes = (
{
closed = 1;
nodes = (
(914,-35,o),
(1076,119,o),
(1076,442,cs),
(1076,728,l),
(1241,728,l),
(1241,900,l),
(602,900,ls),
(442,900,o),
(357,992,o),
(357,1112,cs),
(357,1241,o),
(426,1347,o),
(602,1347,cs),
(774,1347,o),
(843,1241,o),
(843,1112,c),
(1046,1112,l),
(1046,1378,o),
(867,1520,o),
(602,1520,cs),
(334,1520,o),
(154,1372,o),
(154,1122,cs),
(154,992,o),
(203,890,o),
(295,824,c),
(168,748,o),
(100,621,o),
(100,429,cs),
(100,110,o),
(295,-35,o),
(602,-35,cs)
);
},
{
closed = 1;
nodes = (
(405,138,o),
(303,248,o),
(303,436,cs),
(303,622,o),
(384,728,o),
(599,728,cs),
(873,728,l),
(873,442,ls),
(873,248,o),
(774,138,o),
(602,138,cs)
);
}
);
width = 1341;
},
{
layerId = m003;
shapes = (
{
closed = 1;
nodes = (
(914,-35,o),
(1076,119,o),
(1076,442,cs),
(1076,728,l),
(1241,728,l),
(1241,900,l),
(602,900,ls),
(442,900,o),
(357,992,o),
(357,1112,cs),
(357,1241,o),
(426,1347,o),
(602,1347,cs),
(774,1347,o),
(843,1241,o),
(843,1112,c),
(1046,1112,l),
(1046,1378,o),
(867,1520,o),
(602,1520,cs),
(334,1520,o),
(154,1372,o),
(154,1122,cs),
(154,992,o),
(203,890,o),
(295,824,c),
(168,748,o),
(100,621,o),
(100,429,cs),
(100,110,o),
(295,-35,o),
(602,-35,cs)
);
},
{
closed = 1;
nodes = (
(405,138,o),
(303,248,o),
(303,436,cs),
(303,622,o),
(384,728,o),
(599,728,cs),
(873,728,l),
(873,442,ls),
(873,248,o),
(774,138,o),
(602,138,cs)
);
}
);
width = 1341;
}
);
unicode = 38;
},
{
glyphname = copyright;
lastChange = "2025-12-03 10:06:44 +0000";
layers = (
{
layerId = "1B8EDE0E-D46F-48F9-B9C6-2CD34FEA95FD";
shapes = (
{
closed = 1;
nodes = (
(1295,-13,o),
(1638,331,o),
(1638,757,cs),
(1638,1182,o),
(1295,1525,o),
(870,1525,cs),
(443,1525,o),
(100,1182,o),
(100,757,cs),
(100,331,o),
(443,-13,o),
(870,-13,cs)
);
},
{
closed = 1;
nodes = (
(516,120,o),
(233,403,o),
(233,757,cs),
(233,1109,o),
(516,1392,o),
(870,1392,cs),
(1222,1392,o),
(1505,1109,o),
(1505,757,cs),
(1505,403,o),
(1222,120,o),
(870,120,cs)
);
},
{
closed = 1;
nodes = (
(1031,316,o),
(1215,378,o),
(1218,609,c),
(1064,609,l),
(1063,490,o),
(983,458,o),
(870,458,cs),
(741,458,o),
(658,547,o),
(658,755,cs),
(658,967,o),
(741,1053,o),
(870,1053,cs),
(983,1053,o),
(1063,1003,o),
(1064,902,c),
(1218,902,l),
(1215,1118,o),
(1031,1196,o),
(870,1196,cs),
(649,1189,o),
(487,1069,o),
(487,755,cs),
(487,444,o),
(651,316,o),
(870,316,cs)
);
}
);
width = 1738;
},
{
layerId = m003;
shapes = (
{
closed = 1;
nodes = (
(1295,-13,o),
(1638,331,o),
(1638,757,cs),
(1638,1182,o),
(1295,1525,o),
(870,1525,cs),
(443,1525,o),
(100,1182,o),
(100,757,cs),
(100,331,o),
(443,-13,o),
(870,-13,cs)
);
},
{
closed = 1;
nodes = (
(516,120,o),
(233,403,o),
(233,757,cs),
(233,1109,o),
(516,1392,o),
(870,1392,cs),
(1222,1392,o),
(1505,1109,o),
(1505,757,cs),
(1505,403,o),
(1222,120,o),
(870,120,cs)
);
},
{
closed = 1;
nodes = (
(1031,316,o),
(1215,378,o),
(1218,609,c),
(1064,609,l),
(1063,490,o),
(983,458,o),
(870,458,cs),
(741,458,o),
(658,547,o),
(658,755,cs),
(658,967,o),
(741,1053,o),
(870,1053,cs),
(983,1053,o),
(1063,1003,o),
(1064,902,c),
(1218,902,l),
(1215,1118,o),
(1031,1196,o),
(870,1196,cs),
(649,1189,o),
(487,1069,o),
(487,755,cs),
(487,444,o),
(651,316,o),
(870,316,cs)
);
}
);
width = 1738;
}
);
unicode = 169;
},
{
glyphname = registered;
lastChange = "2025-12-03 10:06:44 +0000";
layers = (
{
layerId = "1B8EDE0E-D46F-48F9-B9C6-2CD34FEA95FD";
shapes = (
{
closed = 1;
nodes = (
(874,334,o),
(1095,555,o),
(1095,832,cs),
(1095,1108,o),
(874,1330,o),
(598,1330,cs),
(321,1330,o),
(100,1108,o),
(100,832,cs),
(100,555,o),
(321,334,o),
(598,334,cs)
);
},
{
closed = 1;
nodes = (
(368,422,o),
(186,603,o),
(186,832,cs),
(186,1060,o),
(368,1244,o),
(598,1244,cs),
(827,1244,o),
(1008,1060,o),
(1008,832,cs),
(1008,603,o),
(827,422,o),
(598,422,cs)
);
},
{
closed = 1;
nodes = (
(519,621,l),
(519,805,l),
(602,805,l),
(690,621,l),
(776,621,l),
(686,812,l),
(734,824,o),
(772,864,o),
(772,943,cs),
(772,1060,o),
(698,1083,o),
(625,1083,cs),
(444,1083,l),
(444,621,l)
);
},
{
closed = 1;
nodes = (
(519,1018,l),
(625,1018,ls),
(663,1018,o),
(690,1005,o),
(690,943,cs),
(690,882,o),
(663,870,o),
(625,870,cs),
(519,870,l)
);
}
);
width = 1195;
},
{
layerId = m003;
shapes = (
{
closed = 1;
nodes = (
(874,334,o),
(1095,555,o),
(1095,832,cs),
(1095,1108,o),
(874,1330,o),
(598,1330,cs),
(321,1330,o),
(100,1108,o),
(100,832,cs),
(100,555,o),
(321,334,o),
(598,334,cs)
);
},
{
closed = 1;
nodes = (
(368,422,o),
(186,603,o),
(186,832,cs),
(186,1060,o),
(368,1244,o),
(598,1244,cs),
(827,1244,o),
(1008,1060,o),
(1008,832,cs),
(1008,603,o),
(827,422,o),
(598,422,cs)
);
},
{
closed = 1;
nodes = (
(519,621,l),
(519,805,l),
(602,805,l),
(690,621,l),
(776,621,l),
(686,812,l),
(734,824,o),
(772,864,o),
(772,943,cs),
(772,1060,o),
(698,1083,o),
(625,1083,cs),
(444,1083,l),
(444,621,l)
);
},
{
closed = 1;
nodes = (
(519,1018,l),
(625,1018,ls),
(663,1018,o),
(690,1005,o),
(690,943,cs),
(690,882,o),
(663,870,o),
(625,870,cs),
(519,870,l)
);
}
);
width = 1195;
}
);
unicode = 174;
},
{
glyphname = trademark;
lastChange = "2025-12-03 10:06:44 +0000";
layers = (
{
layerId = "1B8EDE0E-D46F-48F9-B9C6-2CD34FEA95FD";
shapes = (
{
closed = 1;
nodes = (
(431,390,l),
(431,979,l),
(622,979,l),
(622,1098,l),
(100,1098,l),
(100,979,l),
(294,979,l),
(294,390,l)
);
},
{
closed = 1;
nodes = (
(848,387,l),
(848,974,l),
(790,915,l),
(1041,387,l),
(1132,387,l),
(1383,915,l),
(1322,974,l),
(1322,387,l),
(1443,387,l),
(1443,1098,l),
(1333,1098,l),
(1034,451,l),
(1144,451,l),
(840,1098,l),
(731,1098,l),
(731,387,l)
);
}
);
width = 1543;
},
{
layerId = m003;
shapes = (
{
closed = 1;
nodes = (
(431,390,l),
(431,979,l),
(622,979,l),
(622,1098,l),
(100,1098,l),
(100,979,l),
(294,979,l),
(294,390,l)
);
},
{
closed = 1;
nodes = (
(848,387,l),
(848,974,l),
(790,915,l),
(1041,387,l),
(1132,387,l),
(1383,915,l),
(1322,974,l),
(1322,387,l),
(1443,387,l),
(1443,1098,l),
(1333,1098,l),
(1034,451,l),
(1144,451,l),
(840,1098,l),
(731,1098,l),
(731,387,l)
);
}
);
width = 1543;
}
);
unicode = 8482;
},
{
glyphname = second;
lastChange = "2025-12-03 10:06:44 +0000";
layers = (
{
layerId = "1B8EDE0E-D46F-48F9-B9C6-2CD34FEA95FD";
shapes = (
{
closed = 1;
nodes = (
(278,579,l),
(433,1131,l),
(196,1131,l),
(100,579,l)
);
},
{
closed = 1;
nodes = (
(620,579,l),
(776,1131,l),
(539,1131,l),
(444,579,l)
);
}
);
width = 876;
},
{
layerId = m003;
shapes = (
{
closed = 1;
nodes = (
(278,579,l),
(433,1131,l),
(196,1131,l),
(100,579,l)
);
},
{
closed = 1;
nodes = (
(620,579,l),
(776,1131,l),
(539,1131,l),
(444,579,l)
);
}
);
width = 876;
}
);
unicode = 8243;
},
{
glyphname = bar;
lastChange = "2025-12-03 10:06:44 +0000";
layers = (
{
layerId = "1B8EDE0E-D46F-48F9-B9C6-2CD34FEA95FD";
shapes = (
{
closed = 1;
nodes = (
(100,1859,l),
(100,-149,l),
(277,-149,l),
(277,1859,l)
);
}
);
width = 377;
},
{
layerId = m003;
shapes = (
{
closed = 1;
nodes = (
(100,1859,l),
(100,-149,l),
(277,-149,l),
(277,1859,l)
);
}
);
width = 377;
}
);
unicode = 124;
},
{
glyphname = dollar;
lastChange = "2025-12-03 10:06:44 +0000";
layers = (
{
layerId = "1B8EDE0E-D46F-48F9-B9C6-2CD34FEA95FD";
shapes = (
{
closed = 1;
nodes = (
(701,-103,l),
(701,1943,l),
(569,1943,l),
(569,-103,l)
);
},
{
pos = (28,0);
ref = S;
}
);
width = 1266;
},
{
layerId = m003;
shapes = (
{
closed = 1;
nodes = (
(701,-103,l),
(701,1943,l),
(569,1943,l),
(569,-103,l)
);
},
{
pos = (28,0);
ref = S;
}
);
width = 1266;
}
);
unicode = 36;
},
{
glyphname = euro;
lastChange = "2025-12-03 10:06:44 +0000";
layers = (
{
layerId = "1B8EDE0E-D46F-48F9-B9C6-2CD34FEA95FD";
shapes = (
{
closed = 1;
nodes = (
(1073,-13,o),
(1362,129,o),
(1362,474,c),
(1164,474,l),
(1164,257,o),
(1017,158,o),
(834,158,cs),
(573,158,o),
(429,364,o),
(429,757,cs),
(429,1150,o),
(573,1356,o),
(834,1356,cs),
(1014,1356,o),
(1164,1260,o),
(1164,1038,c),
(1362,1038,l),
(1362,1395,o),
(1072,1525,o),
(818,1525,cs),
(480,1525,o),
(235,1301,o),
(235,757,cs),
(235,220,o),
(480,-13,o),
(818,-13,cs)
);
},
{
closed = 1;
nodes = (
(100,831,l),
(973,831,l),
(973,961,l),
(100,961,l)
);
},
{
closed = 1;
nodes = (
(100,557,l),
(973,557,l),
(973,686,l),
(100,686,l)
);
}
);
width = 1462;
},
{
layerId = m003;
shapes = (
{
closed = 1;
nodes = (
(1073,-13,o),
(1362,129,o),
(1362,474,c),
(1164,474,l),
(1164,257,o),
(1017,158,o),
(834,158,cs),
(573,158,o),
(429,364,o),
(429,757,cs),
(429,1150,o),
(573,1356,o),
(834,1356,cs),
(1014,1356,o),
(1164,1260,o),
(1164,1038,c),
(1362,1038,l),
(1362,1395,o),
(1072,1525,o),
(818,1525,cs),
(480,1525,o),
(235,1301,o),
(235,757,cs),
(235,220,o),
(480,-13,o),
(818,-13,cs)
);
},
{
closed = 1;
nodes = (
(100,831,l),
(973,831,l),
(973,961,l),
(100,961,l)
);
},
{
closed = 1;
nodes = (
(100,557,l),
(973,557,l),
(973,686,l),
(100,686,l)
);
}
);
width = 1462;
}
);
unicode = 8364;
},
{
glyphname = sterling;
lastChange = "2025-12-03 10:06:44 +0000";
layers = (
{
layerId = "1B8EDE0E-D46F-48F9-B9C6-2CD34FEA95FD";
shapes = (
{
closed = 1;
nodes = (
(1084,0,l),
(1084,180,l),
(482,180,l),
(581,286,o),
(761,400,o),
(545,651,cs),
(449,773,o),
(394,890,o),
(394,1025,cs),
(394,1243,o),
(485,1334,o),
(632,1333,cs),
(768,1330,o),
(875,1243,o),
(875,1028,c),
(1074,1028,l),
(1074,1386,o),
(883,1512,o),
(632,1512,cs),
(390,1512,o),
(184,1386,o),
(184,1035,cs),
(184,811,o),
(275,658,o),
(371,547,cs),
(533,354,o),
(279,265,o),
(142,123,c),
(142,0,l)
);
},
{
closed = 1;
nodes = (
(100,664,l),
(942,664,l),
(942,825,l),
(100,825,l)
);
}
);
width = 1184;
},
{
layerId = m003;
shapes = (
{
closed = 1;
nodes = (
(1084,0,l),
(1084,180,l),
(482,180,l),
(581,286,o),
(761,400,o),
(545,651,cs),
(449,773,o),
(394,890,o),
(394,1025,cs),
(394,1243,o),
(485,1334,o),
(632,1333,cs),
(768,1330,o),
(875,1243,o),
(875,1028,c),
(1074,1028,l),
(1074,1386,o),
(883,1512,o),
(632,1512,cs),
(390,1512,o),
(184,1386,o),
(184,1035,cs),
(184,811,o),
(275,658,o),
(371,547,cs),
(533,354,o),
(279,265,o),
(142,123,c),
(142,0,l)
);
},
{
closed = 1;
nodes = (
(100,664,l),
(942,664,l),
(942,825,l),
(100,825,l)
);
}
);
width = 1184;
}
);
unicode = 163;
},
{
glyphname = plus;
lastChange = "2025-12-03 10:06:44 +0000";
layers = (
{
layerId = "1B8EDE0E-D46F-48F9-B9C6-2CD34FEA95FD";
shapes = (
{
closed = 1;
nodes = (
(100,584,l),
(1105,584,l),
(1105,770,l),
(100,770,l)
);
},
{
closed = 1;
nodes = (
(511,1180,l),
(511,174,l),
(693,174,l),
(693,1180,l)
);
}
);
width = 1205;
},
{
layerId = m003;
shapes = (
{
closed = 1;
nodes = (
(100,584,l),
(1105,584,l),
(1105,770,l),
(100,770,l)
);
},
{
closed = 1;
nodes = (
(511,1180,l),
(511,174,l),
(693,174,l),
(693,1180,l)
);
}
);
width = 1205;
}
);
unicode = 43;
},
{
glyphname = minus;
lastChange = "2025-12-03 10:06:44 +0000";
layers = (
{
layerId = "1B8EDE0E-D46F-48F9-B9C6-2CD34FEA95FD";
shapes = (
{
closed = 1;
nodes = (
(100,380,l),
(1105,380,l),
(1105,566,l),
(100,566,l)
);
}
);
width = 1205;
},
{
layerId = m003;
shapes = (
{
closed = 1;
nodes = (
(100,380,l),
(1105,380,l),
(1105,566,l),
(100,566,l)
);
}
);
width = 1205;
}
);
unicode = 8722;
},
{
glyphname = multiply;
lastChange = "2025-12-03 10:06:44 +0000";
layers = (
{
layerId = "1B8EDE0E-D46F-48F9-B9C6-2CD34FEA95FD";
shapes = (
{
closed = 1;
nodes = (
(937,341,l),
(227,1054,l),
(100,928,l),
(811,218,l)
);
},
{
closed = 1;
nodes = (
(937,928,l),
(811,1054,l),
(100,341,l),
(227,218,l)
);
}
);
width = 1037;
},
{
layerId = m003;
shapes = (
{
closed = 1;
nodes = (
(937,341,l),
(227,1054,l),
(100,928,l),
(811,218,l)
);
},
{
closed = 1;
nodes = (
(937,928,l),
(811,1054,l),
(100,341,l),
(227,218,l)
);
}
);
width = 1037;
}
);
unicode = 215;
},
{
glyphname = divide;
lastChange = "2025-12-03 10:06:44 +0000";
layers = (
{
layerId = "1B8EDE0E-D46F-48F9-B9C6-2CD34FEA95FD";
shapes = (
{
closed = 1;
nodes = (
(1105,577,l),
(1105,763,l),
(100,763,l),
(100,577,l)
);
},
{
closed = 1;
nodes = (
(692,969,l),
(692,1157,l),
(501,1157,l),
(501,969,l)
);
},
{
closed = 1;
nodes = (
(692,183,l),
(692,371,l),
(501,371,l),
(501,183,l)
);
}
);
width = 1205;
},
{
layerId = m003;
shapes = (
{
closed = 1;
nodes = (
(1105,577,l),
(1105,763,l),
(100,763,l),
(100,577,l)
);
},
{
closed = 1;
nodes = (
(692,969,l),
(692,1157,l),
(501,1157,l),
(501,969,l)
);
},
{
closed = 1;
nodes = (
(692,183,l),
(692,371,l),
(501,371,l),
(501,183,l)
);
}
);
width = 1205;
}
);
unicode = 247;
},
{
glyphname = equal;
lastChange = "2025-12-03 10:06:44 +0000";
layers = (
{
layerId = "1B8EDE0E-D46F-48F9-B9C6-2CD34FEA95FD";
shapes = (
{
closed = 1;
nodes = (
(100,654,l),
(945,654,l),
(945,822,l),
(100,822,l)
);
},
{
closed = 1;
nodes = (
(100,242,l),
(945,242,l),
(945,412,l),
(100,412,l)
);
}
);
width = 1045;
},
{
layerId = m003;
shapes = (
{
closed = 1;
nodes = (
(100,654,l),
(945,654,l),
(945,822,l),
(100,822,l)
);
},
{
closed = 1;
nodes = (
(100,242,l),
(945,242,l),
(945,412,l),
(100,412,l)
);
}
);
width = 1045;
}
);
unicode = 61;
},
{
glyphname = greater;
lastChange = "2025-12-03 10:06:44 +0000";
layers = (
{
layerId = "1B8EDE0E-D46F-48F9-B9C6-2CD34FEA95FD";
shapes = (
{
closed = 1;
nodes = (
(100,1038,l),
(1064,579,l),
(1064,748,l),
(100,1224,l)
);
},
{
closed = 1;
nodes = (
(100,113,l),
(1064,579,l),
(1064,748,l),
(100,300,l)
);
}
);
width = 1164;
},
{
layerId = m003;
shapes = (
{
closed = 1;
nodes = (
(100,1038,l),
(1064,579,l),
(1064,748,l),
(100,1224,l)
);
},
{
closed = 1;
nodes = (
(100,113,l),
(1064,579,l),
(1064,748,l),
(100,300,l)
);
}
);
width = 1164;
}
);
unicode = 62;
},
{
glyphname = less;
lastChange = "2025-12-03 10:06:44 +0000";
layers = (
{
layerId = "1B8EDE0E-D46F-48F9-B9C6-2CD34FEA95FD";
shapes = (
{
closed = 1;
nodes = (
(100,750,l),
(100,583,l),
(1066,1041,l),
(1066,1227,l)
);
},
{
closed = 1;
nodes = (
(100,750,l),
(100,583,l),
(1066,116,l),
(1066,302,l)
);
}
);
width = 1166;
},
{
layerId = m003;
shapes = (
{
closed = 1;
nodes = (
(100,750,l),
(100,583,l),
(1066,1041,l),
(1066,1227,l)
);
},
{
closed = 1;
nodes = (
(100,750,l),
(100,583,l),
(1066,116,l),
(1066,302,l)
);
}
);
width = 1166;
}
);
unicode = 60;
},
{
glyphname = percent;
lastChange = "2025-12-03 10:06:44 +0000";
layers = (
{
layerId = "1B8EDE0E-D46F-48F9-B9C6-2CD34FEA95FD";
shapes = (
{
closed = 1;
nodes = (
(100,15,l),
(331,15,l),
(1454,1643,l),
(1225,1643,l)
);
},
{
closed = 1;
nodes = (
(1032,566,o),
(1090,606,o),
(1163,606,cs),
(1225,606,o),
(1283,566,o),
(1283,367,cs),
(1283,165,o),
(1225,126,o),
(1163,126,cs),
(1090,126,o),
(1032,165,o),
(1032,367,cs)
);
},
{
closed = 1;
nodes = (
(291,1454,o),
(347,1495,o),
(416,1495,cs),
(480,1495,o),
(532,1454,o),
(532,1269,cs),
(532,1080,o),
(480,1040,o),
(416,1040,cs),
(347,1040,o),
(291,1080,o),
(291,1269,cs)
);
},
{
closed = 1;
nodes = (
(135,967,o),
(275,892,o),
(416,892,cs),
(547,892,o),
(687,967,o),
(687,1269,cs),
(687,1567,o),
(547,1643,o),
(416,1643,cs),
(275,1643,o),
(135,1567,o),
(135,1269,cs)
);
},
{
closed = 1;
nodes = (
(882,65,o),
(1022,-10,o),
(1163,-10,cs),
(1293,-10,o),
(1434,65,o),
(1434,367,cs),
(1434,666,o),
(1293,741,o),
(1163,741,cs),
(1022,741,o),
(882,666,o),
(882,367,cs)
);
}
);
width = 1554;
},
{
layerId = m003;
shapes = (
{
closed = 1;
nodes = (
(100,15,l),
(331,15,l),
(1454,1643,l),
(1225,1643,l)
);
},
{
closed = 1;
nodes = (
(1032,566,o),
(1090,606,o),
(1163,606,cs),
(1225,606,o),
(1283,566,o),
(1283,367,cs),
(1283,165,o),
(1225,126,o),
(1163,126,cs),
(1090,126,o),
(1032,165,o),
(1032,367,cs)
);
},
{
closed = 1;
nodes = (
(291,1454,o),
(347,1495,o),
(416,1495,cs),
(480,1495,o),
(532,1454,o),
(532,1269,cs),
(532,1080,o),
(480,1040,o),
(416,1040,cs),
(347,1040,o),
(291,1080,o),
(291,1269,cs)
);
},
{
closed = 1;
nodes = (
(135,967,o),
(275,892,o),
(416,892,cs),
(547,892,o),
(687,967,o),
(687,1269,cs),
(687,1567,o),
(547,1643,o),
(416,1643,cs),
(275,1643,o),
(135,1567,o),
(135,1269,cs)
);
},
{
closed = 1;
nodes = (
(882,65,o),
(1022,-10,o),
(1163,-10,cs),
(1293,-10,o),
(1434,65,o),
(1434,367,cs),
(1434,666,o),
(1293,741,o),
(1163,741,cs),
(1022,741,o),
(882,666,o),
(882,367,cs)
);
}
);
width = 1554;
}
);
unicode = 37;
},
{
glyphname = upArrow;
lastChange = "2025-12-03 10:06:44 +0000";
layers = (
{
layerId = "1B8EDE0E-D46F-48F9-B9C6-2CD34FEA95FD";
shapes = (
{
closed = 1;
nodes = (
(630,1216,l),
(509,1275,l),
(509,106,ls),
(509,87,o),
(520,76,o),
(539,76,cs),
(682,76,ls),
(701,76,o),
(712,87,o),
(712,106,cs),
(712,1275,l),
(594,1216,l),
(1086,847,ls),
(1106,832,o),
(1123,840,o),
(1123,866,cs),
(1123,1006,ls),
(1123,1022,o),
(1117,1034,o),
(1105,1043,cs),
(611,1423,l),
(118,1043,ls),
(106,1034,o),
(100,1022,o),
(100,1006,cs),
(100,866,ls),
(100,840,o),
(117,832,o),
(137,847,cs)
);
}
);
width = 1223;
},
{
layerId = m003;
shapes = (
{
closed = 1;
nodes = (
(630,1216,l),
(509,1275,l),
(509,106,ls),
(509,87,o),
(520,76,o),
(539,76,cs),
(682,76,ls),
(701,76,o),
(712,87,o),
(712,106,cs),
(712,1275,l),
(594,1216,l),
(1086,847,ls),
(1106,832,o),
(1123,840,o),
(1123,866,cs),
(1123,1006,ls),
(1123,1022,o),
(1117,1034,o),
(1105,1043,cs),
(611,1423,l),
(118,1043,ls),
(106,1034,o),
(100,1022,o),
(100,1006,cs),
(100,866,ls),
(100,840,o),
(117,832,o),
(137,847,cs)
);
}
);
width = 1223;
}
);
metricRight = "=|";
unicode = 8593;
},
{
glyphname = rightArrow;
lastChange = "2025-12-03 10:06:44 +0000";
layers = (
{
layerId = "1B8EDE0E-D46F-48F9-B9C6-2CD34FEA95FD";
shapes = (
{
closed = 1;
nodes = (
(1045,1242,ls),
(1036,1254,o),
(1024,1260,o),
(1008,1260,cs),
(868,1260,ls),
(842,1260,o),
(834,1243,o),
(849,1223,cs),
(1218,731,l),
(1277,834,l),
(108,834,ls),
(89,834,o),
(78,823,o),
(78,804,cs),
(78,676,ls),
(78,671,o),
(89,660,o),
(108,660,cs),
(1277,660,l),
(1218,752,l),
(849,274,ls),
(834,254,o),
(842,237,o),
(868,237,cs),
(1008,237,ls),
(1024,237,o),
(1036,243,o),
(1045,255,cs),
(1425,748,l)
);
}
);
width = 1548;
},
{
layerId = m003;
shapes = (
{
closed = 1;
nodes = (
(1045,1242,ls),
(1036,1254,o),
(1024,1260,o),
(1008,1260,cs),
(868,1260,ls),
(842,1260,o),
(834,1243,o),
(849,1223,cs),
(1218,731,l),
(1277,834,l),
(108,834,ls),
(89,834,o),
(78,823,o),
(78,804,cs),
(78,676,ls),
(78,671,o),
(89,660,o),
(108,660,cs),
(1277,660,l),
(1218,752,l),
(849,274,ls),
(834,254,o),
(842,237,o),
(868,237,cs),
(1008,237,ls),
(1024,237,o),
(1036,243,o),
(1045,255,cs),
(1425,748,l)
);
}
);
width = 1548;
}
);
unicode = 8594;
},
{
glyphname = downArrow;
lastChange = "2025-12-03 10:06:44 +0000";
layers = (
{
layerId = "1B8EDE0E-D46F-48F9-B9C6-2CD34FEA95FD";
shapes = (
{
closed = 1;
nodes = (
(1105,456,ls),
(1117,465,o),
(1123,477,o),
(1123,493,cs),
(1123,633,ls),
(1123,659,o),
(1106,667,o),
(1086,652,cs),
(594,283,l),
(712,224,l),
(712,1393,ls),
(712,1412,o),
(701,1423,o),
(682,1423,cs),
(539,1423,ls),
(520,1423,o),
(509,1412,o),
(509,1393,cs),
(509,224,l),
(630,283,l),
(137,652,ls),
(117,667,o),
(100,659,o),
(100,633,cs),
(100,493,ls),
(100,477,o),
(106,465,o),
(118,456,cs),
(611,76,l)
);
}
);
width = 1223;
},
{
layerId = m003;
shapes = (
{
closed = 1;
nodes = (
(1105,456,ls),
(1117,465,o),
(1123,477,o),
(1123,493,cs),
(1123,633,ls),
(1123,659,o),
(1106,667,o),
(1086,652,cs),
(594,283,l),
(712,224,l),
(712,1393,ls),
(712,1412,o),
(701,1423,o),
(682,1423,cs),
(539,1423,ls),
(520,1423,o),
(509,1412,o),
(509,1393,cs),
(509,224,l),
(630,283,l),
(137,652,ls),
(117,667,o),
(100,659,o),
(100,633,cs),
(100,493,ls),
(100,477,o),
(106,465,o),
(118,456,cs),
(611,76,l)
);
}
);
width = 1223;
}
);
metricRight = "=|";
unicode = 8595;
},
{
glyphname = leftArrow;
lastChange = "2025-12-03 10:06:44 +0000";
layers = (
{
layerId = "1B8EDE0E-D46F-48F9-B9C6-2CD34FEA95FD";
shapes = (
{
closed = 1;
nodes = (
(458,255,ls),
(467,243,o),
(479,237,o),
(495,237,cs),
(635,237,ls),
(661,237,o),
(669,254,o),
(654,274,cs),
(285,752,l),
(226,660,l),
(1395,660,ls),
(1414,660,o),
(1425,671,o),
(1425,676,cs),
(1425,804,ls),
(1425,823,o),
(1414,834,o),
(1395,834,cs),
(226,834,l),
(285,731,l),
(654,1223,ls),
(669,1243,o),
(661,1260,o),
(635,1260,cs),
(495,1260,ls),
(479,1260,o),
(467,1254,o),
(458,1242,cs),
(78,748,l)
);
}
);
width = 1547;
},
{
layerId = m003;
shapes = (
{
closed = 1;
nodes = (
(458,255,ls),
(467,243,o),
(479,237,o),
(495,237,cs),
(635,237,ls),
(661,237,o),
(669,254,o),
(654,274,cs),
(285,752,l),
(226,660,l),
(1395,660,ls),
(1414,660,o),
(1425,671,o),
(1425,676,cs),
(1425,804,ls),
(1425,823,o),
(1414,834,o),
(1395,834,cs),
(226,834,l),
(285,731,l),
(654,1223,ls),
(669,1243,o),
(661,1260,o),
(635,1260,cs),
(495,1260,ls),
(479,1260,o),
(467,1254,o),
(458,1242,cs),
(78,748,l)
);
}
);
width = 1547;
}
);
unicode = 8592;
},
{
glyphname = dieresiscomb;
lastChange = "2025-12-03 15:59:57 +0000";
layers = (
{
anchors = (
{
name = _top;
pos = (321,1060);
},
{
name = top;
pos = (321,1455);
}
);
layerId = "1B8EDE0E-D46F-48F9-B9C6-2CD34FEA95FD";
shapes = (
{
closed = 1;
nodes = (
(-3,1239,o),
(49,1191,o),
(134,1191,cs),
(219,1191,o),
(271,1239,o),
(271,1323,cs),
(271,1407,o),
(219,1455,o),
(134,1455,cs),
(49,1455,o),
(-3,1407,o),
(-3,1323,cs)
);
},
{
closed = 1;
nodes = (
(371,1239,o),
(423,1191,o),
(508,1191,cs),
(593,1191,o),
(645,1239,o),
(645,1323,cs),
(645,1407,o),
(593,1455,o),
(508,1455,cs),
(423,1455,o),
(371,1407,o),
(371,1323,cs)
);
}
);
width = 671;
},
{
anchors = (
{
name = _top;
pos = (321,1060);
},
{
name = top;
pos = (321,1455);
}
);
layerId = m003;
shapes = (
{
closed = 1;
nodes = (
(-3,1239,o),
(49,1191,o),
(134,1191,cs),
(219,1191,o),
(271,1239,o),
(271,1323,cs),
(271,1407,o),
(219,1455,o),
(134,1455,cs),
(49,1455,o),
(-3,1407,o),
(-3,1323,cs)
);
},
{
closed = 1;
nodes = (
(371,1239,o),
(423,1191,o),
(508,1191,cs),
(593,1191,o),
(645,1239,o),
(645,1323,cs),
(645,1407,o),
(593,1455,o),
(508,1455,cs),
(423,1455,o),
(371,1407,o),
(371,1323,cs)
);
}
);
width = 671;
}
);
unicode = 776;
},
{
glyphname = dotaccentcomb;
lastChange = "2025-12-03 15:59:57 +0000";
layers = (
{
anchors = (
{
name = _top;
pos = (129,1060);
},
{
name = top;
pos = (129,1456);
}
);
layerId = "1B8EDE0E-D46F-48F9-B9C6-2CD34FEA95FD";
shapes = (
{
closed = 1;
nodes = (
(200,1222,o),
(244,1270,o),
(244,1343,cs),
(244,1409,o),
(200,1456,o),
(128,1456,cs),
(57,1456,o),
(13,1409,o),
(13,1343,cs),
(13,1270,o),
(57,1222,o),
(128,1222,cs)
);
}
);
width = 257;
},
{
anchors = (
{
name = _top;
pos = (129,1060);
},
{
name = top;
pos = (129,1456);
}
);
layerId = m003;
shapes = (
{
closed = 1;
nodes = (
(200,1222,o),
(244,1270,o),
(244,1343,cs),
(244,1409,o),
(200,1456,o),
(128,1456,cs),
(57,1456,o),
(13,1409,o),
(13,1343,cs),
(13,1270,o),
(57,1222,o),
(128,1222,cs)
);
}
);
width = 257;
}
);
unicode = 775;
},
{
glyphname = gravecomb;
lastChange = "2025-12-03 15:59:57 +0000";
layers = (
{
anchors = (
{
name = _top;
pos = (211,1060);
},
{
name = top;
pos = (211,1510);
}
);
layerId = "1B8EDE0E-D46F-48F9-B9C6-2CD34FEA95FD";
shapes = (
{
closed = 1;
nodes = (
(72,1510,ls),
(48,1510,o),
(40,1494,o),
(52,1474,cs),
(221,1180,ls),
(229,1165,o),
(241,1159,o),
(257,1159,cs),
(348,1159,ls),
(370,1159,o),
(380,1173,o),
(372,1194,cs),
(253,1487,ls),
(247,1503,o),
(236,1510,o),
(219,1510,cs)
);
}
);
width = 386;
},
{
anchors = (
{
name = _top;
pos = (211,1060);
},
{
name = top;
pos = (211,1510);
}
);
layerId = m003;
shapes = (
{
closed = 1;
nodes = (
(72,1510,ls),
(48,1510,o),
(40,1494,o),
(52,1474,cs),
(221,1180,ls),
(229,1165,o),
(241,1159,o),
(257,1159,cs),
(348,1159,ls),
(370,1159,o),
(380,1173,o),
(372,1194,cs),
(253,1487,ls),
(247,1503,o),
(236,1510,o),
(219,1510,cs)
);
}
);
width = 386;
}
);
unicode = 768;
},
{
glyphname = acutecomb;
lastChange = "2025-12-03 20:39:26 +0000";
layers = (
{
anchors = (
{
name = _top;
pos = (131,1060);
},
{
name = top;
pos = (220,1510);
}
);
layerId = "1B8EDE0E-D46F-48F9-B9C6-2CD34FEA95FD";
shapes = (
{
closed = 1;
nodes = (
(59,1194,ls),
(51,1173,o),
(61,1159,o),
(83,1159,cs),
(174,1159,ls),
(190,1159,o),
(202,1165,o),
(210,1180,cs),
(379,1474,ls),
(391,1494,o),
(383,1510,o),
(359,1510,cs),
(212,1510,ls),
(195,1510,o),
(184,1503,o),
(178,1487,cs)
);
}
);
width = 418;
},
{
anchors = (
{
name = _top;
pos = (220,1060);
},
{
name = top;
pos = (220,1510);
}
);
layerId = m003;
shapes = (
{
closed = 1;
nodes = (
(59,1194,ls),
(51,1173,o),
(61,1159,o),
(83,1159,cs),
(174,1159,ls),
(190,1159,o),
(202,1165,o),
(210,1180,cs),
(379,1474,ls),
(391,1494,o),
(383,1510,o),
(359,1510,cs),
(212,1510,ls),
(195,1510,o),
(184,1503,o),
(178,1487,cs)
);
}
);
width = 418;
}
);
unicode = 769;
},
{
glyphname = hungarumlautcomb;
lastChange = "2025-12-03 15:59:57 +0000";
layers = (
{
anchors = (
{
name = _top;
pos = (299,1060);
},
{
name = top;
pos = (299,1520);
}
);
layerId = "1B8EDE0E-D46F-48F9-B9C6-2CD34FEA95FD";
shapes = (
{
closed = 1;
nodes = (
(-3,1199,l),
(151,1199,l),
(338,1520,l),
(131,1520,l)
);
},
{
closed = 1;
nodes = (
(261,1199,l),
(413,1199,l),
(600,1520,l),
(393,1520,l)
);
}
);
width = 711;
},
{
anchors = (
{
name = _top;
pos = (299,1060);
},
{
name = top;
pos = (299,1520);
}
);
layerId = m003;
shapes = (
{
closed = 1;
nodes = (
(-3,1199,l),
(151,1199,l),
(338,1520,l),
(131,1520,l)
);
},
{
closed = 1;
nodes = (
(261,1199,l),
(413,1199,l),
(600,1520,l),
(393,1520,l)
);
}
);
width = 711;
}
);
unicode = 779;
},
{
glyphname = circumflexcomb;
lastChange = "2025-12-03 15:59:57 +0000";
layers = (
{
anchors = (
{
name = _top;
pos = (294,1060);
},
{
name = top;
pos = (294,1490);
}
);
layerId = "1B8EDE0E-D46F-48F9-B9C6-2CD34FEA95FD";
shapes = (
{
closed = 1;
nodes = (
(76,1159,ls),
(91,1159,o),
(103,1164,o),
(113,1175,cs),
(321,1403,l),
(267,1403,l),
(474,1175,ls),
(484,1164,o),
(496,1159,o),
(511,1159,cs),
(597,1159,ls),
(622,1159,o),
(630,1175,o),
(615,1196,cs),
(414,1472,ls),
(405,1485,o),
(393,1490,o),
(377,1490,cs),
(210,1490,ls),
(194,1490,o),
(182,1485,o),
(173,1472,cs),
(-28,1196,ls),
(-43,1175,o),
(-35,1159,o),
(-10,1159,cs)
);
}
);
width = 695;
},
{
anchors = (
{
name = _top;
pos = (294,1060);
},
{
name = top;
pos = (294,1490);
}
);
layerId = m003;
shapes = (
{
closed = 1;
nodes = (
(76,1159,ls),
(91,1159,o),
(103,1164,o),
(113,1175,cs),
(321,1403,l),
(267,1403,l),
(474,1175,ls),
(484,1164,o),
(496,1159,o),
(511,1159,cs),
(597,1159,ls),
(622,1159,o),
(630,1175,o),
(615,1196,cs),
(414,1472,ls),
(405,1485,o),
(393,1490,o),
(377,1490,cs),
(210,1490,ls),
(194,1490,o),
(182,1485,o),
(173,1472,cs),
(-28,1196,ls),
(-43,1175,o),
(-35,1159,o),
(-10,1159,cs)
);
}
);
width = 695;
}
);
unicode = 770;
},
{
glyphname = caroncomb;
lastChange = "2025-12-03 15:59:57 +0000";
layers = (
{
anchors = (
{
name = _top;
pos = (370,1060);
},
{
name = top;
pos = (370,1520);
}
);
layerId = "1B8EDE0E-D46F-48F9-B9C6-2CD34FEA95FD";
shapes = (
{
closed = 1;
nodes = (
(691,1483,ls),
(706,1504,o),
(698,1520,o),
(673,1520,cs),
(563,1520,ls),
(548,1520,o),
(537,1515,o),
(527,1503,cs),
(340,1279,l),
(391,1279,l),
(213,1502,ls),
(203,1515,o),
(191,1520,o),
(176,1520,cs),
(67,1520,ls),
(43,1520,o),
(34,1505,o),
(48,1484,cs),
(234,1218,ls),
(243,1204,o),
(254,1199,o),
(270,1199,cs),
(458,1199,ls),
(474,1199,o),
(486,1204,o),
(495,1217,cs)
);
}
);
width = 719;
},
{
anchors = (
{
name = _top;
pos = (370,1060);
},
{
name = top;
pos = (370,1520);
}
);
layerId = m003;
shapes = (
{
closed = 1;
nodes = (
(691,1483,ls),
(706,1504,o),
(698,1520,o),
(673,1520,cs),
(563,1520,ls),
(548,1520,o),
(537,1515,o),
(527,1503,cs),
(340,1279,l),
(391,1279,l),
(213,1502,ls),
(203,1515,o),
(191,1520,o),
(176,1520,cs),
(67,1520,ls),
(43,1520,o),
(34,1505,o),
(48,1484,cs),
(234,1218,ls),
(243,1204,o),
(254,1199,o),
(270,1199,cs),
(458,1199,ls),
(474,1199,o),
(486,1204,o),
(495,1217,cs)
);
}
);
width = 719;
}
);
unicode = 780;
},
{
glyphname = ringcomb;
lastChange = "2025-12-03 15:59:57 +0000";
layers = (
{
anchors = (
{
name = _top;
pos = (179,1060);
},
{
name = top;
pos = (179,1504);
}
);
layerId = "1B8EDE0E-D46F-48F9-B9C6-2CD34FEA95FD";
shapes = (
{
closed = 1;
nodes = (
(290,1137,o),
(362,1206,o),
(362,1318,cs),
(362,1429,o),
(290,1504,o),
(178,1504,cs),
(67,1504,o),
(-5,1433,o),
(-5,1321,cs),
(-5,1209,o),
(67,1137,o),
(178,1137,cs)
);
},
{
closed = 1;
nodes = (
(126,1238,o),
(99,1271,o),
(99,1321,cs),
(99,1363,o),
(126,1402,o),
(178,1402,cs),
(229,1402,o),
(258,1363,o),
(258,1321,cs),
(258,1271,o),
(229,1238,o),
(178,1238,cs)
);
}
);
width = 357;
},
{
anchors = (
{
name = _top;
pos = (179,1060);
},
{
name = top;
pos = (179,1504);
}
);
layerId = m003;
shapes = (
{
closed = 1;
nodes = (
(290,1137,o),
(362,1206,o),
(362,1318,cs),
(362,1429,o),
(290,1504,o),
(178,1504,cs),
(67,1504,o),
(-5,1433,o),
(-5,1321,cs),
(-5,1209,o),
(67,1137,o),
(178,1137,cs)
);
},
{
closed = 1;
nodes = (
(126,1238,o),
(99,1271,o),
(99,1321,cs),
(99,1363,o),
(126,1402,o),
(178,1402,cs),
(229,1402,o),
(258,1363,o),
(258,1321,cs),
(258,1271,o),
(229,1238,o),
(178,1238,cs)
);
}
);
width = 357;
}
);
unicode = 778;
},
{
glyphname = tildecomb;
lastChange = "2025-12-03 15:59:57 +0000";
layers = (
{
anchors = (
{
name = _top;
pos = (384,1060);
},
{
name = top;
pos = (384,1485);
}
);
layerId = "1B8EDE0E-D46F-48F9-B9C6-2CD34FEA95FD";
shapes = (
{
closed = 1;
nodes = (
(121,1186,ls),
(139,1186,o),
(150,1195,o),
(154,1213,cs),
(168,1280,o),
(198,1331,o),
(265,1331,cs),
(341,1331,o),
(400,1219,o),
(533,1219,cs),
(631,1219,o),
(710,1300,o),
(739,1452,cs),
(743,1473,o),
(731,1485,o),
(711,1485,cs),
(649,1485,ls),
(631,1485,o),
(621,1476,o),
(617,1458,cs),
(603,1392,o),
(576,1330,o),
(505,1330,cs),
(428,1330,o),
(374,1452,o),
(238,1452,cs),
(130,1452,o),
(65,1371,o),
(30,1220,cs),
(25,1199,o),
(36,1186,o),
(57,1186,cs)
);
}
);
width = 764;
},
{
anchors = (
{
name = _top;
pos = (384,1060);
},
{
name = top;
pos = (384,1485);
}
);
layerId = m003;
shapes = (
{
closed = 1;
nodes = (
(121,1186,ls),
(139,1186,o),
(150,1195,o),
(154,1213,cs),
(168,1280,o),
(198,1331,o),
(265,1331,cs),
(341,1331,o),
(400,1219,o),
(533,1219,cs),
(631,1219,o),
(710,1300,o),
(739,1452,cs),
(743,1473,o),
(731,1485,o),
(711,1485,cs),
(649,1485,ls),
(631,1485,o),
(621,1476,o),
(617,1458,cs),
(603,1392,o),
(576,1330,o),
(505,1330,cs),
(428,1330,o),
(374,1452,o),
(238,1452,cs),
(130,1452,o),
(65,1371,o),
(30,1220,cs),
(25,1199,o),
(36,1186,o),
(57,1186,cs)
);
}
);
width = 764;
}
);
unicode = 771;
},
{
glyphname = cedillacomb;
lastChange = "2025-12-03 15:59:57 +0000";
layers = (
{
anchors = (
{
name = _bottom;
pos = (191,0);
},
{
name = bottom;
pos = (191,-441);
}
);
layerId = "1B8EDE0E-D46F-48F9-B9C6-2CD34FEA95FD";
shapes = (
{
closed = 1;
nodes = (
(79,-83,ls),
(72,-97,o),
(71,-110,o),
(79,-124,cs),
(106,-171,ls),
(114,-186,o),
(127,-191,o),
(145,-189,cs),
(161,-187,o),
(173,-187,o),
(180,-187,cs),
(215,-187,o),
(249,-207,o),
(249,-261,cs),
(249,-313,o),
(215,-336,o),
(180,-336,cs),
(157,-336,o),
(141,-329,o),
(132,-314,cs),
(122,-298,o),
(114,-290,o),
(97,-292,cs),
(53,-296,ls),
(34,-298,o),
(22,-310,o),
(26,-329,cs),
(40,-403,o),
(109,-441,o),
(183,-441,cs),
(271,-441,o),
(357,-390,o),
(357,-261,cs),
(357,-132,o),
(260,-83,o),
(172,-83,c),
(178,-120,l),
(239,4,l),
(123,4,l)
);
}
);
width = 380;
},
{
anchors = (
{
name = _bottom;
pos = (191,0);
},
{
name = bottom;
pos = (191,-441);
}
);
layerId = m003;
shapes = (
{
closed = 1;
nodes = (
(79,-83,ls),
(72,-97,o),
(71,-110,o),
(79,-124,cs),
(106,-171,ls),
(114,-186,o),
(127,-191,o),
(145,-189,cs),
(161,-187,o),
(173,-187,o),
(180,-187,cs),
(215,-187,o),
(249,-207,o),
(249,-261,cs),
(249,-313,o),
(215,-336,o),
(180,-336,cs),
(157,-336,o),
(141,-329,o),
(132,-314,cs),
(122,-298,o),
(114,-290,o),
(97,-292,cs),
(53,-296,ls),
(34,-298,o),
(22,-310,o),
(26,-329,cs),
(40,-403,o),
(109,-441,o),
(183,-441,cs),
(271,-441,o),
(357,-390,o),
(357,-261,cs),
(357,-132,o),
(260,-83,o),
(172,-83,c),
(178,-120,l),
(239,4,l),
(123,4,l)
);
}
);
width = 380;
}
);
unicode = 807;
},
{
glyphname = dotaccentcomb.001;
lastChange = "2025-12-03 15:59:57 +0000";
layers = (
{
anchors = (
{
name = _top;
pos = (137,1060);
},
{
name = top;
pos = (137,858);
}
);
layerId = "1B8EDE0E-D46F-48F9-B9C6-2CD34FEA95FD";
shapes = (
{
closed = 1;
nodes = (
(226,628,o),
(251,658,o),
(251,747,cs),
(251,831,o),
(226,858,o),
(138,858,cs),
(48,858,o),
(23,831,o),
(23,747,cs),
(23,658,o),
(48,628,o),
(138,628,cs)
);
}
);
width = 274;
},
{
anchors = (
{
name = _top;
pos = (137,1060);
},
{
name = top;
pos = (137,858);
}
);
layerId = m003;
shapes = (
{
closed = 1;
nodes = (
(226,628,o),
(251,658,o),
(251,747,cs),
(251,831,o),
(226,858,o),
(138,858,cs),
(48,858,o),
(23,831,o),
(23,747,cs),
(23,658,o),
(48,628,o),
(138,628,cs)
);
}
);
width = 274;
}
);
},
{
glyphname = ogonek;
lastChange = "2025-12-03 15:59:57 +0000";
layers = (
{
background = {
shapes = (
{
closed = 1;
nodes = (
(91,-98,o),
(132,-122,o),
(180,-122,c),
(180,-75,l),
(158,-75,o),
(139,-61,o),
(139,-39,cs),
(139,-18,o),
(158,0,o),
(181,0,c),
(174,19,l),
(135,16,o),
(91,-11,o),
(91,-57,cs)
);
}
